<?xml version="1.0" encoding="utf-8"?>
<!-- Generator: Adobe Illustrator 16.0.0, SVG Export Plug-In . SVG Version: 6.00 Build 0)  -->
<!DOCTYPE svg PUBLIC "-//W3C//DTD SVG 1.1//EN" "http://www.w3.org/Graphics/SVG/1.1/DTD/svg11.dtd">
<svg version="1.1" id="Layer_1" xmlns="http://www.w3.org/2000/svg" xmlns:xlink="http://www.w3.org/1999/xlink" x="0px" y="0px"
	 width="793.7px" height="793.7px" viewBox="0 0 793.7 793.7" enable-background="new 0 0 793.7 793.7" xml:space="preserve">
<g>
	<polygon fill-rule="evenodd" clip-rule="evenodd" fill="none" points="-32.169,-64.346 827.477,-64.346 827.477,795.298 
		-32.169,795.298 -32.169,-64.346 	"/>
	<path fill="#323A59" d="M309.28,193.26c1.627-0.688,3.505,0.073,4.192,1.701c0.688,1.627-0.073,3.505-1.7,4.193l-0.473,0.197
		l-1.242,0.53l-1.238,0.537l-1.234,0.545l-1.23,0.552l-1.226,0.559l-1.223,0.566l-1.219,0.573l-1.215,0.58l-1.192,0.579
		c-1.587,0.776-3.504,0.119-4.281-1.467c-0.776-1.588-0.119-3.504,1.469-4.281l1.228-0.597l1.25-0.598l1.253-0.589l1.258-0.583
		l1.263-0.575l1.266-0.568l1.27-0.56l1.275-0.553l1.278-0.546L309.28,193.26L309.28,193.26z M280.347,207.931
		c1.511-0.918,3.479-0.438,4.396,1.073c0.918,1.511,0.438,3.479-1.073,4.396l-1.054,0.635l-1.141,0.698l-1.137,0.704l-1.132,0.712
		l-1.127,0.719l-1.124,0.725l-1.118,0.73l-1.113,0.739l-1.109,0.743l-0.582,0.396c-1.457,0.998-3.449,0.625-4.447-0.833
		s-0.625-3.45,0.833-4.448l0.614-0.417l1.141-0.766l1.146-0.76l1.151-0.752l1.154-0.745l1.16-0.738l1.164-0.733l1.17-0.725
		l1.175-0.719L280.347,207.931L280.347,207.931z M253.808,226.542c1.369-1.116,3.386-0.911,4.502,0.459
		c1.116,1.368,0.911,3.385-0.458,4.501l-0.287,0.232l-1.028,0.845l-1.025,0.852l-1.02,0.855l-1.014,0.863l-1.01,0.869l-1.004,0.875
		l-0.998,0.881l-0.993,0.886l-0.987,0.892l-0.19,0.174c-1.301,1.196-3.325,1.111-4.521-0.189c-1.196-1.301-1.112-3.324,0.188-4.521
		l0.218-0.198l1.016-0.918l1.021-0.913l1.027-0.906l1.033-0.899l1.037-0.894l1.043-0.888l1.05-0.881l1.054-0.875l1.06-0.869
		L253.808,226.542L253.808,226.542z M209.847,274.013c0.998-1.458,2.99-1.83,4.448-0.833c1.458,0.998,1.831,2.99,0.833,4.448
		l-0.69,1.002l-0.75,1.104l-0.744,1.109l-0.738,1.113l-0.73,1.117l-0.726,1.124l-0.718,1.128l-0.712,1.132l-0.704,1.136
		l-0.375,0.613c-0.918,1.511-2.887,1.991-4.397,1.074c-1.51-0.918-1.99-2.887-1.073-4.396l0.396-0.646l0.725-1.17l0.732-1.165
		l0.738-1.16l0.746-1.154l0.752-1.151l0.76-1.146l0.765-1.14l0.773-1.137L209.847,274.013L209.847,274.013z M193.336,301.911
		c0.786-1.582,2.707-2.228,4.289-1.441c1.583,0.786,2.229,2.707,1.441,4.289l-0.209,0.417l-0.594,1.206l-0.588,1.21l-0.58,1.214
		l-0.574,1.219l-0.566,1.223l-0.559,1.227l-0.551,1.23l-0.545,1.234l-0.537,1.238l-0.006,0.012c-0.688,1.628-2.566,2.39-4.193,1.701
		c-1.628-0.688-2.39-2.565-1.701-4.193l0.021-0.049l0.552-1.274l0.561-1.271l0.567-1.266l0.575-1.262l0.583-1.258l0.59-1.254
		l0.598-1.249l0.604-1.246l0.612-1.241L193.336,301.911L193.336,301.911z M180.956,331.877c0.555-1.678,2.366-2.587,4.043-2.03
		c1.678,0.556,2.587,2.366,2.031,4.044l-0.006,0.016l-0.424,1.294l-0.417,1.298l-0.409,1.301l-0.4,1.304l-0.395,1.308l-0.385,1.312
		l-0.378,1.313l-0.37,1.317l-0.36,1.32l-0.077,0.286c-0.451,1.708-2.203,2.729-3.911,2.277s-2.728-2.203-2.276-3.912l0.086-0.322
		l0.372-1.359l0.381-1.356l0.389-1.353l0.396-1.348l0.404-1.347l0.413-1.342l0.422-1.339l0.429-1.334l0.437-1.331L180.956,331.877
		L180.956,331.877z M172.976,363.311c0.311-1.74,1.973-2.897,3.713-2.588c1.739,0.311,2.898,1.973,2.588,3.713l-0.011,0.061
		l-0.24,1.367l-0.23,1.37l-0.223,1.373l-0.216,1.376l-0.206,1.377l-0.198,1.382l-0.188,1.384l-0.181,1.387l-0.172,1.39l0.001-0.007
		c-0.201,1.756-1.788,3.016-3.544,2.815s-3.016-1.788-2.815-3.543l0.004-0.033l0.178-1.43l0.186-1.426l0.195-1.424l0.203-1.421
		l0.212-1.419l0.221-1.415l0.229-1.412l0.239-1.41l0.246-1.406L172.976,363.311L172.976,363.311z M169.546,395.567
		c0.056-1.767,1.534-3.153,3.3-3.098s3.152,1.533,3.098,3.3l-0.03,0.849l-0.04,1.427l-0.032,1.428l-0.022,1.432l-0.014,1.434
		l-0.004,1.434l0.004,1.436l0.014,1.434l0.022,1.432l0.007,0.312c0.045,1.766-1.351,3.234-3.117,3.279
		c-1.767,0.043-3.236-1.352-3.28-3.117l-0.008-0.355l-0.023-1.469l-0.015-1.475l-0.004-1.477l0.004-1.475l0.015-1.473l0.023-1.473
		l0.032-1.468l0.042-1.468L169.546,395.567L169.546,395.567z M170.669,427.965c-0.19-1.758,1.081-3.336,2.838-3.523
		c1.757-0.191,3.335,1.08,3.525,2.836l0.06,0.578l0.155,1.395l0.164,1.393l0.172,1.391l0.181,1.385l0.188,1.385l0.198,1.381
		l0.206,1.377l0.216,1.377l0.137,0.846c0.289,1.744-0.891,3.393-2.634,3.68c-1.744,0.289-3.393-0.891-3.681-2.633l-0.144-0.885
		l-0.221-1.416l-0.212-1.418l-0.203-1.422l-0.195-1.424l-0.186-1.426l-0.178-1.43l-0.168-1.432l-0.16-1.436L170.669,427.965
		L170.669,427.965z M176.354,459.896c-0.439-1.711,0.591-3.455,2.302-3.896c1.711-0.439,3.456,0.59,3.896,2.301l0.232,0.918
		l0.347,1.328l0.354,1.324l0.36,1.32l0.37,1.318l0.378,1.314l0.385,1.311l0.395,1.307l0.4,1.305l0.22,0.697
		c0.536,1.684-0.396,3.482-2.08,4.02c-1.685,0.533-3.484-0.396-4.02-2.082l-0.231-0.734l-0.413-1.342l-0.404-1.346l-0.396-1.35
		l-0.389-1.352l-0.381-1.355l-0.372-1.359l-0.364-1.363l-0.355-1.365L176.354,459.896L176.354,459.896z M200.992,519.701
		c-0.899-1.52-0.396-3.482,1.126-4.383c1.521-0.898,3.483-0.395,4.383,1.127l0.04,0.066l0.686,1.15l0.69,1.146l0.699,1.141
		l0.704,1.137l0.712,1.133l0.718,1.129l0.726,1.123l0.73,1.117l0.738,1.113l0.275,0.41c0.988,1.465,0.604,3.455-0.861,4.443
		s-3.453,0.604-4.442-0.861l-0.296-0.441l-0.76-1.146l-0.752-1.148l-0.746-1.156l-0.738-1.16l-0.732-1.164l-0.725-1.17l-0.719-1.176
		l-0.711-1.178l-0.705-1.184L200.992,519.701L200.992,519.701z M512.217,601.234c-1.527,0.891-3.486,0.375-4.377-1.152
		c-0.889-1.527-0.373-3.486,1.154-4.375l0.244-0.145l1.156-0.676l1.15-0.688l1.145-0.689l1.141-0.699l1.139-0.705l1.131-0.711
		l1.129-0.719l1.123-0.725l1.119-0.73l0.234-0.156c1.471-0.982,3.459-0.584,4.438,0.885c0.982,1.471,0.586,3.459-0.885,4.438
		l-0.271,0.18l-1.148,0.752l-1.156,0.746l-1.16,0.738l-1.164,0.732l-1.17,0.725l-1.174,0.719l-1.18,0.711l-1.184,0.705l-1.188,0.697
		L512.217,601.234L512.217,601.234z M539.027,582.982c-1.383,1.1-3.395,0.873-4.494-0.51c-1.102-1.383-0.873-3.398,0.51-4.498
		l0.623-0.492l1.041-0.832l1.035-0.84l1.029-0.846l1.025-0.85l1.018-0.855l1.016-0.865l1.008-0.867l1.006-0.875l0.883-0.781
		c1.322-1.172,3.346-1.051,4.518,0.271s1.053,3.346-0.27,4.518l-0.912,0.805l-1.033,0.898l-1.037,0.895l-1.045,0.887l-1.047,0.883
		l-1.055,0.875l-1.061,0.869l-1.064,0.863l-1.07,0.855L539.027,582.982L539.027,582.982z M562.992,561.133
		c-1.211,1.285-3.238,1.348-4.523,0.135c-1.287-1.211-1.346-3.238-0.135-4.523l0.828-0.873l0.91-0.971l0.904-0.977l0.898-0.982
		l0.893-0.988l0.885-0.994l0.881-0.998l0.875-1.004l0.869-1.008l0.502-0.592c1.143-1.35,3.16-1.518,4.512-0.377
		c1.348,1.141,1.516,3.16,0.375,4.51l-0.527,0.619l-0.895,1.039l-0.898,1.031l-0.906,1.027l-0.912,1.023l-0.916,1.016l-0.926,1.008
		l-0.93,1.008l-0.936,0.998L562.992,561.133L562.992,561.133z M583.627,536.137c-1.023,1.441-3.021,1.779-4.461,0.754
		c-1.439-1.023-1.777-3.021-0.754-4.461l0.166-0.23l0.77-1.092l0.764-1.094l0.758-1.1l0.75-1.104l0.744-1.109l0.74-1.113
		l0.729-1.117l0.725-1.123l0.719-1.129l0.162-0.258c0.936-1.498,2.91-1.955,4.408-1.02c1.5,0.938,1.955,2.91,1.021,4.41
		l-0.184,0.289l-0.738,1.16l-0.746,1.156l-0.752,1.148l-0.758,1.146l-0.766,1.141l-0.773,1.137l-0.779,1.131l-0.785,1.125
		l-0.793,1.123L583.627,536.137L583.627,536.137z M600.537,508.457c-0.807,1.574-2.734,2.195-4.309,1.391
		c-1.57-0.805-2.193-2.734-1.389-4.307l0.398-0.771l0.607-1.197l0.604-1.203l0.594-1.205l0.588-1.211l0.582-1.215l0.572-1.219
		l0.566-1.221l0.559-1.227l0.404-0.904c0.719-1.615,2.611-2.342,4.227-1.625c1.613,0.719,2.342,2.609,1.623,4.227l-0.422,0.938
		l-0.576,1.264l-0.582,1.258l-0.59,1.252l-0.598,1.25l-0.605,1.246l-0.611,1.24l-0.619,1.238l-0.627,1.23L600.537,508.457
		L600.537,508.457z M613.334,478.668c-0.576,1.67-2.398,2.555-4.07,1.979c-1.67-0.576-2.557-2.398-1.98-4.068l0.127-0.363
		l0.441-1.289l0.432-1.289l0.424-1.293l0.418-1.297l0.408-1.301l0.4-1.305l0.395-1.307l0.385-1.311l0.369-1.281
		c0.482-1.699,2.252-2.686,3.951-2.203c1.701,0.482,2.688,2.252,2.205,3.953l-0.379,1.316l-0.396,1.35l-0.406,1.346l-0.412,1.342
		l-0.422,1.338l-0.428,1.336l-0.438,1.332l-0.443,1.328l-0.453,1.322L613.334,478.668L613.334,478.668z M621.752,447.348
		c-0.334,1.736-2.012,2.875-3.746,2.541c-1.736-0.332-2.873-2.01-2.541-3.744l0.072-0.371l0.256-1.363l0.248-1.361l0.24-1.367
		l0.232-1.371l0.223-1.373l0.215-1.377l0.207-1.377l0.195-1.381l0.154-1.109c0.232-1.752,1.842-2.98,3.594-2.748
		c1.752,0.234,2.982,1.844,2.748,3.596l-0.158,1.148l-0.203,1.422l-0.211,1.418l-0.221,1.416l-0.229,1.41l-0.24,1.412l-0.246,1.404
		l-0.254,1.404l-0.266,1.402L621.752,447.348L621.752,447.348z M595.908,290.581c0.879,1.532,0.352,3.489-1.18,4.369
		c-1.531,0.881-3.488,0.354-4.369-1.178l-0.242-0.426l-0.672-1.159l-0.678-1.155l-0.686-1.15l-0.691-1.146l-0.699-1.142
		l-0.705-1.136l-0.711-1.132l-0.719-1.128l-0.725-1.124l-0.041-0.062c-0.971-1.477-0.562-3.461,0.914-4.433
		c1.477-0.971,3.461-0.562,4.432,0.913l0.062,0.097l0.746,1.154l0.738,1.16l0.732,1.165l0.727,1.17l0.719,1.174l0.711,1.179
		l0.703,1.183l0.697,1.188l0.691,1.192L595.908,290.581L595.908,290.581z M577.842,263.645c1.092,1.389,0.85,3.4-0.539,4.492
		s-3.402,0.851-4.494-0.539l-0.619-0.793l-0.826-1.046l-0.832-1.04l-0.838-1.035l-0.846-1.029l-0.852-1.025l-0.855-1.02
		l-0.863-1.014l-0.869-1.01l-0.633-0.727c-1.166-1.329-1.033-3.352,0.297-4.517c1.328-1.164,3.352-1.031,4.516,0.298l0.656,0.756
		l0.895,1.037l0.887,1.043l0.883,1.05l0.875,1.054l0.869,1.061l0.863,1.064l0.855,1.069l0.852,1.076L577.842,263.645
		L577.842,263.645z M556.172,239.542c1.271,1.228,1.307,3.253,0.08,4.525c-1.227,1.271-3.252,1.308-4.523,0.081l-0.049-0.047
		l-0.959-0.921l-0.969-0.916l-0.969-0.91l-0.979-0.903l-0.982-0.899l-0.988-0.892l-0.992-0.886l-0.998-0.881l-1.006-0.875
		l-0.424-0.367c-1.344-1.148-1.5-3.169-0.352-4.512c1.15-1.342,3.17-1.499,4.512-0.35l0.455,0.391l1.033,0.899l1.025,0.906
		l1.023,0.913l1.016,0.918l1.01,0.923l1.006,0.93l1,0.937l0.992,0.941l0.988,0.947L556.172,239.542L556.172,239.542z"/>
	<polygon fill-rule="evenodd" clip-rule="evenodd" fill="#FFDE59" points="354.313,613.902 331.042,628.324 331.042,638.723 
		376.842,638.723 390.642,633.723 390.642,638.723 405.041,638.723 404.441,624.123 399.494,613.902 354.313,613.902 	"/>
	<path fill="#323A59" d="M355.201,617.104l-20.959,12.986v5.434h42.064l13.248-4.801c1.657-0.602,3.487,0.256,4.088,1.914
		c0.13,0.359,0.192,0.727,0.192,1.086h0.008v1.801h7.876l-0.436-10.602l-3.787-7.818H355.201L355.201,617.104z M329.367,625.611
		l23.031-14.271c0.534-0.398,1.197-0.637,1.915-0.637h45.181v0.008c1.186,0,2.324,0.666,2.875,1.805l4.947,10.221h-0.002
		c0.188,0.383,0.297,0.809,0.314,1.262l0.59,14.338c0.016,0.127,0.023,0.256,0.023,0.387c0,1.768-1.434,3.201-3.201,3.201h-14.399
		c-1.768,0-3.2-1.434-3.2-3.201v-0.445l-9.279,3.361c-0.402,0.184-0.851,0.285-1.32,0.285h-45.801c-1.767,0-3.2-1.434-3.2-3.201
		v-10.398h0.012C327.854,627.256,328.391,626.213,329.367,625.611L329.367,625.611z"/>
	<path fill-rule="evenodd" clip-rule="evenodd" fill="#BFF3FD" d="M287.551,513.873c-5.18-5.182-9.92-10.652-14.221-16.371
		c-46.035-60.938-41.296-148.27,14.221-203.833c60.697-60.696,159.509-60.695,220.207,0c60.697,60.696,60.697,159.509,0,220.205l0,0
		c-44.326,44.326-108.881,56.25-164.055,35.92C323.178,542.27,303.971,530.295,287.551,513.873L287.551,513.873L287.551,513.873z"/>
	<polygon fill-rule="evenodd" clip-rule="evenodd" fill="#00CCFF" points="381.519,316.386 378.625,331.511 394.799,326.57 
		381.519,316.386 	"/>
	<polygon fill-rule="evenodd" clip-rule="evenodd" fill="#00CCFF" points="419.076,316.386 421.971,331.511 405.797,326.57 
		419.076,316.386 	"/>
	<path fill="#323A59" d="M425.67,314.129c0,1.578-1.279,2.859-2.859,2.859s-2.859-1.281-2.859-2.859
		c0-22.039,1.441-40.121,2.621-54.896c2.271-28.439,3.521-44.107-8.533-51.596c-4.412-2.743-10.65-4.599-19.269-5.785
		c-8.862-1.221-20.22-1.716-34.643-1.716c-1.579,0-2.859-1.28-2.859-2.859c0-1.58,1.28-2.86,2.859-2.86
		c14.6,0,26.192,0.514,35.402,1.782c9.453,1.302,16.417,3.415,21.527,6.59c15.008,9.325,13.662,26.223,11.213,56.891
		C427.102,274.329,425.67,292.253,425.67,314.129L425.67,314.129z"/>
	<path fill="#323A59" d="M365.452,212.52c0.285-1.548,1.77-2.573,3.318-2.289c1.549,0.283,2.574,1.77,2.291,3.317l-2.978,16.167
		c2.974,0.537,5.599,1.751,7.785,3.468c2.235,1.755,4.004,4.04,5.208,6.668c1.183,2.578,1.809,5.482,1.782,8.527
		c-0.033,3.986-1.181,8.209-3.658,12.237l8.778,5.238c1.351,0.808,1.791,2.559,0.983,3.91c-0.808,1.351-2.56,1.791-3.91,0.982
		l-11.248-6.712c-0.158-0.082-0.313-0.181-0.459-0.296c-1.24-0.974-1.456-2.77-0.479-4.01c2.936-3.74,4.266-7.732,4.297-11.396
		c0.018-2.196-0.428-4.278-1.269-6.114c-0.818-1.786-2.027-3.345-3.556-4.546c-2-1.57-4.565-2.522-7.543-2.568
		c-0.194,0.005-0.393-0.01-0.593-0.046c-1.548-0.284-2.573-1.77-2.29-3.318L365.452,212.52L365.452,212.52z"/>
	<path fill="#323A59" d="M391.573,239.395c-1.123,1.104-2.93,1.09-4.033-0.033s-1.088-2.928,0.033-4.033
		c0.033-0.031,11.113-11.293,24.273-0.145c1.203,1.019,1.352,2.818,0.336,4.021c-1.018,1.202-2.82,1.354-4.023,0.335
		C399.031,231.807,391.593,239.375,391.573,239.395L391.573,239.395z"/>
	<path fill="#323A59" d="M358.789,259.496c0-1.58,1.28-2.86,2.86-2.86c1.579,0,2.86,1.28,2.86,2.86v15.013
		c0,1.578-1.281,2.859-2.86,2.859c-1.58,0-2.86-1.281-2.86-2.859V259.496L358.789,259.496z"/>
	<path fill="#323A59" d="M364.143,320.144l14.948-7.745v-9.559c0-1.579,1.28-2.86,2.859-2.86s2.86,1.281,2.86,2.86v11.289h-0.007
		c-0.001,1.033-0.564,2.03-1.547,2.535l-16.349,8.473l-0.747,0.387l-0.748-0.704v-4.676H364.143L364.143,320.144z"/>
	<path fill="#323A59" d="M379.572,315.704c-0.87-1.312-0.51-3.083,0.804-3.953c1.314-0.87,3.084-0.51,3.955,0.804
		c0.039,0.059,13.488,20.857,36.537-0.514c1.152-1.073,2.959-1.009,4.033,0.145c1.072,1.154,1.008,2.96-0.146,4.034
		C396.728,342.206,379.621,315.78,379.572,315.704L379.572,315.704z"/>
	<path fill="#323A59" d="M365.444,240.174c1.827,0,3.491,0.747,4.701,1.955l0.006-0.005c1.203,1.204,1.949,2.868,1.949,4.706
		s-0.746,3.502-1.949,4.706c-0.067,0.067-0.137,0.131-0.21,0.189c-1.189,1.094-2.771,1.761-4.497,1.761
		c-1.838,0-3.502-0.746-4.706-1.95s-1.95-2.869-1.95-4.706s0.746-3.502,1.95-4.706S363.606,240.174,365.444,240.174L365.444,240.174
		z M366.107,246.157c-0.162-0.161-0.396-0.263-0.663-0.263c-0.259,0-0.493,0.104-0.662,0.274c-0.17,0.168-0.274,0.402-0.274,0.662
		c0,0.259,0.104,0.494,0.274,0.662c0.169,0.17,0.403,0.274,0.662,0.274c0.229,0,0.434-0.073,0.59-0.197l0.073-0.077
		c0.169-0.168,0.274-0.403,0.274-0.662c0-0.26-0.105-0.494-0.274-0.662l0.006-0.006L366.107,246.157L366.107,246.157z"/>
	<path fill="#323A59" d="M399.787,240.174c1.838,0,3.502,0.745,4.707,1.95c0.066,0.065,0.127,0.134,0.186,0.204
		c1.096,1.188,1.764,2.769,1.764,4.502c0,1.83-0.746,3.49-1.949,4.695l-0.006,0.006l0.006,0.006
		c-1.205,1.205-2.869,1.949-4.707,1.949c-1.837,0-3.502-0.746-4.707-1.95c-1.203-1.204-1.95-2.869-1.95-4.706
		s0.747-3.502,1.95-4.706C396.285,240.92,397.95,240.174,399.787,240.174L399.787,240.174z M400.449,246.167
		c-0.168-0.169-0.402-0.273-0.662-0.273s-0.494,0.104-0.662,0.274c-0.17,0.168-0.275,0.402-0.275,0.662
		c0,0.259,0.105,0.494,0.275,0.662c0.168,0.17,0.402,0.274,0.662,0.274s0.494-0.104,0.662-0.273l0.006,0.006
		c0.166-0.169,0.268-0.405,0.268-0.669c0-0.229-0.076-0.436-0.203-0.596L400.449,246.167L400.449,246.167z"/>
	<path fill="#323A59" d="M396.37,275.225c0.111-1.572,1.477-2.758,3.05-2.646c1.574,0.11,2.758,1.477,2.648,3.049
		c-0.293,3.971-2.098,7.518-4.84,10.064c-2.729,2.533-6.38,4.083-10.385,4.083s-7.654-1.55-10.384-4.083
		c-2.742-2.547-4.549-6.094-4.84-10.064c-0.111-1.572,1.074-2.938,2.647-3.049c1.572-0.111,2.938,1.074,3.05,2.646
		c0.182,2.478,1.312,4.693,3.03,6.289c1.698,1.576,3.982,2.541,6.496,2.541c2.515,0,4.799-0.965,6.497-2.542
		C395.058,279.918,396.19,277.702,396.37,275.225L396.37,275.225z"/>
	<path fill="#323A59" d="M409.154,274.653c-0.08-1.573,1.131-2.914,2.703-2.993c1.574-0.08,2.914,1.13,2.994,2.703
		c0.01,0.169,0.018,0.414,0.025,0.728l0,0l0.021,0.736c0,7.746-3.141,14.76-8.217,19.837c-5.078,5.076-12.092,8.217-19.838,8.217
		s-14.76-3.141-19.837-8.217c-5.077-5.077-8.218-12.091-8.218-19.837l0.021-0.723v-0.012l0,0c0.009-0.313,0.018-0.562,0.025-0.729
		c0.08-1.573,1.421-2.783,2.994-2.703c1.572,0.079,2.783,1.42,2.703,2.993c-0.014,0.27-0.022,0.464-0.025,0.59v0.005v0.002
		c-0.002,0.067,0.003,0.136,0.003,0.577c0,6.168,2.5,11.752,6.54,15.793c4.042,4.041,9.626,6.541,15.794,6.541
		s11.752-2.5,15.793-6.541s6.541-9.625,6.541-15.793c0-0.435,0.004-0.521,0.004-0.58l0,0v-0.011
		C409.178,275.114,409.168,274.922,409.154,274.653L409.154,274.653z"/>
	<path fill="#323A59" d="M453.988,327.071c1.4,0.723,1.951,2.442,1.229,3.844c-0.723,1.399-2.441,1.949-3.842,1.228l-29.873-15.478
		c-1.398-0.722-1.949-2.441-1.227-3.842c0.721-1.4,2.441-1.951,3.842-1.229L453.988,327.071L453.988,327.071z"/>
	<path fill="#323A59" d="M408.113,211.459c1.506,0.463,2.35,2.058,1.889,3.563c-0.463,1.505-2.059,2.351-3.564,1.888
		c-4.848-1.502-10.941-2.537-18.53-3.203c-7.68-0.675-16.855-0.961-27.78-0.961c-1.579,0-2.859-1.281-2.859-2.86
		s1.28-2.86,2.859-2.86c11.075,0,20.411,0.294,28.271,0.983C396.35,208.708,402.83,209.823,408.113,211.459L408.113,211.459z"/>
	<path fill="#323A59" d="M379.147,313.593c0.296-1.549,1.792-2.563,3.34-2.269c1.549,0.297,2.563,1.793,2.268,3.341l-2.57,13.432
		l16.992-6.138c0.67-0.24,1.373-0.213,1.99,0.025v-0.003l16.914,6.53l1.904-14.74c0.197-1.561,1.623-2.666,3.184-2.469
		s2.666,1.623,2.469,3.184l-2.359,18.251c-0.023,0.258-0.082,0.516-0.18,0.769c-0.566,1.468-2.219,2.198-3.686,1.631l-19.311-7.455
		l-20.51,7.408c-0.512,0.227-1.097,0.305-1.688,0.191c-1.549-0.295-2.564-1.791-2.269-3.34L379.147,313.593L379.147,313.593z"/>
	<path fill="#323A59" d="M353.419,356.253c0.138-1.761,1.677-3.076,3.438-2.938c1.76,0.138,3.075,1.677,2.938,3.438l-7.726,98.149
		h78.042c1.766,0,3.199,1.434,3.199,3.201s-1.434,3.199-3.199,3.199h-81.502v-0.002c-0.083,0-0.166-0.004-0.25-0.01
		c-1.76-0.139-3.075-1.678-2.938-3.438L353.419,356.253L353.419,356.253z"/>
	<path fill="#323A59" d="M453.828,446.48c0.18,1.752-1.098,3.32-2.85,3.5c-1.754,0.178-3.32-1.098-3.5-2.852l-7.75-75.704
		c-0.18-1.753,1.096-3.32,2.85-3.5c1.752-0.179,3.32,1.097,3.5,2.85L453.828,446.48L453.828,446.48z"/>
	<path fill-rule="evenodd" clip-rule="evenodd" fill="#00CCFF" d="M355.029,458.104v155.799h90.362V475.061l-0.316,0.443
		c0,0-14.377-0.303-14.963-17.4H355.029L355.029,458.104z"/>
	<path fill="#323A59" d="M358.229,461.303v149.4h83.96V478.309c-4.578-0.984-13.35-4.496-15.01-17.006H358.229L358.229,461.303z
		 M351.829,613.902V458.104c0-1.768,1.433-3.201,3.2-3.201h75.083v0.012c1.715,0,3.133,1.363,3.188,3.09
		c0.387,11.291,7.771,13.676,10.695,14.178c0.422-0.205,0.896-0.32,1.396-0.32c1.768,0,3.199,1.434,3.199,3.199v138.842
		c0,1.768-1.432,3.201-3.199,3.201h-90.362C353.261,617.104,351.829,615.67,351.829,613.902L351.829,613.902z"/>
	<path fill="#323A59" d="M396.901,327.682c0-1.768,1.433-3.201,3.201-3.201s3.199,1.434,3.199,3.201v30.799
		c0,1.768-1.432,3.2-3.199,3.2s-3.201-1.433-3.201-3.2V327.682L396.901,327.682z"/>
	<path fill="#323A59" d="M366.804,458.152c-0.027-1.76,1.378-3.211,3.138-3.236c1.76-0.027,3.21,1.377,3.237,3.137
		c0.001,0.057,0.563,19.676-17.988,20.639c-1.76,0.088-3.261-1.266-3.35-3.027c-0.09-1.76,1.265-3.26,3.024-3.348
		C367.187,471.676,366.804,458.191,366.804,458.152L366.804,458.152z"/>
	<path fill="#323A59" d="M426.924,458.053c0.027-1.76,1.477-3.164,3.236-3.137c1.762,0.025,3.166,1.477,3.139,3.236
		c0,0.039-0.383,13.523,11.938,14.164c1.76,0.088,3.115,1.588,3.025,3.348c-0.088,1.762-1.588,3.115-3.35,3.027
		C426.361,477.729,426.924,458.109,426.924,458.053L426.924,458.053z"/>
	<path fill="#323A59" d="M403.408,613.902c0,1.768-1.432,3.201-3.199,3.201s-3.2-1.434-3.2-3.201V480.551l-7.327-7.049
		c-1.27-1.223-1.309-3.242-0.087-4.514c1.222-1.268,3.242-1.309,4.513-0.086l8.146,7.836c0.707,0.588,1.154,1.473,1.154,2.463
		V613.902L403.408,613.902z"/>
	<path fill="#323A59" d="M428.572,455.303l19.637-10.799l18.52-39.225l-12.254-23.021c-0.717-1.345-0.373-2.972,0.738-3.922v-0.004
		l15.781-13.576c1.34-1.146,3.355-0.989,4.5,0.351c0.125,0.144,0.23,0.295,0.324,0.451l0.002-0.001l22.426,38.017
		c0.664,1.125,0.561,2.49-0.152,3.486l0.002,0.002l-50.422,70.303c-0.713,0.998-1.895,1.461-3.031,1.307
		c-2.398-0.17-17.086-1.973-17.719-20.469c-0.039-1.238,0.635-2.336,1.652-2.895L428.572,455.303L428.572,455.303z M452.189,449.605
		l-18.75,10.312c1.053,9.193,7.18,11.57,10.137,12.184l48.109-67.074l-19.428-32.937l-10.957,9.425l11.725,22.026
		c0.537,0.885,0.633,2.016,0.158,3.021l-19.602,41.514C453.311,448.705,452.838,449.25,452.189,449.605L452.189,449.605z"/>
	<path fill="#323A59" d="M449.455,331.148c-1.188-1.305-0.639-2.683,0.666-3.869c1.305-1.188,3.654-0.688,4.842,0.615L482.91,358.6
		c1.188,1.304,1.092,3.325-0.213,4.513c-0.053,0.047-0.105,0.092-0.16,0.136l-28.514,24.526c-1.34,1.146-3.355,0.989-4.5-0.35
		c-0.1-0.117-0.191-0.239-0.271-0.366l-0.004,0.004L434.1,363.196c-0.947-1.491-0.504-3.467,0.988-4.413
		c1.49-0.945,3.465-0.503,4.412,0.987l13.168,20.75l23.311-20.05L449.455,331.148L449.455,331.148z"/>
	<path fill="#323A59" d="M365.573,319.329c1.753,0.207,3.007,1.797,2.8,3.551c-0.206,1.752-1.797,3.006-3.55,2.799l-35.958-4.321
		l-2.46,34.503l30.085,3.248c1.752,0.187,3.023,1.76,2.837,3.513c-0.186,1.753-1.759,3.023-3.512,2.837l-33.032-3.565l-0.011-0.001
		c-1.76-0.123-3.086-1.652-2.962-3.412l2.911-40.826c0.004-0.081,0.011-0.163,0.02-0.245c0.207-1.753,1.797-3.007,3.551-2.8
		L365.573,319.329L365.573,319.329z"/>
	<path fill-rule="evenodd" clip-rule="evenodd" fill="#FFDE59" d="M393.599,82.247c12.936,0,23.415,10.479,23.415,23.415
		c0,8.788-4.855,16.484-12.062,20.468l0.002,11.3h-22.654v-11.3c-7.205-3.983-12.061-11.68-12.061-20.468
		C370.239,92.726,380.717,82.247,393.599,82.247L393.599,82.247L393.599,82.247z"/>
	<path fill-rule="evenodd" clip-rule="evenodd" fill="#323A59" d="M404.953,153.204h-22.654c-1.418,0-2.563-1.093-2.563-2.512
		v-13.263c0-1.366,1.146-2.511,2.563-2.511h22.654c1.418,0,2.51,1.146,2.51,2.511v13.263c0,1.419-1.092,2.512-2.512,2.512H404.953
		L404.953,153.204z M384.811,148.181h17.628v-8.241h-17.628V148.181L384.811,148.181z"/>
	<path fill-rule="evenodd" clip-rule="evenodd" fill="#323A59" d="M397.092,139.94h-6.985c-1.257,0-2.348-0.928-2.458-2.237
		l-3.275-30.349c-0.054-0.163-0.054-0.327-0.054-0.491c0-1.365,1.147-2.511,2.511-2.511h13.591c0.109,0,0.164,0,0.273,0.055
		c1.365,0.109,2.346,1.364,2.236,2.729l-3.328,30.4C399.604,138.903,398.457,139.94,397.092,139.94L397.092,139.94L397.092,139.94z
		 M392.398,134.918h2.456l2.785-25.545h-8.023L392.398,134.918L392.398,134.918z"/>
	<path fill-rule="evenodd" clip-rule="evenodd" fill="#323A59" d="M396,153.204h-4.748v1.637H396V153.204L396,153.204z
		 M388.741,148.181h9.769c1.367,0,2.512,1.146,2.512,2.511v6.658c0,1.365-1.145,2.512-2.512,2.512h-9.769
		c-1.419,0-2.511-1.146-2.511-2.511v-6.659C386.23,149.327,387.322,148.181,388.741,148.181L388.741,148.181L388.741,148.181z"/>
	<path fill-rule="evenodd" clip-rule="evenodd" fill="#323A59" d="M391.088,56.046c0-1.365,1.145-2.511,2.511-2.511
		c1.419,0,2.564,1.146,2.564,2.512v14.736c0,1.365-1.146,2.511-2.564,2.511c-1.366-0.001-2.511-1.146-2.511-2.511V56.046
		L391.088,56.046z"/>
	<path fill-rule="evenodd" clip-rule="evenodd" fill="#323A59" d="M366.635,63.961c-0.654-1.202-0.273-2.729,0.929-3.438
		c1.2-0.655,2.728-0.272,3.438,0.928l7.37,12.771c0.653,1.2,0.271,2.73-0.928,3.384c-1.201,0.71-2.73,0.273-3.439-0.927
		L366.635,63.961L366.635,63.961z"/>
	<path fill-rule="evenodd" clip-rule="evenodd" fill="#323A59" d="M349.443,83.01c-1.202-0.655-1.637-2.183-0.929-3.385
		c0.655-1.2,2.184-1.637,3.386-0.927l12.771,7.368c1.201,0.654,1.584,2.184,0.928,3.384c-0.709,1.201-2.237,1.638-3.438,0.929
		L349.443,83.01L349.443,83.01z"/>
	<path fill-rule="evenodd" clip-rule="evenodd" fill="#323A59" d="M344.04,108.172c-1.419,0-2.513-1.146-2.513-2.511
		c0-1.363,1.094-2.511,2.513-2.511l14.682-0.001c1.42,0,2.512,1.148,2.512,2.512c0,1.365-1.092,2.511-2.512,2.511H344.04
		L344.04,108.172z"/>
	<path fill-rule="evenodd" clip-rule="evenodd" fill="#323A59" d="M351.9,132.625c-1.202,0.711-2.73,0.274-3.386-0.926
		c-0.708-1.202-0.273-2.73,0.929-3.385l12.718-7.369c1.2-0.711,2.729-0.272,3.438,0.928c0.656,1.201,0.273,2.73-0.929,3.384
		L351.9,132.625L351.9,132.625z"/>
	<path fill-rule="evenodd" clip-rule="evenodd" fill="#323A59" d="M416.252,61.451c0.707-1.201,2.236-1.583,3.438-0.928
		c1.201,0.708,1.584,2.236,0.93,3.438l-7.369,12.718c-0.711,1.2-2.238,1.637-3.439,0.927c-1.201-0.654-1.582-2.183-0.928-3.384
		L416.252,61.451L416.252,61.451z"/>
	<path fill-rule="evenodd" clip-rule="evenodd" fill="#323A59" d="M435.354,78.699c1.203-0.71,2.729-0.273,3.385,0.927
		c0.709,1.201,0.271,2.73-0.928,3.385l-12.717,7.369c-1.201,0.709-2.729,0.272-3.439-0.929c-0.654-1.2-0.271-2.729,0.928-3.384
		L435.354,78.699L435.354,78.699z"/>
	<path fill-rule="evenodd" clip-rule="evenodd" fill="#323A59" d="M443.213,103.15c1.422,0,2.512,1.148,2.512,2.512
		c0,1.365-1.09,2.511-2.512,2.511h-14.68c-1.42,0-2.512-1.146-2.512-2.511c0-1.363,1.092-2.511,2.512-2.511L443.213,103.15
		L443.213,103.15z"/>
	<path fill-rule="evenodd" clip-rule="evenodd" fill="#323A59" d="M437.811,128.313c1.199,0.655,1.637,2.184,0.928,3.386
		c-0.656,1.2-2.236,1.637-3.438,0.926l-12.719-7.369c-1.199-0.652-1.639-2.237-0.928-3.437c0.711-1.146,2.238-1.585,3.439-0.874
		L437.811,128.313L437.811,128.313z"/>
	<path fill-rule="evenodd" clip-rule="evenodd" fill="#323A59" d="M490.83,641.92c-1.615,0-2.852-1.299-2.852-2.85
		c0-1.613,1.236-2.852,2.852-2.852h82.129c1.549,0,2.852,1.238,2.852,2.852c0,1.551-1.303,2.85-2.852,2.85H490.83L490.83,641.92z"/>
	<path fill-rule="evenodd" clip-rule="evenodd" fill="#323A59" d="M310.846,661.074c-1.549,0-2.851-1.301-2.851-2.852
		c0-1.547,1.302-2.852,2.851-2.852h25.477c1.548,0,2.852,1.305,2.852,2.852c0,1.551-1.304,2.852-2.852,2.852H310.846
		L310.846,661.074z"/>
	<path fill-rule="evenodd" clip-rule="evenodd" fill="#323A59" d="M422.283,665.473c-1.549,0-2.852-1.236-2.852-2.848
		c0-1.551,1.303-2.852,2.852-2.852h82.129c1.611,0,2.852,1.301,2.852,2.852c0,1.611-1.24,2.848-2.852,2.848H422.283L422.283,665.473
		z"/>
	<path fill-rule="evenodd" clip-rule="evenodd" fill="#323A59" d="M386.663,710.6c-1.611,0-2.849-1.303-2.849-2.852
		c0.001-1.611,1.237-2.852,2.849-2.852h25.478c1.549,0,2.848,1.24,2.848,2.852c0.002,1.549-1.299,2.852-2.848,2.852H386.663
		L386.663,710.6z"/>
	<path fill-rule="evenodd" clip-rule="evenodd" fill="#323A59" d="M243.077,641.92c-1.551,0-2.852-1.299-2.852-2.85
		c0-1.613,1.301-2.852,2.851-2.852h226.493c1.551,0,2.852,1.238,2.852,2.852c0,1.551-1.301,2.85-2.852,2.85H243.077L243.077,641.92z
		"/>
	<path fill="#323A59" d="M502.6,239.025c0-1.837,1.488-3.325,3.326-3.325c1.836,0,3.326,1.488,3.326,3.325
		c0,2.898,1.496,4.961,4.961,4.961c1.836,0,3.326,1.489,3.326,3.326s-1.49,3.325-3.326,3.325c-3.465,0-4.961,2.063-4.961,4.961
		c0,1.836-1.49,3.326-3.326,3.326c-1.838,0-3.326-1.49-3.326-3.326c0-2.897-1.496-4.961-4.961-4.961
		c-1.836,0-3.324-1.488-3.324-3.325s1.488-3.326,3.324-3.326C501.104,243.986,502.6,241.923,502.6,239.025L502.6,239.025z"/>
	<path fill="#323A59" d="M530.4,476.588c2.688,0,5.123,1.088,6.885,2.852c1.762,1.762,2.852,4.197,2.852,6.885
		s-1.09,5.121-2.852,6.883s-4.197,2.852-6.885,2.852s-5.121-1.09-6.883-2.852c-1.764-1.762-2.852-4.195-2.852-6.883
		s1.088-5.123,2.852-6.885C525.279,477.676,527.713,476.588,530.4,476.588L530.4,476.588z M532.76,483.965
		c-0.602-0.604-1.438-0.977-2.359-0.977s-1.756,0.373-2.359,0.977c-0.602,0.602-0.977,1.438-0.977,2.359s0.375,1.756,0.977,2.359
		c0.604,0.602,1.438,0.977,2.359,0.977s1.758-0.375,2.359-0.977c0.604-0.604,0.977-1.438,0.977-2.359
		S533.363,484.566,532.76,483.965L532.76,483.965z"/>
	<path fill="#323A59" d="M303.21,403.637c0-1.836,1.49-3.326,3.326-3.326c1.837,0,3.326,1.49,3.326,3.326
		c0,2.898,1.497,4.961,4.96,4.961c1.837,0,3.326,1.488,3.326,3.326c0,1.836-1.489,3.324-3.326,3.324c-3.463,0-4.96,2.064-4.96,4.961
		c0,1.836-1.489,3.326-3.326,3.326c-1.836,0-3.326-1.49-3.326-3.326c0-2.896-1.497-4.961-4.96-4.961
		c-1.837,0-3.326-1.488-3.326-3.324c0-1.838,1.489-3.326,3.326-3.326C301.713,408.598,303.21,406.535,303.21,403.637L303.21,403.637
		z"/>
	<path fill="#323A59" d="M253.874,335.787c2.688,0,5.121,1.09,6.883,2.853c1.762,1.762,2.853,4.197,2.853,6.885
		c0,2.687-1.091,5.121-2.853,6.883s-4.196,2.853-6.883,2.853c-2.688,0-5.123-1.091-6.885-2.853
		c-1.763-1.762-2.853-4.195-2.853-6.883s1.09-5.123,2.853-6.885C248.75,336.876,251.185,335.787,253.874,335.787L253.874,335.787z
		 M256.233,343.164c-0.604-0.604-1.438-0.977-2.359-0.977c-0.923,0-1.758,0.373-2.36,0.977c-0.604,0.603-0.977,1.438-0.977,2.36
		s0.373,1.756,0.977,2.359c0.603,0.603,1.438,0.977,2.36,0.977c0.921,0,1.756-0.374,2.359-0.977
		c0.603-0.604,0.977-1.438,0.977-2.359C257.209,344.602,256.835,343.766,256.233,343.164L256.233,343.164z"/>
	<path fill="#323A59" d="M301.048,273.715l9.552,43.617l15.7,4.62c1.467,0.431,2.39,1.821,2.284,3.286l0.004,0.001l-1.676,23.5
		c-0.125,1.761-1.652,3.086-3.413,2.963c-0.291-0.021-0.571-0.08-0.833-0.172l-34.134-10.019c-1.272-0.374-2.136-1.472-2.272-2.712
		h-0.003l-7.231-64.857l-8.535-25.468c-0.543-1.623,0.293-3.377,1.875-3.987l15.155-6.247l3.551-16.823
		c0.294-1.414,1.481-2.413,2.851-2.53l-0.001-0.008l5.435-0.477c1.76-0.152,3.311,1.152,3.463,2.912l0.005,0.085l1.995,24.117
		l6.527-3.345c1.488-0.761,3.293-0.239,4.156,1.156l3.824,5.562c0.836,1.219,0.707,2.815-0.219,3.883l0.005,0.004L301.048,273.715
		L301.048,273.715z M304.755,320.535l-10.296-47.014l0.007-0.001c-0.204-0.946,0.024-1.974,0.706-2.762l17.511-20.294l-0.923-1.343
		l-8.03,4.116c-0.422,0.267-0.911,0.438-1.442,0.481c-1.76,0.145-3.305-1.165-3.449-2.926l-2.097-25.331l-3.32,15.733h-0.002
		c-0.21,1.001-0.894,1.883-1.91,2.301l-14.022,5.778l7.648,22.819c0.102,0.258,0.172,0.535,0.204,0.826l7.032,63.065l28.447,8.35
		l1.211-16.985l-14.872-4.376C305.991,322.703,305.025,321.784,304.755,320.535L304.755,320.535z"/>
	<path fill="#323A59" d="M255.337,540.449c2.688,0,5.122,1.092,6.884,2.854c1.762,1.764,2.852,4.197,2.852,6.885
		s-1.09,5.121-2.852,6.885c-1.762,1.76-4.197,2.852-6.884,2.852c-2.688,0-5.123-1.092-6.885-2.852
		c-1.763-1.764-2.853-4.197-2.853-6.885s1.09-5.121,2.853-6.885C250.214,541.541,252.649,540.449,255.337,540.449L255.337,540.449z
		 M257.697,547.828c-0.604-0.604-1.438-0.977-2.359-0.977c-0.923,0-1.757,0.373-2.36,0.977S252,549.266,252,550.188
		s0.373,1.756,0.977,2.359s1.438,0.977,2.36,0.977c0.921,0,1.756-0.373,2.359-0.977c0.603-0.604,0.977-1.438,0.977-2.359
		S258.299,548.432,257.697,547.828L257.697,547.828z"/>
	<polygon fill-rule="evenodd" clip-rule="evenodd" fill="#FFDE59" points="400.209,613.902 376.938,628.324 376.938,638.723 
		422.738,638.723 436.539,633.723 436.539,638.723 450.939,638.723 450.338,624.123 445.391,613.902 400.209,613.902 	"/>
	<path fill="#323A59" d="M401.098,617.104l-20.958,12.986v5.434h42.064l13.248-4.801c1.656-0.602,3.488,0.256,4.088,1.914
		c0.129,0.359,0.191,0.727,0.191,1.086h0.008v1.801h7.877l-0.436-10.602l-3.787-7.818H401.098L401.098,617.104z M375.263,625.611
		l23.032-14.271c0.535-0.398,1.197-0.637,1.914-0.637h45.182v0.008c1.186,0,2.324,0.666,2.875,1.805l4.947,10.221l0,0
		c0.186,0.383,0.297,0.809,0.312,1.262l0.59,14.338c0.016,0.127,0.023,0.256,0.023,0.387c0,1.768-1.434,3.201-3.199,3.201h-14.4
		c-1.768,0-3.201-1.434-3.201-3.201v-0.445l-9.279,3.361c-0.402,0.184-0.85,0.285-1.32,0.285h-45.8c-1.767,0-3.2-1.434-3.2-3.201
		v-10.398h0.012C373.75,627.256,374.288,626.213,375.263,625.611L375.263,625.611z"/>
	<path fill="#323A59" d="M398.283,616.453c-1.407-1.062-1.686-3.066-0.625-4.475c1.064-1.408,3.068-1.688,4.476-0.625l11.133,8.418
		c1.406,1.062,1.688,3.068,0.625,4.475c-1.064,1.408-3.068,1.688-4.477,0.625L398.283,616.453L398.283,616.453z"/>
	<path fill="#323A59" d="M390.438,622.4c-1.374-1.098-1.598-3.102-0.5-4.475c1.098-1.375,3.101-1.598,4.475-0.5l9.033,7.219
		c1.373,1.096,1.596,3.102,0.5,4.475c-1.098,1.373-3.102,1.598-4.475,0.5L390.438,622.4L390.438,622.4z"/>
	<path fill="#323A59" d="M354.084,616.453c-1.407-1.062-1.688-3.066-0.625-4.475s3.066-1.688,4.475-0.625l11.132,8.418
		c1.408,1.062,1.688,3.068,0.625,4.475c-1.062,1.408-3.067,1.688-4.475,0.625L354.084,616.453L354.084,616.453z"/>
	<path fill="#323A59" d="M346.238,622.4c-1.374-1.098-1.598-3.102-0.5-4.475c1.097-1.375,3.101-1.598,4.476-0.5l9.031,7.219
		c1.374,1.096,1.598,3.102,0.5,4.475s-3.102,1.598-4.475,0.5L346.238,622.4L346.238,622.4z"/>
</g>
</svg>
