<?xml version="1.0" encoding="utf-8"?>
<!-- Generator: Adobe Illustrator 15.0.0, SVG Export Plug-In . SVG Version: 6.00 Build 0)  -->
<!DOCTYPE svg PUBLIC "-//W3C//DTD SVG 1.1//EN" "http://www.w3.org/Graphics/SVG/1.1/DTD/svg11.dtd">
<svg version="1.1" id="图层_1" xmlns:sketch="http://www.bohemiancoding.com/sketch/ns"
	 xmlns="http://www.w3.org/2000/svg" xmlns:xlink="http://www.w3.org/1999/xlink" x="0px" y="0px" width="100px" height="100px"
	 viewBox="0 0 100 100" enable-background="new 0 0 100 100" xml:space="preserve">
<g transform="translate(0 -1028.4)">
	<path fill="#DDDDDD" d="M9.09,1039.067c-5.021,0-9.091,3.6-9.091,8v28v8v28c0,4.397,4.07,8,9.091,8H50h40.909
		c5.024,0,9.092-3.603,9.092-8v-28v-8v-28c0-4.4-4.063-8-9.092-8H50H9.09z"/>
	<path fill="#0C1A25" d="M11.341,1041.267c-4.745,0-8.591,3.402-8.591,7.56v26.459v7.561v26.461c0,4.155,3.846,7.559,8.591,7.559H50
		h38.659c4.748,0,8.592-3.401,8.592-7.559v-26.461v-7.561v-26.459c0-4.158-3.844-7.56-8.592-7.56H50H11.341z"/>
</g>
<title>17 - Typewriter (Solid)</title>
<desc>Created with Sketch.</desc>
<g sketch:type="MSPage">
	<g sketch:type="MSLayerGroup">
		<path sketch:type="MSShapeGroup" fill="#DDDDDD" d="M17.431,30.667h26.4c0.809,0,1.467-0.656,1.467-1.467
			s-0.658-1.466-1.467-1.466h-26.4c-0.81,0-1.467,0.655-1.467,1.466S16.622,30.667,17.431,30.667"/>
		<path sketch:type="MSShapeGroup" fill="#DDDDDD" d="M17.431,36.533h8.8c0.81,0,1.467-0.656,1.467-1.466
			c0-0.812-0.657-1.467-1.467-1.467h-8.8c-0.81,0-1.467,0.655-1.467,1.467C15.964,35.876,16.622,36.533,17.431,36.533"/>
		<path sketch:type="MSShapeGroup" fill="#DDDDDD" d="M49.698,33.599h-8.801c-0.809,0-1.467,0.655-1.467,1.467
			c0,0.81,0.658,1.466,1.467,1.466h8.801c0.81,0,1.466-0.656,1.466-1.466C51.164,34.254,50.508,33.599,49.698,33.599"/>
		<path sketch:type="MSShapeGroup" fill="#DDDDDD" d="M32.523,34.025c-0.264,0.279-0.426,0.659-0.426,1.041
			c0,0.381,0.161,0.763,0.426,1.04c0.278,0.264,0.66,0.426,1.042,0.426s0.762-0.161,1.04-0.426c0.265-0.277,0.425-0.66,0.425-1.04
			c0-0.383-0.16-0.762-0.425-1.041C34.048,33.482,33.081,33.482,32.523,34.025"/>
		<path sketch:type="MSShapeGroup" fill="#DDDDDD" d="M40.897,39.466H24.765c-0.81,0-1.467,0.656-1.467,1.465
			c0,0.812,0.657,1.468,1.467,1.468h16.134c0.809,0,1.467-0.656,1.467-1.468C42.365,40.123,41.708,39.466,40.897,39.466"/>
		<path sketch:type="MSShapeGroup" fill="#DDDDDD" d="M16.391,39.892c-0.265,0.277-0.427,0.66-0.427,1.039
			c0,0.384,0.161,0.763,0.427,1.042c0.278,0.278,0.658,0.426,1.04,0.426s0.762-0.16,1.041-0.426c0.265-0.279,0.427-0.66,0.427-1.042
			c0-0.381-0.161-0.762-0.427-1.026C17.945,39.349,16.947,39.349,16.391,39.892"/>
	</g>
</g>
</svg>
