<?xml version="1.0" encoding="utf-8"?>
<!-- Generator: Adobe Illustrator 16.0.0, SVG Export Plug-In . SVG Version: 6.00 Build 0)  -->
<!DOCTYPE svg PUBLIC "-//W3C//DTD SVG 1.1//EN" "http://www.w3.org/Graphics/SVG/1.1/DTD/svg11.dtd">
<svg version="1.1" id="图层_1" xmlns="http://www.w3.org/2000/svg" xmlns:xlink="http://www.w3.org/1999/xlink" x="0px" y="0px"
	 width="162px" height="162px" viewBox="0 0 162 162" enable-background="new 0 0 162 162" xml:space="preserve">
<g>
	<g>
		<polygon fill="#204056" points="2,11 0,11 0,0 11,0 11,2 2,2 		"/>
	</g>
	<g>
		<polygon fill="#204056" points="11,162 0,162 0,151 2,151 2,160 11,160 		"/>
	</g>
	<g>
		<polygon fill="#204056" points="162,162 151,162 151,160 160,160 160,151 162,151 		"/>
	</g>
	<g>
		<polygon fill="#204056" points="162,11 160,11 160,2 151,2 151,0 162,0 		"/>
	</g>
</g>
<g>
	<rect x="31" y="16.172" fill="#2FB18A" width="40" height="4.655"/>
</g>
<g>
	<g>
		<path fill="#C4C4C4" d="M67.617,141.707l-1.414-1.414c8.383-8.383,8.383-22.023,0-30.406s-22.023-8.383-30.406,0
			s-8.383,22.023,0,30.406l-1.414,1.414c-9.163-9.163-9.163-24.071,0-33.234c9.162-9.162,24.072-9.162,33.234,0
			C76.78,117.636,76.78,132.544,67.617,141.707z"/>
	</g>
	<g>
		<rect x="50" y="98" fill="#C4C4C4" width="2" height="4.59"/>
	</g>
	<g>
		<rect x="23.705" y="124.375" fill="#C4C4C4" width="4.59" height="2"/>
	</g>
	<g>
		<rect x="73.705" y="124.375" fill="#C4C4C4" width="4.59" height="2"/>
	</g>
	<g>
		
			<rect x="31.027" y="106.557" transform="matrix(0.707 0.7072 -0.7072 0.707 85.8287 7.9485)" fill="#C4C4C4" width="4.59" height="2"/>
	</g>
	<g>
		
			<rect x="67.678" y="105.402" transform="matrix(0.7071 0.7071 -0.7071 0.7071 96.2684 -17.0188)" fill="#C4C4C4" width="2" height="4.59"/>
	</g>
</g>
<g>
	<path fill="#C4C4C4" d="M142,152H20V10h122V152z M22,150h118V12H22V150z"/>
</g>
<g>
	<rect x="21" y="25" fill="#C4C4C4" width="120" height="2"/>
</g>
<g>
	<path fill="#204056" d="M132,21.828H30v-6.655h102V21.828z M32,19.828h98v-2.655H32V19.828z"/>
</g>
<g>
	<rect x="21" y="140" fill="#C4C4C4" width="120" height="2"/>
</g>
<g>
	<rect x="31" y="35" fill="#204056" width="10" height="2"/>
</g>
<g>
	<rect x="36" y="40" fill="#204056" width="10" height="2"/>
</g>
<g>
	<rect x="51" y="40" fill="#204056" width="5" height="2"/>
</g>
<g>
	<rect x="61" y="40" fill="#204056" width="10" height="2"/>
</g>
<g>
	<rect x="76" y="40" fill="#204056" width="5" height="2"/>
</g>
<g>
	<rect x="86" y="40" fill="#204056" width="10" height="2"/>
</g>
<g>
	<rect x="36" y="45" fill="#204056" width="15" height="2"/>
</g>
<g>
	<rect x="56" y="45" fill="#204056" width="10" height="2"/>
</g>
<g>
	<rect x="71" y="45" fill="#204056" width="10" height="2"/>
</g>
<g>
	<rect x="86" y="45" fill="#204056" width="5" height="2"/>
</g>
<g>
	<rect x="96" y="45" fill="#204056" width="10" height="2"/>
</g>
<g>
	<rect x="56" y="85" fill="#204056" width="10" height="2"/>
</g>
<g>
	<rect x="71" y="85" fill="#204056" width="10" height="2"/>
</g>
<g>
	<rect x="86" y="85" fill="#204056" width="5" height="2"/>
</g>
<g>
	<rect x="96" y="85" fill="#204056" width="10" height="2"/>
</g>
<g>
	<rect x="31" y="55" fill="#204056" width="15" height="2"/>
</g>
<g>
	<rect x="41" y="60" fill="#204056" width="20" height="2"/>
</g>
<g>
	<rect x="66" y="60" fill="#204056" width="5" height="2"/>
</g>
<g>
	<rect x="76" y="60" fill="#204056" width="10" height="2"/>
</g>
<g>
	<rect x="91" y="60" fill="#204056" width="5" height="2"/>
</g>
<g>
	<rect x="111" y="65" fill="#204056" width="5" height="2"/>
</g>
<g>
	<rect x="121" y="65" fill="#204056" width="10" height="2"/>
</g>
<g>
	<rect x="41" y="65" fill="#204056" width="5" height="2"/>
</g>
<g>
	<rect x="51" y="65" fill="#204056" width="10" height="2"/>
</g>
<g>
	<rect x="66" y="65" fill="#204056" width="10" height="2"/>
</g>
<g>
	<rect x="81" y="65" fill="#204056" width="10" height="2"/>
</g>
<g>
	<rect x="96" y="65" fill="#204056" width="10" height="2"/>
</g>
<g>
	<rect x="36" y="75" fill="#204056" width="15" height="2"/>
</g>
<g>
	<rect x="41" y="80" fill="#204056" width="5" height="2"/>
</g>
<g>
	<rect x="51" y="80" fill="#204056" width="10" height="2"/>
</g>
<g>
	<rect x="66.668" y="80" fill="#204056" width="9.332" height="2"/>
</g>
<g>
	<rect x="81" y="80" fill="#204056" width="5" height="2"/>
</g>
<g>
	<circle fill="#46B898" cx="102.875" cy="119.125" r="26.875"/>
</g>
<g>
	<circle fill="#2FB18A" cx="50.58" cy="124.879" r="6.122"/>
</g>
<g>
	<g>
		<polygon fill="#204056" points="96.803,125.645 83.764,119.125 96.803,112.605 97.697,114.395 88.236,119.125 97.697,123.855 		
			"/>
	</g>
	<g>
		<polygon fill="#204056" points="108.947,125.645 108.053,123.855 117.514,119.125 108.053,114.395 108.947,112.605 
			121.986,119.125 		"/>
	</g>
	<g>
		
			<rect x="101.876" y="110.231" transform="matrix(0.9771 0.213 -0.213 0.9771 27.7339 -19.1785)" fill="#204056" width="1.999" height="17.787"/>
	</g>
</g>
</svg>
