<?xml version="1.0" encoding="utf-8"?>
<!-- Generator: Adobe Illustrator 16.0.0, SVG Export Plug-In . SVG Version: 6.00 Build 0)  -->
<!DOCTYPE svg PUBLIC "-//W3C//DTD SVG 1.1//EN" "http://www.w3.org/Graphics/SVG/1.1/DTD/svg11.dtd">
<svg version="1.1" id="图层_1" xmlns="http://www.w3.org/2000/svg" xmlns:xlink="http://www.w3.org/1999/xlink" x="0px" y="0px"
	 width="162px" height="162px" viewBox="0 0 162 162" enable-background="new 0 0 162 162" xml:space="preserve">
<g>
	<g>
		<g>
			<polygon points="2,11 0,11 0,0 11,0 11,2 2,2 			"/>
		</g>
	</g>
	<g>
		<g>
			<polygon points="11,162 0,162 0,151 2,151 2,160 11,160 			"/>
		</g>
	</g>
	<g>
		<g>
			<polygon points="162,162 151,162 151,160 160,160 160,151 162,151 			"/>
		</g>
	</g>
	<g>
		<g>
			<polygon points="162,11 160,11 160,2 151,2 151,0 162,0 			"/>
		</g>
	</g>
</g>
<g>
	<g>
		<g>
			<circle fill="#E4E5E7" cx="112.875" cy="27.875" r="6.875"/>
		</g>
	</g>
	<g>
		<g>
			<circle fill="#E4E5E7" cx="29.751" cy="38.165" r="8.75"/>
		</g>
	</g>
	<g>
		<g>
			<path fill="#27BA90" d="M133.494,21c0,0-7.494,8.351-7.494,12.489c0,4.139,3.355,7.493,7.494,7.493
				c4.138,0,7.493-3.354,7.493-7.493C140.987,29.351,133.494,21,133.494,21z"/>
		</g>
	</g>
	<g>
		<g>
			<path fill="#27BA90" d="M110.489,41.005c0,0-7.493,8.351-7.493,12.489s3.355,7.493,7.493,7.493s7.493-3.354,7.493-7.493
				S110.489,41.005,110.489,41.005z"/>
		</g>
	</g>
	<g>
		<g>
			<rect x="21" y="70" width="30.001" height="2"/>
		</g>
	</g>
	<g>
		<g>
			<rect x="21" y="75" width="30.001" height="2"/>
		</g>
	</g>
	<g>
		<g>
			<rect x="21" y="80" width="30.001" height="2"/>
		</g>
	</g>
	<g>
		<g>
			<rect x="111" y="70" width="30.001" height="2"/>
		</g>
	</g>
	<g>
		<g>
			<rect x="111" y="75" width="30.001" height="2"/>
		</g>
	</g>
	<g>
		<g>
			<rect x="111" y="80" width="30.001" height="2"/>
		</g>
	</g>
	<g>
		<g>
			<rect x="21" y="85" width="30.001" height="2"/>
		</g>
	</g>
	<g>
		<g>
			<rect x="21" y="90" width="30.001" height="2"/>
		</g>
	</g>
	<g>
		<g>
			<rect x="21" y="95" width="9.91" height="2"/>
		</g>
	</g>
	<g>
		<g>
			<rect x="131.045" y="85" width="9.91" height="2"/>
		</g>
	</g>
	<g>
		<g>
			<rect x="131.045" y="90" width="9.91" height="2"/>
		</g>
	</g>
	<g>
		<g>
			<path fill="#E4E5E7" d="M90.868,72.229V21H96V11H66v10h5v51.261C53.748,76.701,41,92.362,41,111c0,22.091,17.909,40,40,40
				s40-17.909,40-40C121,92.314,108.188,76.624,90.868,72.229z"/>
		</g>
	</g>
	<g>
		<g>
			<path fill="#34C9A2" d="M112.579,110.667c0,17.44-14.139,31.579-31.579,31.579s-31.579-14.139-31.579-31.579H112.579z"/>
		</g>
	</g>
	<g>
		<g>
			<path d="M81,143.246c-17.964,0-32.579-14.615-32.579-32.579c0-15.713,11.032-29.03,26.354-31.984V11h2v69.366l-0.836,0.139
				c-14.786,2.463-25.518,15.147-25.518,30.162c0,16.861,13.718,30.579,30.579,30.579s30.579-13.718,30.579-30.579
				c0-15.105-10.806-27.803-25.694-30.191l-0.842-0.135V11h2v67.646c15.428,2.881,26.536,16.213,26.536,32.021
				C113.579,128.631,98.965,143.246,81,143.246z"/>
		</g>
	</g>
	<g>
		<g>
			<g>
				<path d="M74,104.378v-2h2v2H74z M80,104.378v-2h2v2H80z M86,104.378v-2h2v2H86z"/>
			</g>
		</g>
	</g>
	<g>
		<g>
			<g>
				<polygon fill="#34C9A2" points="43.674,48.278 53.584,42.557 63.495,48.278 63.495,59.722 53.584,65.443 43.674,59.722 				"/>
			</g>
		</g>
		<g>
			<g>
				<path d="M40.821,45.041l-10.91-6.299V26.145l10.91-6.299l10.91,6.299v12.598L40.821,45.041z M31.911,37.588l8.91,5.145
					l8.91-5.145V27.299l-8.91-5.144l-8.91,5.144V37.588z"/>
			</g>
		</g>
		<g>
			<g>
				<path d="M30.911,62.206L20,55.907V43.31l10.91-6.299l10.91,6.299v12.598L30.911,62.206z M22,54.753l8.91,5.145l8.91-5.145
					V44.464l-8.91-5.145L22,44.464V54.753z"/>
			</g>
		</g>
		<g>
			<g>
				<path d="M50.731,62.206l-10.91-6.299V43.31l10.91-6.299l10.91,6.299v12.598L50.731,62.206z M41.821,54.753l8.91,5.145
					l8.91-5.145V44.464l-8.91-5.145l-8.91,5.145V54.753z"/>
			</g>
		</g>
	</g>
	<g>
		<g>
			<path d="M121,62c-8.822,0-16-7.178-16-16c0-8.568,14.633-24.974,15.256-25.668L121,19.503l0.744,0.829
				C122.367,21.026,137,37.432,137,46C137,54.822,129.822,62,121,62z M121,22.52c-2.995,3.475-14,16.701-14,23.48
				c0,7.72,6.281,14,14,14c7.721,0,14-6.28,14-14C135,39.219,123.997,25.995,121,22.52z"/>
		</g>
	</g>
	<g>
		<g>
			<g>
				<rect x="26.25" y="134.961" transform="matrix(0.8574 0.5146 -0.5146 0.8574 77.0932 6.2597)" width="2" height="14.577"/>
			</g>
		</g>
		<g>
			<g>
				<rect x="29.487" y="140" transform="matrix(0.8321 0.5547 -0.5547 0.8321 84.6789 2.3247)" width="18.028" height="2"/>
			</g>
		</g>
		<g>
			<g>
				<rect x="18.865" y="127.5" transform="matrix(0.4472 0.8944 -0.8944 0.4472 129.9976 46.6595)" width="16.771" height="2"/>
			</g>
		</g>
		<g>
			<g>
				<circle fill="#27BA90" cx="31" cy="136" r="5"/>
			</g>
		</g>
		<g>
			<g>
				<circle fill="#27BA90" cx="23.5" cy="121" r="2.5"/>
			</g>
		</g>
		<g>
			<g>
				<circle fill="#27BA90" cx="23.5" cy="148.5" r="2.5"/>
			</g>
		</g>
		<g>
			<g>
				<circle fill="#27BA90" cx="46" cy="146" r="2.5"/>
			</g>
		</g>
	</g>
	<g>
		<g>
			<path d="M118.5,147c-1.93,0-3.5-1.57-3.5-3.5s1.57-3.5,3.5-3.5s3.5,1.57,3.5,3.5S120.43,147,118.5,147z M118.5,142
				c-0.826,0-1.5,0.673-1.5,1.5s0.674,1.5,1.5,1.5c0.828,0,1.5-0.673,1.5-1.5S119.328,142,118.5,142z"/>
		</g>
	</g>
	<g>
		<g>
			<circle fill="#E4E5E7" cx="131.045" cy="109.584" r="3.583"/>
		</g>
	</g>
	<g>
		<g>
			<circle fill="#E4E5E7" cx="31" cy="111" r="3.583"/>
		</g>
	</g>
	<g>
		<g>
			<circle fill="#34C9A2" cx="133.5" cy="128.5" r="7.5"/>
		</g>
	</g>
</g>
</svg>
