<?xml version="1.0" encoding="utf-8"?>
<!-- Generator: Adobe Illustrator 15.0.0, SVG Export Plug-In . SVG Version: 6.00 Build 0)  -->
<!DOCTYPE svg PUBLIC "-//W3C//DTD SVG 1.1//EN" "http://www.w3.org/Graphics/SVG/1.1/DTD/svg11.dtd">
<svg version="1.1" id="图层_1" xmlns="http://www.w3.org/2000/svg" xmlns:xlink="http://www.w3.org/1999/xlink" x="0px" y="0px"
	 width="400px" height="100px" viewBox="0 0 400 100" enable-background="new 0 0 400 100" xml:space="preserve">
<g id="_x0A_calculator">
	<g>
		<path fill-rule="evenodd" clip-rule="evenodd" fill="#1ABC9C" d="M374.709,46.047c0.097-4.89-0.03-9.772-0.406-14.647
			c-0.154-2.04-0.494-4.048-1.731-5.766c-0.679-0.941-1.409-1.846-2.133-2.753c-0.261-0.325-0.606-0.523-1.045-0.562
			c-0.926-0.08-1.848-0.255-2.773-0.27c-2.326-0.035-4.653-0.032-6.982,0.01c-3.486,0.062-6.974,0.191-10.463,0.249
			c-3.083,0.052-6.168,0.072-9.253,0.057c-1.521-0.008-3.015,0.229-4.506,0.448c-0.967,0.143-1.905,0.499-2.838,0.814
			c-0.31,0.104-0.645,0.324-0.82,0.59c-1.205,1.812-2.112,3.778-2.331,5.95c-0.238,2.368-0.557,4.734-0.507,7.127
			c0.034,1.629,0.034,3.262-0.037,4.888c-0.161,3.562,0.318,7.085,0.524,10.625c0.062,1.041,0.176,2.088,0.396,3.105
			c0.159,0.75,0.24,1.49,0.238,2.248c0,1.162-0.021,2.326-0.02,3.49c0.002,0.404-0.006,0.822,0.086,1.211
			c0.356,1.533,0.49,3.092,0.614,4.654c0.069,0.924,0.166,1.854,0.351,2.76c0.455,2.203,1.729,3.768,3.828,4.615
			c1.077,0.438,2.166,0.842,3.255,1.236c0.66,0.244,1.341,0.352,2.05,0.346c2.503-0.016,5.004-0.006,7.509-0.006v-0.062
			c0.757,0,1.513,0.014,2.269-0.002c0.927-0.01,1.861-0.143,2.776-0.049c2.107,0.213,4.172-0.066,6.239-0.379
			c1.263-0.191,2.532-0.34,3.796-0.521c1.663-0.242,3.337-0.441,4.98-0.775c0.859-0.174,1.703-0.326,2.58-0.365
			c0.455-0.02,0.924-0.104,1.362-0.234c1.469-0.443,2.376-1.41,2.589-2.955c0.068-0.516,0.075-1.045,0.094-1.568
			c0.046-1.273-0.094-2.557,0.245-3.814c0.088-0.326,0.034-0.697,0.018-1.043c-0.061-1.451-0.168-2.902-0.188-4.357
			c-0.04-3.082-0.038-6.168-0.054-9.252c0-0.171-0.006-0.349,0.028-0.52C374.748,49.075,374.682,47.558,374.709,46.047z
			 M371.703,49.625c-0.154,2.2-0.163,4.417-0.147,6.624c0.025,3.025,0.109,6.047-0.15,9.068c-0.016,0.17-0.086,0.379-0.018,0.51
			c0.385,0.785-0.073,1.484-0.206,2.205c-0.172,0.922-0.679,1.484-1.683,1.717c-1.921,0.455-3.833,0.918-5.79,1.203
			c-2.761,0.404-5.534,0.631-8.325,0.746c-2.258,0.092-4.512,0.395-6.768,0.545c-1.626,0.113-3.257,0.125-4.886,0.184v-0.035h-3.665
			c-0.937,0-1.832-0.172-2.737-0.439c-0.994-0.297-1.766-0.846-2.421-1.615c-0.348-0.406-0.605-0.832-0.707-1.373
			c-0.312-1.654-0.602-3.311-0.675-4.998c-0.092-2.092-0.18-4.182-0.298-6.271c-0.039-0.635-0.166-1.266-0.25-1.898
			c-0.068-0.518-0.137-1.033-0.195-1.555c-0.066-0.592,0.032-1.148,0.331-1.68c0.458-0.809,0.892-1.63,1.314-2.456
			c0.267-0.518,0.514-1.042,0.733-1.579c0.118-0.288-0.078-0.678-0.387-0.899c-0.288-0.206-0.725-0.192-0.956,0.066
			c-0.312,0.344-0.591,0.715-0.892,1.064c-0.03,0.038-0.123,0.069-0.155,0.05c-0.081-0.055-0.197-0.126-0.21-0.205
			c-0.138-0.833,0.021-1.622,0.419-2.358c0.773-1.432,1.56-2.854,2.346-4.277c0.114-0.204,0.267-0.386,0.385-0.584
			c0.224-0.385,0.206-0.695-0.043-0.957c-0.292-0.31-0.773-0.442-1.111-0.215c-0.376,0.258-0.713,0.581-1.031,0.914
			c-0.274,0.287-0.496,0.629-0.745,0.942c-0.025,0.032-0.116,0.057-0.142,0.036c-0.043-0.028-0.086-0.101-0.077-0.148
			c0.066-0.396,0.064-0.827,0.231-1.177c0.732-1.511,1.227-3.146,2.288-4.49c0.069-0.09,0.125-0.199,0.155-0.31
			c0.077-0.29,0.097-0.603-0.157-0.802c-0.163-0.13-0.421-0.229-0.623-0.205c-0.458,0.05-0.902,0.195-1.355,0.278
			c-0.338,0.062-0.555-0.122-0.567-0.458c-0.009-0.23-0.015-0.465-0.002-0.698c0.101-1.68,0.206-3.362,0.322-5.042
			c0.015-0.228,0.038-0.494,0.167-0.665c0.907-1.217,1.822-2.392,3.539-2.556c1.738-0.166,3.47-0.327,5.219-0.315
			c1.338,0.01,2.677,0.006,4.013,0c1.221-0.004,2.426-0.047,3.642-0.249c1.253-0.207,2.553-0.157,3.829-0.155
			c2.618,0.003,5.235,0.057,7.853,0.073c0.462,0.003,0.956,0.02,1.386-0.12c1.026-0.338,2.068-0.22,3.11-0.258
			c1.523-0.054,2.647,0.737,3.706,1.681c0.166,0.149,0.32,0.359,0.385,0.571c0.318,1.045,0.909,2.017,0.831,3.175
			c-0.023,0.34,0.018,0.709,0.129,1.031c0.396,1.173,0.433,2.392,0.542,3.607c0.124,1.388,0.331,2.765,0.505,4.147
			c0.027,0.229,0.135,0.468,0.097,0.683c-0.338,1.863,0.09,3.713,0.045,5.569C371.815,46.723,371.805,48.171,371.703,49.625z
			 M368.101,36.464c0.043-2.211-0.383-4.384-0.6-6.573c-0.021-0.23-0.068-0.46-0.12-0.687c-0.099-0.425-0.356-0.715-0.771-0.868
			c-0.664-0.241-1.345-0.36-2.052-0.33c-1.562,0.066-3.119,0.059-4.684,0.236c-1.665,0.188-3.352,0.232-5.027,0.409
			c-2.018,0.21-4.052,0.27-6.078,0.399c-0.287,0.019-0.577,0.054-0.861,0.108c-1.375,0.27-2.763,0.335-4.161,0.283
			c-1.162-0.044-2.325-0.051-3.487-0.084c-0.767-0.021-1.497,0.147-2.211,0.404c-0.425,0.152-0.666,0.459-0.659,0.921
			c0.011,1.162-0.066,2.314-0.29,3.464c-0.097,0.501-0.013,1.041,0.021,1.562c0.054,0.809,0.154,1.614,0.195,2.423
			c0.041,0.869,0.011,1.743,0.054,2.613c0.091,1.839,1.384,3.467,3.128,3.935c0.331,0.089,0.688,0.128,1.031,0.121
			c1.625-0.034,3.238-0.074,4.858-0.305c1.832-0.266,3.674-0.577,5.543-0.527c0.985,0.025,1.977,0.005,3.352,0.005
			c1.809-0.058,4.02,0.219,6.204-0.25c0.279-0.061,0.58-0.003,0.87-0.013c0.641-0.023,1.278-0.056,1.917-0.075
			c0.889-0.031,1.699-0.331,2.503-0.682c0.464-0.2,0.803-0.531,0.87-1.011c0.129-0.962,0.588-1.9,0.217-2.912
			c-0.071-0.193,0.013-0.449,0.036-0.675C367.965,37.728,368.09,37.098,368.101,36.464z M366.006,39.492
			c-0.028,0.851-0.949,1.772-1.79,1.821c-0.462,0.029-0.926-0.039-1.39-0.024c-1.214,0.042-2.43,0.105-3.644,0.16
			c-1.274,0.057-2.551,0.163-3.824,0.16c-3.192-0.004-6.386-0.03-9.578-0.101c-1.271-0.029-2.541-0.195-3.813-0.306
			c-0.391-0.033-0.65-0.273-0.734-0.638c-0.127-0.563-0.275-1.137-0.29-1.712c-0.048-2.031-0.05-4.062-0.054-6.095
			c0-0.438,0.215-0.649,0.621-0.674c0.348-0.018,0.695-0.024,1.044-0.018c1.746,0.033,3.47-0.155,5.178-0.511
			c0.396-0.081,0.806-0.083,1.212-0.118c0.924-0.078,1.848-0.216,2.771-0.22c3.021-0.01,6.016-0.401,9.027-0.57
			c0.576-0.034,1.147-0.148,1.723-0.163c0.748-0.018,1.502-0.018,2.248,0.058c0.636,0.063,1.018,0.446,1.067,1.134
			c0.036,0.519,0.183,1.03,0.2,1.548c0.034,0.985,0.008,1.973,0.008,2.959h0.026C366.015,37.284,366.04,38.389,366.006,39.492z
			 M349.398,51.73c0.208-0.041,0.15-0.027,0.095-0.018c-0.012,0-0.023,0.006-0.036,0.008c1.487-0.229,2.717-0.445,3.979-0.404
			c0.503,0.018,1.026-0.15,1.515-0.314c0.876-0.291,1.359-1.141,1.186-2.045c-0.075-0.397-0.215-0.783-0.358-1.16
			c-0.127-0.334-0.351-0.565-0.729-0.672c-2.109-0.589-4.127-0.258-6.08,0.615c-0.752,0.335-1.182,0.902-1.081,1.786
			c0.041,0.345-0.017,0.699,0.032,1.04c0.064,0.456,0.143,0.924,0.574,1.211c0.329,0.217,0.643-0.01,0.963-0.057
			C349.438,51.723,349.419,51.727,349.398,51.73z M362.93,51.15c1.143-0.117,2.234-0.545,3.416-0.449
			c0.874,0.069,1.392-0.562,1.28-1.426c-0.061-0.455-0.198-0.91-0.383-1.329c-0.107-0.245-0.333-0.517-0.573-0.619
			c-0.522-0.218-1.029-0.528-1.644-0.49c-0.518,0.033-1.04,0.007-1.848,0.007c-0.926,0.08-2.134,0.21-3.346,0.276
			c-1.184,0.065-1.252,0.235-1.192,1.372c0.041,0.779,0.445,1.428,0.823,2.075c0.104,0.177,0.351,0.353,0.548,0.376
			C360.979,51.049,361.92,51.258,362.93,51.15z M349.635,59.264c1.239,0.555,2.602,0.48,3.903,0.709
			c0.976-0.355,2.024-0.59,2.821-1.293c0.761-0.67,1.276-2.049-0.075-2.936c-0.394-0.262-0.77-0.5-1.271-0.465
			c-0.347,0.023-0.694,0.004-1.042,0.004c0-0.018-0.003-0.035-0.005-0.055c-0.978,0.096-1.955,0.199-2.931,0.287
			c-1.77,0.158-2.12,0.641-2.103,2.471c0,0.115,0.011,0.227,0.019,0.346C348.983,58.787,349.25,59.09,349.635,59.264z M339.9,52.414
			c0.521-0.039,1.055-0.064,1.568,0.006c1.143,0.145,2.03-0.393,2.892-0.99c1.027-0.724,1.259-1.519,0.859-2.741
			c-0.097-0.295-0.305-0.482-0.645-0.482c-1.049,0.002-2.095,0.002-3.141,0.002v0.051h-3.142c-0.382,0-0.661,0.182-0.863,0.493
			c-0.254,0.397-0.432,0.813-0.464,1.296c-0.069,1.083,0.107,1.366,1.112,1.913C338.656,52.277,339.234,52.467,339.9,52.414z
			 M356.686,63.066c-1.329-0.711-2.804-0.705-4.232-0.717c-0.899-0.006-1.805,0.355-2.704,0.555c-0.314,0.068-0.544,0.246-0.6,0.553
			c-0.084,0.449-0.148,0.91-0.148,1.365c0.002,0.203,0.125,0.482,0.286,0.598c1.042,0.736,2.099,1.479,3.495,1.314
			c1.089-0.131,2.179-0.254,3.266-0.4c0.159-0.021,0.38-0.111,0.438-0.23c0.285-0.627,0.58-1.258,0.771-1.916
			C357.412,63.656,357.185,63.336,356.686,63.066z M345.104,63.236c-0.518-0.287-1.04-0.461-1.649-0.381
			c-0.913,0.121-1.829,0.266-2.746,0.279c-0.981,0.014-1.766,0.484-2.574,0.916c-0.274,0.148-0.362,0.438-0.315,0.748
			c0.071,0.453,0.125,0.918,0.251,1.355c0.073,0.258,0.239,0.516,0.424,0.711c0.477,0.506,1.1,0.709,1.738,0.445
			c1.209-0.506,2.46-0.604,3.733-0.516c0.861,0.061,1.375-0.49,1.942-0.961c0.075-0.064,0.086-0.203,0.12-0.295
			c-0.101-0.461-0.24-0.906-0.281-1.359C345.707,63.721,345.484,63.451,345.104,63.236z M366.685,61.969
			c-0.638-0.023-1.278-0.006-1.916-0.006c-1.233-0.178-2.433-0.143-3.561,0.48c-0.915,0.51-1.192,1.533-0.502,2.303
			c0.301,0.336,0.7,0.635,1.114,0.805c1.722,0.711,3.419,0.436,5.07-0.273c0.447-0.193,0.782-0.578,0.821-1.051
			c0.043-0.508-0.032-1.039-0.142-1.539C367.476,62.262,367.143,61.984,366.685,61.969z M338.538,59.289
			c0.838,0.215,1.695,0.359,2.481,0.52c0.943-0.129,1.807-0.24,2.664-0.371c1.592-0.242,1.899-0.736,1.393-2.221
			c-0.329-0.969-0.703-1.281-1.79-1.295c-1.276-0.014-2.553,0.047-3.826,0.084c-0.172,0.006-0.342,0.066-0.512,0.1
			c-0.806,0.172-1.08,0.447-1.177,1.264c-0.041,0.342-0.041,0.699,0.013,1.035C337.854,58.83,338.121,59.186,338.538,59.289z
			 M362.121,59.018c0.172,0.018,0.347,0.002,0.521,0.002c1.312,0.02,2.49-0.42,3.556-1.148c0.274-0.188,0.526-0.467,0.679-0.762
			c0.453-0.865,0.036-1.861-0.89-1.992c-1.089-0.152-2.174-0.301-3.27-0.197c-0.619,0.059-1.248,0.215-1.831,0.443
			c-0.564,0.217-0.926,0.688-0.913,1.34C359.999,57.857,360.985,58.912,362.121,59.018z"/>
	</g>
</g>
<g id="_x0A_currencies">
	<g>
		<path fill-rule="evenodd" clip-rule="evenodd" fill="#1ABC9C" d="M361.698,33.6c-0.245-0.139-0.514-0.081-0.686,0.15
			c-0.049,0.064-0.09,0.135-0.135,0.202c-0.437,0.643-0.87,1.285-1.311,1.926c-0.166,0.239-0.342,0.472-0.519,0.703
			c-0.07,0.095-0.156,0.086-0.236-0.015c-0.029-0.039-0.056-0.079-0.083-0.118c-0.288-0.412-0.567-0.829-0.862-1.234
			c-0.19-0.262-0.399-0.509-0.604-0.757c-0.095-0.114-0.217-0.194-0.365-0.23c-0.154-0.038-0.292,0.028-0.358,0.172
			c-0.043,0.094-0.054,0.189-0.009,0.281c0.064,0.131,0.131,0.262,0.208,0.383c0.411,0.622,0.823,1.239,1.233,1.859
			c0.179,0.271,0.354,0.542,0.531,0.813c0.07,0.11,0.034,0.163-0.112,0.181c-0.271,0.033-0.543,0.063-0.814,0.106
			c-0.229,0.034-0.41,0.189-0.373,0.312c0.056,0.18,0.208,0.233,0.376,0.256c0.255,0.035,0.513,0.068,0.769,0.104
			c0.062,0.008,0.131,0.016,0.185,0.043c0.037,0.02,0.08,0.076,0.078,0.113c-0.005,0.059-0.03,0.146-0.071,0.165
			c-0.084,0.04-0.185,0.057-0.279,0.058c-0.213,0.003-0.419,0.036-0.616,0.114c-0.143,0.055-0.243,0.161-0.256,0.325
			c-0.009,0.128,0.095,0.263,0.258,0.315c0.092,0.028,0.188,0.043,0.285,0.05c0.097,0.008,0.193-0.003,0.293-0.003
			c0.365-0.002,0.382,0.021,0.344,0.374c-0.024,0.225-0.011,0.454-0.102,0.67c-0.017,0.042-0.013,0.096-0.015,0.144
			c-0.009,0.285,0.176,0.514,0.444,0.546c0.306,0.039,0.563-0.123,0.614-0.412c0.067-0.381,0.116-0.766,0.17-1.149
			c0.021-0.153,0.054-0.19,0.215-0.195c0.114-0.005,0.228-0.002,0.342-0.005c0.176-0.004,0.356,0,0.533-0.015
			c0.217-0.02,0.376-0.203,0.389-0.43c0.013-0.211-0.152-0.411-0.374-0.429c-0.176-0.014-0.354-0.003-0.533-0.003
			c0,0.001,0,0.001,0,0.001c-0.146,0-0.292,0.002-0.438,0c-0.145-0.002-0.198-0.046-0.198-0.152c0.002-0.099,0.059-0.142,0.15-0.153
			c0.191-0.027,0.383-0.071,0.576-0.08c0.217-0.01,0.365-0.119,0.485-0.277c0.097-0.128,0.068-0.341-0.054-0.442
			c-0.129-0.106-0.275-0.177-0.447-0.154c-0.208,0.026-0.414,0.061-0.623,0.084c-0.043,0.005-0.103-0.015-0.126-0.046
			c-0.021-0.026-0.016-0.097,0.006-0.127c0.188-0.266,0.374-0.529,0.569-0.786c0.563-0.732,1.072-1.5,1.584-2.271
			c0.062-0.094,0.124-0.19,0.169-0.293C362.022,34.016,361.931,33.732,361.698,33.6z"/>
	</g>
</g>
<g id="chart1_1_">
	<g>
		<path fill-rule="evenodd" clip-rule="evenodd" fill="#1ABC9C" d="M241.149,35.225c-1.919-0.445-2.797-1.134-4.692-1.258
			c-2.094,0.589-3.825,1.802-5.385,3.32c-0.217,0.822-0.438,1.646-0.66,2.468c-2.103,1.056-4.202,2.117-6.374,3.054
			c-2.03,1.42-4.028,2.897-6.145,4.174c-0.41-0.76-1.736-1.309-2.585-1.222c-0.049-0.668-0.717-0.976-0.897-1.565
			c-0.084-0.719-0.761-1.092-0.84-1.811c-0.804-0.997-1.391-2.121-1.74-3.376c1.153-1.683,1.443-4.561,0.466-5.695
			c-0.739-0.693-2.062-0.664-3.141-1.105c-0.686-0.283-1.163-0.905-1.842-1.022c-1.306,0.027-2.415,0.397-3.427,0.933
			c-0.736,1.371-1.553,2.61-1.996,4.491c-1.327,0.853-2.464,1.937-3.707,2.975c-1.209,1.011-2.393,2.107-3.707,2.976
			c-0.5-0.963-1.271-1.771-2.879-2.095c-3.229-0.258-5.51,2.521-5.686,6.415c-2.484-0.451-5.2-1.301-7.537-1.493
			c-0.242-1.111-0.467-2.229-1.624-2.814c-3.091-1.015-4.815,0.336-7.077,0.747c-0.931,1.206-1.979,2.574-2.249,4.423
			c-0.211,1.478,0.417,2.915,0.804,3.919c1.104,1.158,2.238,1.902,3.685,2.047c0.352,0.031,0.597-0.242,0.874-0.295
			c0.377-0.076,0.71,0.146,1.055,0.018c0.281-0.105,0.67-0.566,1.004-0.791c1.266-0.852,2.182-1.702,2.718-3.238
			c2.829,1.255,7.509,2.664,9.282,0.9c0.319,1.275,1.297,2.171,2.68,2.835c2.686,0.908,4.399,0.146,5.847-1.082
			c1.214-2.305,0.928-4.608,0.417-6.5c1.16-0.883,2.505-1.442,3.575-2.48c1.33-0.59,2.2-1.968,3.575-2.48
			c1.352,1.52,3.932,1.106,5.561,0.958c0.324,1.206,0.781,2.332,1.182,3.494c0.436,0.442,0.736,0.964,0.902,1.562
			c-0.024,0.711,0.87,0.891,0.593,1.747c-0.87,2.865-0.823,5.203-0.059,7.125c1.543,1.469,3.824,1.723,5.743,1.277
			c0.565-0.59,1.121-1.193,1.764-1.645c0.49-1.541,0.743-2.934,0.877-4.263c4.084-2.562,8.003-5.405,12.699-6.914
			c0.12,0.904,1.038,1.349,1.891,1.83c3.51,1.141,5.771,0.12,7.59-1.671C243.012,40.711,243.242,37.205,241.149,35.225z
			 M172.435,48.821c-0.848-0.445,0.062-2.321,0.659-2.468C174.103,46.704,172.921,48.737,172.435,48.821z M191.722,47.908
			c-0.312-0.17-0.376-0.479-0.922-0.515c-0.093-0.708-0.272-1.37,0.104-2.352C191.308,45.92,191.826,46.733,191.722,47.908
			C192.027,47.96,191.778,48.305,191.722,47.908z M206.713,37.375c0.168-1.155,0.795-1.517,1.878-1.085
			C208.189,37.038,207.562,37.398,206.713,37.375z M215.008,52.822c-0.505-0.408-0.21-1.271,0.035-2.107
			C215.543,51.119,215.249,51.986,215.008,52.822z M238.176,42.365c-0.9,0.005-1.633,0.305-2.846-0.233
			c0.009-1.116,0.344-2.426,0.749-3.768c0.885-0.151,1.618-0.565,2.913-0.014C239.112,39.477,239.037,41.299,238.176,42.365z"/>
	</g>
</g>
<g id="gauge">
	<g>
		<path fill-rule="evenodd" clip-rule="evenodd" fill="#1ABC9C" d="M80.592,24.128c0.009-1.001-0.591-1.54-1.599-1.437
			c-0.388,0.041-0.669,0.247-0.91,0.519c-0.628,0.716-1.223,1.467-1.877,2.161c-1.146,1.217-2.345,2.385-3.488,3.604
			c-1.062,1.132-2.139,2.26-3.108,3.466c-1.384,1.719-2.652,3.525-4.087,5.215c-1.891,2.226-3.643,4.571-5.459,6.86
			c-0.222,0.28-0.465,0.544-0.695,0.819c-0.53,0.644-1.091,1.268-1.583,1.941c-1.096,1.492-2.113,3.04-3.241,4.504
			c-1.086,1.406-1.752,2.963-2.032,4.701c-0.132,0.822-0.307,1.639-0.458,2.455c-0.083,0.92,0.302,1.639,0.849,2.311
			c1.415,1.74,3.334,2.436,5.481,2.672c1.184,0.133,2.258-0.215,3.199-0.889c1.529-1.102,2.787-2.432,3.283-4.326
			c0.215-0.814,0.582-1.545,1.024-2.266c0.657-1.064,1.212-2.191,1.767-3.312c1.541-3.107,2.57-6.419,3.823-9.643
			c0.976-2.501,1.868-5.033,3.05-7.451c0.731-1.498,1.424-3.021,2.221-4.487c1.081-1.987,1.877-4.136,3.335-5.915
			C80.432,25.209,80.588,24.692,80.592,24.128z M60.664,58.621c-0.127,0.188-0.33,0.33-0.521,0.457
			c-0.146,0.098-0.326,0.117-0.384-0.117c-0.028-0.113-0.019-0.232-0.018-0.219c0-0.248-0.04-0.385,0.009-0.479
			c0.066-0.137,0.198-0.34,0.294-0.336c0.22,0.008,0.461,0.088,0.628,0.223C60.751,58.215,60.74,58.508,60.664,58.621z
			 M64.609,52.064c-0.034,0.006-0.077-0.064-0.117-0.102c0.073-0.047,0.147-0.098,0.235-0.158c0.053,0.059,0.108,0.121,0.162,0.18
			C64.795,52.014,64.704,52.055,64.609,52.064z M69.551,40.538c-0.521,1.579-1.246,3.093-1.867,4.642
			c-0.311,0.774-0.602,1.558-0.884,2.343c-0.355,0.979-0.847,1.741-1.962,2.09c-0.834,0.258-1.584,0.822-2.328,1.318
			c-0.959,0.636-1.053,1.792-0.245,2.607c0.247,0.252,0.569,0.436,0.825,0.686c0.104,0.104,0.211,0.35,0.16,0.451
			c-0.26,0.529-0.566,1.039-0.875,1.543c-0.037,0.059-0.259,0.086-0.307,0.039c-1.059-1.053-2.108-2.129-2.643-3.551
			c-0.181-0.477-0.109-1.057-0.175-1.865c-0.253-0.601,0.226-1.177,0.762-1.79c2.701-3.106,5.16-6.412,7.775-9.587
			c1.099-1.331,2.104-2.74,3.156-4.11c0.18-0.234,0.39-0.45,0.591-0.669c0.038-0.041,0.101-0.06,0.153-0.087
			c0.043,0.1,0.148,0.229,0.119,0.298C70.993,36.75,70.191,38.605,69.551,40.538z M36.438,57.104
			c-1.834-0.379-3.669-0.375-5.511-0.33c-1.573,0.041-2.707,1.488-2.501,3.051c0.173,1.328,1.053,2.311,2.383,2.484
			c1.116,0.145,2.251,0.152,3.243,0.211c1.031,0,1.925-0.021,2.816,0.01c0.522,0.021,0.909-0.184,1.273-0.525
			c0.647-0.605,0.896-1.389,1.018-2.223c0.032-0.219-0.021-0.496-0.139-0.68C38.406,58.127,37.688,57.355,36.438,57.104z
			 M55.514,30.837c0.947,0.238,1.878,0.133,2.78-0.266c0.528-0.235,0.871-0.615,0.979-1.181c0.186-0.987,0.35-1.979,0.521-2.972
			c0.002-1.038-0.168-2.027-0.53-2.98c-0.08-0.212-0.213-0.479-0.394-0.562c-0.639-0.3-1.297-0.619-2.023-0.21
			c-0.255,0.144-0.528,0.268-0.804,0.376c-0.49,0.196-0.733,0.588-0.863,1.063c-0.078,0.285-0.155,0.579-0.161,0.87
			c-0.014,0.716-0.164,1.4-0.315,2.098c-0.196,0.917-0.347,1.854-0.124,2.818C54.71,30.447,55.043,30.715,55.514,30.837z
			 M82.582,50.328c0,0.057-0.003,0.117,0.001,0.178c0.114,1.616,1.412,2.782,3.11,1.944c0.529-0.264,1.108-0.438,1.619-0.732
			c0.82-0.475,1.612-1.001,2.399-1.532c0.374-0.252,0.487-0.651,0.467-1.1c-0.033-0.641-0.216-1.257-0.24-1.913
			c-0.037-0.912-1.313-1.65-2.166-1.316c-1.8,0.696-3.333,1.813-4.69,3.171C82.729,49.38,82.576,49.826,82.582,50.328z
			 M90.375,59.496c-0.692-0.361-1.439-0.572-2.233-0.541c-0.416,0.012-0.832,0.049-0.922,0.059c-0.806,0-1.287-0.047-1.759,0.008
			c-0.71,0.074-1.43,0.152-2.11,0.352c-0.71,0.207-1.251,0.705-1.414,1.477c-0.182,0.855,0.174,1.512,0.848,2.018
			c0.189,0.139,0.403,0.268,0.625,0.338c0.739,0.236,1.481,0.402,2.283,0.27c0.759-0.127,1.537-0.201,2.306-0.225
			c0.865-0.025,1.646-0.311,2.387-0.688c0.627-0.324,0.93-0.906,0.906-1.627C91.271,60.281,90.934,59.789,90.375,59.496z
			 M46.337,32.937c-0.831-0.953-1.459-2.014-2.09-3.097c-0.846-1.455-1.62-1.426-2.839-1.019c-0.685,0.227-1.039,0.627-1.218,1.36
			c-0.275,1.133,0.089,2.108,0.584,3.042c0.328,0.618,0.807,1.173,1.29,1.691c0.692,0.747,1.453,1.43,2.73,1.394
			c0.148-0.019,0.447-0.035,0.736-0.094c0.234-0.046,0.461-0.128,0.684-0.212c0.487-0.19,0.958-0.973,0.808-1.442
			C46.844,34,46.704,33.358,46.337,32.937z M84.834,35.061c0.112-1.387-1.007-2.09-1.968-1.569c-0.259,0.138-0.489,0.34-0.706,0.542
			c-1.456,1.363-2.484,3.048-3.487,4.745c-0.09,0.153-0.155,0.322-0.218,0.491c-0.196,0.547-0.111,1.048,0.213,1.529
			c0.669,0.985,2.297,1.396,3.181,0.104c1.008-1.478,2.08-2.923,2.653-4.649C84.671,35.75,84.788,35.227,84.834,35.061z
			 M31.771,45.179c0.379,0.275,0.744,0.576,1.133,0.839c0.234,0.162,0.492,0.338,0.764,0.395c0.931,0.178,1.871,0.306,2.5,0.406
			c0.555,0,0.795,0.024,1.03-0.004c1.085-0.128,1.847-1.103,1.681-2.118c-0.085-0.514-0.402-0.861-0.802-1.131
			c-0.786-0.533-1.577-1.062-2.395-1.545c-1.369-0.806-2.734-0.538-4.067,0.117c-0.197,0.098-0.379,0.302-0.483,0.5
			C30.712,43.451,31.027,44.638,31.771,45.179z"/>
	</g>
</g>
</svg>
