<?xml version="1.0" encoding="utf-8"?>
<!-- Generator: Adobe Illustrator 15.0.0, SVG Export Plug-In . SVG Version: 6.00 Build 0)  -->
<!DOCTYPE svg PUBLIC "-//W3C//DTD SVG 1.1//EN" "http://www.w3.org/Graphics/SVG/1.1/DTD/svg11.dtd">
<svg version="1.1" id="图层_1" xmlns="http://www.w3.org/2000/svg" xmlns:xlink="http://www.w3.org/1999/xlink" x="0px" y="0px"
	 width="400px" height="100px" viewBox="0 0 400 100" enable-background="new 0 0 400 100" xml:space="preserve">
<g>
	<g>
		<path fill="#1ABC9C" d="M38.779,60.527c0.008,0.062,0.023,0.115,0.036,0.178c-0.067,0.627,0.232,1.275,1.031,1.465
			c19.652,4.73,39.97,3.234,59.994,3.689c0.236,0.004,0.441-0.037,0.618-0.113c0.563-0.148,1.049-0.594,1.078-1.344
			c0.371-9.123,0.808-20.43,0.363-29.561c-0.006-0.148-0.038-0.281-0.078-0.407c-0.103-0.636-0.562-1.227-1.377-1.289
			C91,32.422,81.552,30.83,72.096,29.676c0.605-1.649,1.724-2.94,3.359-3.754c0.079-0.012,0.157-0.027,0.235-0.06
			c2.538-1.023,4.302-2.884,4.772-5.637c0.299-1.746-2.369-2.493-2.669-0.738c-0.297,1.743-1.162,3.029-2.841,3.706
			c-0.112,0.046-0.219,0.104-0.317,0.168c-0.174,0.013-0.351,0.057-0.531,0.144c-2.393,1.169-4.074,3.318-4.81,5.843
			c-10.369-1.154-20.745-1.62-31.145,0.336c-1.059,0.199-1.246,1.205-0.87,1.964c0.063,0.43,0.123,0.858,0.186,1.287
			c-0.017,0.103-0.025,0.213-0.021,0.331C37.893,41.629,37.87,52.193,38.779,60.527z M40.477,35.691
			c0.005-1.166,0.079-2.326,0.162-3.49c19.463-3.153,39.003,2.072,58.397,3.735c0.339,8.274-0.007,18.724-0.347,26.994
			c-19.05-0.361-38.384,0.949-57.093-3.35c-0.726-7.193-0.809-16.605-1.129-23.825C40.469,35.732,40.477,35.711,40.477,35.691z"/>
		<path fill="#1ABC9C" d="M43.724,40.727c2.006,0.633,2.654,0.88,4.749,0.657c0.346-0.037,0.629-0.171,0.847-0.361
			c0.561-0.155,1.045-0.599,1.092-1.335c0.121-1.938,0.232-2.42,0.242-4.361c0.001-0.326-0.089-0.592-0.234-0.804
			c-0.153-0.554-0.596-1.014-1.341-1.014h-4.969c-0.643,0-1.06,0.346-1.261,0.795c-0.105,0.185-0.178,0.402-0.192,0.659
			c-0.108,1.856-0.12,2.26-0.12,4.12c0,0.382,0.125,0.682,0.316,0.909C43.006,40.316,43.289,40.589,43.724,40.727z M45.509,36.417
			h2.21c-0.029,1.191-0.08,0.926-0.151,2.115c-1.212,0.045-0.941-0.074-2.118-0.359C45.452,37.103,45.474,37.488,45.509,36.417z"/>
		<path fill="#1ABC9C" d="M53.173,41.454c2.007,0.635,2.655,0.882,4.749,0.658c0.347-0.037,0.631-0.172,0.848-0.363
			c0.56-0.154,1.044-0.596,1.09-1.334c0.123-1.938,0.234-2.421,0.244-4.361c0.001-0.325-0.09-0.592-0.234-0.805
			c-0.152-0.553-0.596-1.013-1.343-1.013h-4.966c-0.644,0-1.062,0.345-1.264,0.795c-0.105,0.185-0.175,0.402-0.191,0.658
			c-0.107,1.858-0.12,2.262-0.12,4.121c0,0.381,0.125,0.682,0.319,0.908C52.456,41.044,52.738,41.317,53.173,41.454z M54.958,37.145
			h2.21c-0.028,1.189-0.08,0.926-0.15,2.116c-1.212,0.044-0.94-0.076-2.119-0.36C54.904,37.83,54.923,38.213,54.958,37.145z"/>
		<path fill="#1ABC9C" d="M62.625,42.18c2.005,0.634,2.653,0.881,4.747,0.658c0.348-0.038,0.629-0.17,0.849-0.362
			c0.559-0.154,1.044-0.598,1.09-1.334c0.12-1.938,0.233-2.421,0.243-4.361c0.001-0.328-0.09-0.592-0.233-0.805
			c-0.153-0.554-0.599-1.013-1.344-1.013h-4.966c-0.645,0-1.062,0.345-1.263,0.795c-0.105,0.185-0.176,0.402-0.191,0.658
			c-0.108,1.856-0.121,2.261-0.121,4.12c0,0.382,0.125,0.683,0.319,0.91C61.906,41.769,62.188,42.042,62.625,42.18z M64.409,37.87
			h2.209c-0.027,1.192-0.08,0.927-0.151,2.117c-1.21,0.045-0.939-0.076-2.117-0.358C64.354,38.556,64.373,38.942,64.409,37.87z"/>
		<path fill="#1ABC9C" d="M72.075,42.908c2.005,0.634,2.655,0.882,4.747,0.657c0.348-0.036,0.63-0.172,0.847-0.361
			c0.561-0.155,1.045-0.597,1.092-1.336c0.121-1.937,0.234-2.419,0.242-4.36c0.001-0.326-0.089-0.593-0.232-0.804
			c-0.154-0.554-0.598-1.015-1.343-1.015H72.46c-0.644,0-1.06,0.346-1.262,0.796c-0.104,0.185-0.177,0.404-0.191,0.66
			c-0.108,1.855-0.121,2.259-0.121,4.117c0,0.385,0.125,0.685,0.317,0.91C71.355,42.496,71.638,42.769,72.075,42.908z
			 M73.858,38.598h2.21c-0.027,1.19-0.08,0.927-0.151,2.116c-1.211,0.044-0.939-0.076-2.118-0.36
			C73.804,39.284,73.823,39.668,73.858,38.598z"/>
		<path fill="#1ABC9C" d="M81.524,43.635c2.006,0.633,2.653,0.881,4.747,0.658c0.349-0.038,0.631-0.173,0.848-0.363
			c0.561-0.154,1.047-0.597,1.093-1.335c0.12-1.937,0.231-2.42,0.241-4.362c0.001-0.325-0.09-0.59-0.234-0.803
			c-0.152-0.554-0.596-1.014-1.342-1.014H81.91c-0.644,0-1.061,0.345-1.261,0.795c-0.106,0.186-0.177,0.402-0.193,0.658
			c-0.107,1.857-0.121,2.261-0.121,4.12c0,0.383,0.126,0.683,0.319,0.909C80.807,43.224,81.088,43.497,81.524,43.635z M83.31,39.325
			h2.21c-0.029,1.19-0.081,0.928-0.151,2.116c-1.212,0.045-0.941-0.075-2.118-0.36C83.254,40.01,83.273,40.395,83.31,39.325z"/>
		<path fill="#1ABC9C" d="M43.724,49.45c2.006,0.635,2.654,0.882,4.749,0.658c0.346-0.039,0.629-0.172,0.847-0.362
			c0.561-0.155,1.045-0.598,1.092-1.335c0.121-1.938,0.232-2.42,0.242-4.361c0.001-0.326-0.089-0.592-0.234-0.803
			c-0.153-0.555-0.596-1.015-1.341-1.015h-4.969c-0.643,0-1.06,0.346-1.261,0.795c-0.105,0.188-0.178,0.402-0.192,0.66
			c-0.108,1.855-0.12,2.259-0.12,4.119c0,0.382,0.125,0.684,0.316,0.909C43.006,49.04,43.289,49.312,43.724,49.45z M45.509,45.141
			h2.21c-0.029,1.19-0.08,0.927-0.151,2.116c-1.212,0.043-0.941-0.076-2.118-0.359C45.452,45.827,45.474,46.21,45.509,45.141z"/>
		<path fill="#1ABC9C" d="M45.029,52.479c-0.105,0.184-0.178,0.404-0.191,0.66c-0.108,1.854-0.121,2.26-0.121,4.119
			c0,0.383,0.123,0.68,0.317,0.906c0.153,0.324,0.436,0.6,0.87,0.734c2.007,0.637,2.654,0.883,4.747,0.66
			c0.348-0.037,0.631-0.172,0.85-0.361c0.56-0.156,1.044-0.598,1.091-1.336c0.12-1.938,0.232-2.42,0.241-4.359
			c0.001-0.328-0.089-0.594-0.233-0.803c-0.152-0.557-0.597-1.016-1.343-1.016h-4.966C45.646,51.684,45.229,52.027,45.029,52.479z
			 M47.689,54.59h2.21c-0.03,1.189-0.083,0.928-0.15,2.117c-1.213,0.043-0.941-0.076-2.119-0.361
			C47.634,55.277,47.653,55.66,47.689,54.59z"/>
		<path fill="#1ABC9C" d="M53.173,50.176c2.007,0.634,2.655,0.878,4.749,0.658c0.347-0.039,0.631-0.17,0.848-0.361
			c0.56-0.157,1.044-0.598,1.09-1.335c0.123-1.937,0.234-2.42,0.244-4.362c0.001-0.324-0.09-0.592-0.234-0.804
			c-0.152-0.553-0.596-1.013-1.343-1.013h-4.966c-0.644,0-1.062,0.346-1.264,0.795c-0.105,0.186-0.175,0.402-0.191,0.659
			c-0.107,1.857-0.12,2.261-0.12,4.119c0,0.382,0.125,0.683,0.319,0.909C52.456,49.768,52.738,50.04,53.173,50.176z M54.958,45.869
			h2.21c-0.028,1.19-0.08,0.926-0.15,2.116c-1.212,0.044-0.94-0.077-2.119-0.361C54.904,46.555,54.923,46.937,54.958,45.869z"/>
		<path fill="#1ABC9C" d="M62.625,50.905c2.005,0.634,2.653,0.88,4.747,0.658c0.348-0.041,0.629-0.172,0.849-0.361
			c0.559-0.156,1.044-0.599,1.09-1.336c0.12-1.938,0.233-2.421,0.243-4.361c0.001-0.326-0.09-0.592-0.233-0.805
			c-0.153-0.554-0.599-1.013-1.344-1.013h-4.966c-0.645,0-1.062,0.345-1.263,0.795c-0.105,0.186-0.176,0.404-0.191,0.659
			c-0.108,1.857-0.121,2.261-0.121,4.119c0,0.383,0.125,0.684,0.319,0.911C61.906,50.495,62.188,50.765,62.625,50.905z
			 M64.409,46.594h2.209c-0.027,1.19-0.08,0.928-0.151,2.115c-1.21,0.045-0.939-0.075-2.117-0.358
			C64.354,47.279,64.373,47.665,64.409,46.594z"/>
		<path fill="#1ABC9C" d="M72.075,51.633c2.005,0.633,2.655,0.881,4.747,0.658c0.348-0.041,0.63-0.176,0.847-0.365
			c0.561-0.154,1.045-0.596,1.092-1.333c0.121-1.938,0.234-2.421,0.242-4.361c0.001-0.327-0.089-0.594-0.232-0.806
			c-0.154-0.553-0.598-1.013-1.343-1.013H72.46c-0.644,0-1.06,0.345-1.262,0.795c-0.104,0.187-0.177,0.403-0.191,0.66
			c-0.108,1.856-0.121,2.26-0.121,4.119c0,0.382,0.125,0.683,0.317,0.908C71.355,51.221,71.638,51.494,72.075,51.633z
			 M73.858,47.322h2.21c-0.027,1.19-0.08,0.926-0.151,2.116c-1.211,0.044-0.939-0.075-2.118-0.358
			C73.804,48.007,73.823,48.391,73.858,47.322z"/>
		<path fill="#1ABC9C" d="M81.524,52.359c2.006,0.631,2.653,0.879,4.747,0.654c0.349-0.035,0.631-0.172,0.848-0.361
			c0.561-0.156,1.047-0.596,1.093-1.33c0.12-1.94,0.231-2.423,0.241-4.365c0.001-0.327-0.09-0.592-0.234-0.804
			c-0.152-0.554-0.596-1.014-1.342-1.014H81.91c-0.644,0-1.061,0.344-1.261,0.796c-0.106,0.185-0.177,0.403-0.193,0.658
			c-0.107,1.855-0.121,2.259-0.121,4.119c0,0.382,0.126,0.683,0.319,0.906C80.807,51.949,81.088,52.219,81.524,52.359z
			 M83.31,48.047h2.21c-0.029,1.192-0.081,0.928-0.151,2.116c-1.212,0.045-0.941-0.075-2.118-0.358
			C83.254,48.733,83.273,49.118,83.31,48.047z"/>
		<path fill="#1ABC9C" d="M92.694,53.865h-4.968c-0.645,0-1.061,0.344-1.262,0.795c-0.105,0.184-0.178,0.404-0.191,0.656
			c-0.109,1.857-0.121,2.262-0.121,4.119c0,0.385,0.124,0.684,0.316,0.912c0.154,0.322,0.437,0.596,0.871,0.734
			c2.006,0.635,2.653,0.881,4.748,0.654c0.348-0.033,0.63-0.17,0.848-0.357c0.56-0.156,1.046-0.598,1.091-1.338
			c0.121-1.936,0.233-2.42,0.241-4.361c0.001-0.326-0.088-0.59-0.232-0.805C93.881,54.322,93.438,53.865,92.694,53.865z
			 M91.184,58.889c-1.214,0.043-0.941-0.076-2.118-0.359c0.003-1.072,0.024-0.686,0.06-1.76h2.208
			C91.304,57.963,91.253,57.699,91.184,58.889z"/>
		<path fill="#1ABC9C" d="M90.975,52.359c2.005,0.631,2.654,0.879,4.748,0.654c0.348-0.035,0.628-0.172,0.848-0.361
			c0.559-0.156,1.045-0.596,1.09-1.33c0.12-1.94,0.233-10.418,0.243-12.362c0.001-0.326-0.091-0.591-0.233-0.805
			c-0.153-0.553-0.599-1.011-1.341-1.011H91.36c-0.643,0-1.061,0.344-1.263,0.795c-0.105,0.184-0.176,0.401-0.19,0.656
			c-0.109,1.858-0.121,10.257-0.121,12.117c0,0.382,0.124,0.683,0.318,0.906C90.257,51.949,90.539,52.219,90.975,52.359z
			 M92.759,40.051h2.21c-0.028,1.19-0.08,8.924-0.15,10.112c-1.212,0.045-0.94-0.075-2.119-0.358
			C92.704,48.733,92.724,41.122,92.759,40.051z"/>
		<path fill="#1ABC9C" d="M83.243,53.865H57.195c-0.645,0-1.062,0.344-1.262,0.795c-0.105,0.184-0.178,0.404-0.191,0.656
			c-0.108,1.857-0.12,1.535-0.12,3.393c0,0.385,0.122,0.684,0.315,0.912c0.153,0.324,0.437,0.598,0.871,0.734
			c2.006,0.633,23.735,0.881,25.829,0.66c0.348-0.041,0.63-0.172,0.85-0.365c0.56-0.152,1.044-0.596,1.089-1.334
			c0.121-1.938,0.233-1.693,0.242-3.637c0.002-0.326-0.09-0.59-0.233-0.805C84.432,54.322,83.987,53.865,83.243,53.865z
			 M81.734,58.162c-1.213,0.045-22.023-0.078-23.2-0.361c0.003-1.07,0.023,0.043,0.059-1.031h23.292
			C81.855,57.963,81.803,56.971,81.734,58.162z"/>
	</g>
</g>
<g id="laptop02">
	<g>
		<path fill-rule="evenodd" clip-rule="evenodd" fill="#1ABC9C" d="M230.675,66.133c-0.745-1.83-1.504-3.656-2.257-5.482
			c-0.771-0.973-1.155-2.15-1.728-3.225c-0.757-1.426-1.916-2.275-3.589-2.285c-0.218-0.002-0.43-0.014-0.643-0.018
			c-2.031-0.033-4.053-0.057-6.087-0.23c-3.245-0.275-6.505-0.484-9.776-0.418c-1.336,0.031-2.676-0.002-4.015-0.018
			c-0.37-0.006-0.758,0.006-1.109-0.094c-1.089-0.305-2.202-0.4-3.319-0.449c-1.496-0.062-2.995-0.082-4.494-0.115v0.033
			c-1.393,0-2.786-0.045-4.174,0.012c-1.387,0.059-2.771,0.203-4.151,0.338c-0.963,0.094-1.854,0.451-2.744,0.818
			c-0.729,0.295-1.249,0.787-1.677,1.426c-0.686,1.018-1.422,2.006-2.066,3.053c-0.87,1.408-1.738,2.826-2.492,4.297
			c-1.126,2.203-1.117,2.453-1.128,4.922c-0.002,0.66,0.139,1.275,0.332,1.883c0.229,0.719,0.715,1.201,1.521,1.197
			c1.03-0.008,2.003,0.279,2.988,0.523c0.308,0.078,0.623,0.152,0.938,0.164c1.177,0.037,2.354,0.064,3.532,0.07
			c0.747,0.002,1.518,0.066,2.241-0.08c1.803-0.369,3.618-0.312,5.433-0.305c0.961,0.002,1.922,0.096,2.881,0.166
			c0.692,0.049,1.383,0.203,2.072,0.188c2.139-0.051,4.273-0.168,6.411-0.24c0.749-0.025,1.508-0.076,2.243,0.021
			c1.656,0.223,3.297,0.201,4.952,0.01c0.79-0.092,1.606-0.086,2.401-0.021c2.067,0.17,4.121,0.648,6.214,0.221
			c0.307-0.062,0.639-0.021,0.962-0.021c1.124,0.006,2.246,0.018,3.372,0.014c1.017,0,2.035,0.023,3.049-0.033
			c1.074-0.059,2.125-0.254,2.998-0.973c0.258-0.211,0.433-0.447,0.501-0.785c0.179-0.889,0.413-1.768,0.562-2.662
			C230.935,67.398,230.924,66.744,230.675,66.133z M227.455,67.637c-0.156,0.039-0.313,0.059-0.473,0.086
			c-2.321,0.404-4.661,0.736-7.014,0.527c-2.18-0.189-4.342-0.57-6.513-0.852c-0.53-0.066-1.068-0.1-1.601-0.105
			c-1.716-0.02-3.435,0.051-5.143-0.047c-2.678-0.156-5.342,0.16-8.015,0.111c-0.267-0.006-0.548-0.02-0.8,0.051
			c-1.16,0.32-2.339,0.209-3.515,0.211c-0.267,0.002-0.558,0.039-0.797-0.047c-1.046-0.379-2.116-0.24-3.182-0.221
			c-0.912,0.016-1.823,0.004-2.733,0.037c-0.96,0.037-1.918,0.145-2.879,0.17c-1.553,0.045-3.105,0.062-4.658,0.059
			c-0.301-0.002-0.619-0.137-0.898-0.273c-0.837-0.4-0.945-0.662-0.711-1.508c0.1-0.357,0.182-0.719,0.277-1.078
			c0.07-0.258,0.097-0.549,0.238-0.762c0.667-0.979,1.039-2.111,1.642-3.115c0.574-0.953,1.28-1.832,1.94-2.736
			c0.368-0.498,0.838-0.775,1.502-0.756c1.07,0.027,2.142-0.006,3.194-0.258c0.204-0.053,0.425-0.035,0.641-0.037
			c2.945-0.053,5.892-0.098,8.838-0.146v0.086c2.515,0.014,5.034,0.018,7.55,0.051c0.749,0.01,1.492,0.123,2.24,0.15
			c1.229,0.049,2.463,0.076,3.692,0.09c1.177,0.016,2.353,0.006,3.516,0.254c0.521,0.109,1.069,0.064,1.603,0.111
			c0.744,0.066,1.487,0.174,2.23,0.225c0.693,0.051,1.391,0.059,2.088,0.072c0.854,0.012,1.712-0.012,2.57,0.016
			c0.367,0.014,0.74,0.096,1.098,0.189c0.546,0.146,0.956,0.48,1.172,1.018c0.377,0.945,0.967,1.783,1.428,2.676
			c0.753,1.471,1.289,3.047,1.904,4.582c0.059,0.146,0.05,0.318,0.069,0.477C227.996,67.32,227.841,67.541,227.455,67.637z
			 M180.664,41.033c0.028,2.085,0.03,4.175,0.077,6.261c0.016,0.743,0.091,1.492,0.205,2.228c0.342,2.18,1.997,3.631,4.153,3.696
			c1.172,0.031,2.355-0.105,3.51,0.24c0.145,0.045,0.338,0.047,0.475-0.014c1.012-0.434,2.129-0.16,3.157-0.477
			c1.818-0.004,3.641-0.074,5.456,0.008c1.543,0.072,3.075,0.373,4.62,0.467c2.614,0.162,5.235,0.24,7.853,0.346
			c1.336,0.053,2.684,0,4.012,0.145c1.278,0.139,2.562,0.143,3.84,0.217c1.364,0.08,2.651-0.221,3.927-0.627
			c0.875-0.275,1.664-0.729,2.393-1.277c0.211-0.158,0.427-0.348,0.546-0.572c0.708-1.327,1.269-2.719,1.442-4.221
			c0.186-1.594,0.299-3.19,0.247-4.804c-0.053-1.709-0.01-3.422-0.01-5.136h0.079c0-2.088-0.048-4.176,0.013-6.262
			c0.048-1.846-0.339-3.609-0.784-5.371c-0.091-0.359-0.249-0.705-0.403-1.045c-0.487-1.076-1.27-1.829-2.424-2.174
			c-1.132-0.339-2.277-0.599-3.464-0.564c-2.245,0.064-4.489,0.163-6.733,0.224c-1.551,0.044-3.106,0.11-4.653,0.058
			c-3.854-0.136-7.707-0.049-11.559,0c-0.214,0.003-0.431,0.006-0.642,0.039c-2.017,0.323-4.053,0.282-6.084,0.304
			c-0.906,0.008-1.808-0.069-2.707,0.197c-0.448,0.135-0.955,0.069-1.438,0.087c-0.428,0.014-0.859-0.017-1.281,0.028
			c-1.625,0.17-3.126,1.544-3.444,3.132c-0.22,1.104-0.36,2.212-0.359,3.342c0,0.802-0.036,1.607-0.129,2.399
			c-0.238,2.032-0.188,4.066-0.056,6.089C180.564,39.005,180.651,40.018,180.664,41.033z M183.646,33.638
			c0.056-1.441,0.166-2.884,0.295-4.319c0.061-0.688,0.214-1.371,0.343-2.052c0.097-0.512,0.386-0.886,0.898-1.035
			c0.769-0.22,1.536-0.482,2.322-0.606c2.812-0.449,5.644-0.51,8.483-0.266c0.264,0.023,0.532,0.092,0.793,0.07
			c4.006-0.331,8.027-0.24,12.039-0.285c2.562-0.032,5.114-0.227,7.676-0.233c1.016-0.001,2.037-0.059,3.052,0.007
			c1.757,0.11,3.667,1.179,4.104,3.229c0.198,0.933,0.492,1.843,0.26,2.84c-0.143,0.614-0.069,1.281-0.072,1.922
			c-0.011,4.125-0.045,8.25-0.008,12.373c0.014,1.227-0.325,2.304-0.878,3.364c-0.491,0.938-1.215,1.619-2.127,2.126
			c-0.567,0.312-1.141,0.537-1.822,0.507c-1.014-0.047-2.03-0.014-3.047-0.014c-0.003,0.031-0.003,0.059-0.005,0.088
			c-1.653-0.111-3.307-0.27-4.963-0.33c-2.032-0.076-4.069-0.076-6.104-0.105c-0.749-0.011-1.503,0.053-2.231-0.194
			c-0.049-0.016-0.103-0.021-0.155-0.023c-3.048-0.091-6.076-0.632-9.137-0.388c-0.48,0.036-0.958,0.084-1.437,0.146
			c-1.978,0.241-3.945,0.218-5.898-0.201c-0.414-0.09-0.83-0.231-1.203-0.429c-0.269-0.143-0.539-0.376-0.688-0.637
			c-0.453-0.792-0.796-1.634-0.815-2.573c-0.011-0.533-0.051-1.07-0.027-1.604C183.46,41.225,183.499,37.431,183.646,33.638z
			 M207.033,60.908c-0.695-0.031-1.389-0.037-2.082-0.059c-0.53-0.016-1.087,0.049-1.592-0.078c-1.9-0.482-3.702-0.037-5.502,0.486
			c-0.144,0.043-0.303,0.137-0.389,0.256c-0.647,0.889-0.997,1.881-0.97,2.988c0.017,0.639,0.456,1.062,0.822,1.52
			c0.309,0.377,0.759,0.338,1.185,0.338c1.068,0.004,2.137,0.004,3.204,0.004v-0.086c0.695,0,1.39,0.016,2.084-0.006
			c1.439-0.041,2.877-0.094,4.315-0.156c0.458-0.02,0.764-0.26,0.812-0.627c0.168-1.305,0.004-2.559-0.62-3.729
			C208.031,61.258,207.621,60.934,207.033,60.908z M206.266,64.809c-0.637,0.016-1.275,0.004-1.913,0.004
			c-0.003,0.021-0.008,0.047-0.011,0.07c-1.053-0.121-2.105-0.26-3.16-0.355c-0.58-0.049-1.168-0.02-1.753-0.037
			c-0.23-0.004-0.396-0.113-0.438-0.355c-0.069-0.385,0.054-0.785,0.268-0.852c0.149-0.045,0.306-0.088,0.462-0.096
			c1.856-0.09,3.715-0.176,5.571-0.26c0.268-0.012,0.536-0.006,0.798,0.021c0.331,0.027,0.569,0.262,0.639,0.611
			c0.043,0.209,0.062,0.422,0.075,0.633C206.824,64.588,206.647,64.803,206.266,64.809z M196.356,45.442
			c0.094,0.174,0.043,0.422,0.08,0.631c0.134,0.76,0.38,0.993,1.171,1.023c0.803,0.03,1.606,0.011,2.409,0.022
			c0.745,0.01,1.497,0.003,2.244,0.06c0.795,0.059,1.585,0.181,2.378,0.275c1.482,0.135,2.865-0.338,4.268-0.649
			c0.954-0.212,1.287-0.566,1.374-1.505c0.117-1.275,0.179-2.557,0.279-3.835c0.053-0.636,0.175-1.268,0.211-1.903
			c0.045-0.743,0.164-1.518,0.011-2.229c-0.245-1.143-0.039-1.504-1.575-1.503c-0.161,0-0.32-0.019-0.481-0.04
			c-0.48-0.064-0.771-0.376-0.886-0.814c-0.094-0.357-0.104-0.736-0.136-1.111c-0.135-1.569-0.906-2.826-1.968-3.932
			c-0.588-0.612-1.25-0.961-2.155-0.644c-0.39,0.139-0.852,0.046-1.269,0.133c-1,0.211-1.976,0.555-2.664,1.341
			c-0.979,1.116-1.526,2.435-1.549,3.943c-0.004,0.32,0.011,0.644,0.002,0.963c-0.011,0.407-0.145,0.593-0.522,0.69
			c-0.311,0.083-0.634,0.113-0.939,0.202c-0.43,0.128-0.778,0.36-0.842,0.859c-0.088,0.687-0.234,1.372-0.249,2.058
			c-0.025,1.113-0.145,2.247,0.291,3.323C195.793,43.724,195.913,44.609,196.356,45.442z M205.435,40.501
			c-0.047,0.432-0.424,0.588-0.777,0.726c-0.286,0.109-0.408,0.312-0.414,0.61c-0.005,0.373,0,0.751-0.04,1.123
			c-0.064,0.623-0.417,0.93-1.063,0.963c-0.105,0.007-0.215,0.007-0.318-0.002c-0.479-0.031-0.785-0.322-0.824-0.814
			c-0.022-0.32-0.026-0.644-0.005-0.963c0.028-0.445-0.052-0.835-0.351-1.189c-0.581-0.689-0.377-1.406,0.018-2.089
			c0.393-0.671,1.026-0.9,1.68-0.865c0.938,0.013,1.814,0.596,2.051,1.395C205.494,39.738,205.474,40.136,205.435,40.501z
			 M200.677,34.66c0.037-0.476,0.209-0.944,0.228-1.42c0.032-0.78,0.487-1.123,1.155-1.34c0.624-0.202,1.24-0.329,1.867-0.041
			c0.85,0.393,1.391,0.986,1.261,1.999c-0.013,0.105-0.003,0.213-0.003,0.322c0.003,0,0.003,0,0.005,0c0,0.16,0.002,0.319,0,0.481
			c-0.015,0.779-0.078,0.856-0.793,0.879c-0.48,0.019-0.964,0.005-1.445,0.023c-0.427,0.015-0.859,0.014-1.276,0.096
			C200.749,35.839,200.591,35.803,200.677,34.66z M199.162,43.329l0.039,0.086l-0.097-0.012L199.162,43.329z"/>
	</g>
</g>
<g>
	<g>
		<path fill="#1ABC9C" d="M355.238,37.541c-3.327,0-6.47,1.067-9.122,3.094c-2.046-8.575-10.132-14.736-19.465-14.736
			c-0.755,0-1.519,0.042-2.272,0.125c-5.345,0.582-9.547,3.493-11.828,8.196c-2.399,4.939-2.159,10.915,0.595,15.764
			c-6.091-0.118-10.792,3.88-11.593,9.884c-0.372,2.787,0.315,5.199,2.044,7.174c2.897,3.311,7.958,4.49,11.729,4.49
			c0.866,0,1.715-0.061,2.468-0.168c0.07,0.008,0.143,0.016,0.218,0.016c12.729,0,27.156,0,41.377-0.195
			c0.14-0.002,0.279-0.018,0.428-0.051c0.2,0.027,0.409,0.029,0.637-0.01c4.721-0.82,8.489-3.479,10.608-7.482
			c2.391-4.514,2.426-10.279,0.1-15.414C368.266,41.835,361.865,37.541,355.238,37.541z M317.281,54.469
			c0.892,0.143,1.838-0.43,2.183-1.295c0.276-0.703,0.099-1.445-0.472-1.986c-3.983-3.758-5.327-9.086-3.512-13.903
			c1.711-4.523,5.77-7.331,10.863-7.511c8.952-0.31,16.373,6.608,16.39,15.15c0.004,1.243,0.979,1.891,1.943,1.891
			c0.867,0,1.578-0.476,1.837-1.229c2.432-2.717,5.5-4.151,8.873-4.151c5.271,0,10.289,3.595,12.479,8.942
			c1.641,4.001,1.556,8.171-0.231,11.439c-1.603,2.92-4.351,4.822-7.952,5.496c-0.09-0.012-0.185-0.02-0.3-0.02l0,0
			c-14.218,0.197-28.642,0.197-41.368,0.197c-0.137,0-0.271,0.014-0.408,0.041c-0.147-0.012-0.298-0.004-0.46,0.018
			c-0.749,0.119-1.525,0.182-2.31,0.182c-4.326,0-9.394-1.893-9.434-7.223c-0.012-1.723,0.587-3.236,1.726-4.381
			c1.397-1.408,3.535-2.221,5.864-2.221c0.873,0,1.731,0.117,2.543,0.346c0.14,0.041,0.285,0.062,0.442,0.07
			C316.37,54.518,316.808,54.576,317.281,54.469z"/>
	</g>
</g>
<g>
	<g>
		<path fill="#1ABC9C" d="M333.806,59.838c-0.891-1.701-1.628-3.48-2.558-5.166c-0.002-0.002-0.004-0.004-0.006-0.01
			c1.003-1.725,1.673-3.605,2.51-5.412c0.129-0.274-0.151-0.524-0.366-0.47c-0.002,0-0.005,0-0.008,0
			c-0.729-0.052-1.461-0.058-2.191-0.104c-0.141-0.01-0.229,0.06-0.271,0.155c-0.037,0.024-0.074,0.059-0.103,0.104
			c-1.13,1.809-2.181,3.667-3.392,5.425c-0.049,0.07-0.062,0.139-0.051,0.201c-0.011,0.062,0.002,0.131,0.051,0.205
			c1.211,1.758,2.262,3.615,3.392,5.424c0.028,0.049,0.065,0.082,0.103,0.104c0.043,0.098,0.132,0.168,0.271,0.156
			c0.73-0.049,1.463-0.051,2.191-0.102c0.05-0.008,0.091-0.018,0.128-0.037C333.716,60.314,333.935,60.09,333.806,59.838z
			 M331.318,59.818c-1.093-1.754-2.115-3.549-3.28-5.256c1.165-1.707,2.188-3.502,3.28-5.255c0.562,0.035,1.128,0.048,1.691,0.077
			c-0.772,1.727-1.431,3.502-2.405,5.133c-0.093,0.154-0.036,0.301,0.072,0.389c0.008,0.027,0.016,0.057,0.032,0.084
			c0.852,1.547,1.547,3.174,2.344,4.75C332.475,59.771,331.896,59.783,331.318,59.818z"/>
		<path fill="#1ABC9C" d="M346.912,54.361c-1.209-1.76-2.261-3.617-3.39-5.425c-0.029-0.046-0.064-0.08-0.104-0.104
			c-0.043-0.097-0.133-0.166-0.271-0.155c-0.729,0.046-1.462,0.052-2.191,0.104c-0.003,0-0.006,0-0.008,0
			c-0.216-0.055-0.497,0.195-0.368,0.47c0.839,1.808,1.509,3.687,2.514,5.412c-0.005,0.006-0.007,0.008-0.009,0.016
			c-0.927,1.68-1.666,3.459-2.557,5.16c-0.129,0.252,0.089,0.477,0.299,0.475c0.037,0.02,0.079,0.029,0.129,0.037
			c0.728,0.051,1.462,0.053,2.191,0.102c0.139,0.012,0.229-0.059,0.271-0.156c0.039-0.021,0.074-0.055,0.104-0.104
			c1.129-1.809,2.181-3.666,3.39-5.424c0.049-0.07,0.062-0.143,0.051-0.205C346.974,54.5,346.961,54.432,346.912,54.361z
			 M343.018,59.818c-0.58-0.035-1.158-0.047-1.737-0.078c0.799-1.576,1.493-3.203,2.346-4.75c0.016-0.027,0.026-0.057,0.03-0.084
			c0.109-0.088,0.168-0.234,0.074-0.389c-0.976-1.631-1.634-3.406-2.407-5.133c0.565-0.029,1.13-0.042,1.694-0.077
			c1.092,1.755,2.112,3.548,3.278,5.255C345.13,56.27,344.109,58.064,343.018,59.818z"/>
		<path fill="#1ABC9C" d="M339.914,46.014c-0.012-0.002-0.023-0.005-0.039-0.005l-1.817-0.06c-0.222-0.009-0.333,0.166-0.33,0.341
			c-0.582,2.217-1.063,4.462-1.542,6.704c-0.481,2.254-0.964,4.504-1.52,6.742c-0.155,0.625-0.317,1.248-0.491,1.867
			c-0.071,0.26-0.114,0.545-0.245,0.781c-0.128,0.23-0.308,0.623,0.135,0.637c0.756,0.021,1.508-0.006,2.263-0.035
			c0.015,0,0.03-0.006,0.044-0.006c0.142,0.02,0.29-0.043,0.336-0.225c1.422-5.379,2.549-10.846,3.584-16.312
			C340.341,46.184,340.11,46.006,339.914,46.014z M336.135,62.334c-0.495,0.016-0.989,0.033-1.485,0.033
			c1.472-5.188,2.333-10.531,3.676-15.747l1.254,0.041C338.58,51.914,337.491,57.16,336.135,62.334z"/>
	</g>
</g>
</svg>
