<?xml version="1.0" encoding="utf-8"?>
<!-- Generator: Adobe Illustrator 16.0.0, SVG Export Plug-In . SVG Version: 6.00 Build 0)  -->
<!DOCTYPE svg PUBLIC "-//W3C//DTD SVG 1.1//EN" "http://www.w3.org/Graphics/SVG/1.1/DTD/svg11.dtd">
<svg version="1.1" id="图层_1" xmlns="http://www.w3.org/2000/svg" xmlns:xlink="http://www.w3.org/1999/xlink" x="0px" y="0px"
	 width="162px" height="162px" viewBox="0 0 162 162" enable-background="new 0 0 162 162" xml:space="preserve">
<g>
	<g>
		<polygon fill="#204056" points="2,11 0,11 0,0 11,0 11,2 2,2 		"/>
	</g>
	<g>
		<polygon fill="#204056" points="11,162 0,162 0,151 2,151 2,160 11,160 		"/>
	</g>
	<g>
		<polygon fill="#204056" points="162,162 151,162 151,160 160,160 160,151 162,151 		"/>
	</g>
	<g>
		<polygon fill="#204056" points="162,11 160,11 160,2 151,2 151,0 162,0 		"/>
	</g>
</g>
<g>
	<g>
		<polygon fill="#E4E5E6" points="69.684,110.974 71,101 91,101 92.317,110.974 92.317,124.688 69.684,124.688 		"/>
	</g>
	<g>
		<path fill="#204056" d="M142,102H20V30h122V102z M22,100h118V32H22V100z"/>
	</g>
	<g>
		<polygon fill="#204056" points="81,32.414 70.293,21.707 71.708,20.293 81,29.586 100.293,10.293 101.707,11.707 		"/>
	</g>
	<g>
		<rect x="26" y="36" fill="#2FB18A" width="110" height="60"/>
	</g>
	<g>
		<g>
			<path fill="#FEFFFF" d="M32.21,46.708l-1.414-1.414c4.288-4.288,11.267-4.289,15.556,0l-1.414,1.414
				C41.429,43.2,35.719,43.2,32.21,46.708z"/>
		</g>
		<g>
			<path fill="#FEFFFF" d="M88.778,46.708l-1.414-1.414c4.288-4.288,11.267-4.289,15.556,0l-1.414,1.414
				C97.998,43.2,92.288,43.2,88.778,46.708z"/>
		</g>
		<g>
			<path fill="#FEFFFF" d="M60.494,46.708l-1.414-1.414c4.288-4.288,11.267-4.289,15.556,0l-1.414,1.414
				C69.713,43.2,64.003,43.2,60.494,46.708z"/>
		</g>
		<g>
			<path fill="#FEFFFF" d="M52.716,49.923c-2.817,0-5.633-1.072-7.778-3.216l1.414-1.414c3.51,3.509,9.22,3.509,12.728,0
				l1.414,1.414C58.35,48.851,55.532,49.923,52.716,49.923z"/>
		</g>
		<g>
			<path fill="#FEFFFF" d="M129.791,46.708c-3.51-3.509-9.22-3.509-12.729,0l-1.414-1.414c4.288-4.289,11.268-4.289,15.557,0
				L129.791,46.708z"/>
		</g>
		<g>
			<path fill="#FEFFFF" d="M109.285,49.923c-2.817,0-5.635-1.072-7.779-3.216l1.414-1.414c3.51,3.509,9.22,3.509,12.729,0
				l1.414,1.414C114.918,48.851,112.102,49.923,109.285,49.923z"/>
		</g>
		<g>
			<path fill="#FEFFFF" d="M81,49.923c-2.817,0-5.633-1.072-7.778-3.216l1.414-1.414c3.51,3.509,9.219,3.509,12.728,0l1.414,1.414
				C86.635,48.851,83.816,49.923,81,49.923z"/>
		</g>
	</g>
	<g>
		<g>
			<path fill="#FEFFFF" d="M32.21,59.638l-1.414-1.414c4.288-4.289,11.267-4.289,15.556,0l-1.414,1.414
				C41.429,56.13,35.719,56.131,32.21,59.638z"/>
		</g>
		<g>
			<path fill="#FEFFFF" d="M88.778,59.638l-1.414-1.414c4.288-4.289,11.267-4.289,15.556,0l-1.414,1.414
				C97.998,56.13,92.288,56.131,88.778,59.638z"/>
		</g>
		<g>
			<path fill="#FEFFFF" d="M60.494,59.638l-1.414-1.414c4.288-4.289,11.267-4.289,15.556,0l-1.414,1.414
				C69.713,56.13,64.003,56.131,60.494,59.638z"/>
		</g>
		<g>
			<path fill="#FEFFFF" d="M52.716,62.854c-2.817,0-5.633-1.072-7.778-3.216l1.414-1.414c3.51,3.509,9.22,3.508,12.728,0
				l1.414,1.414C58.35,61.781,55.532,62.854,52.716,62.854z"/>
		</g>
		<g>
			<path fill="#FEFFFF" d="M129.791,59.638c-3.51-3.509-9.22-3.509-12.729,0l-1.414-1.414c4.288-4.289,11.268-4.289,15.557,0
				L129.791,59.638z"/>
		</g>
		<g>
			<path fill="#FEFFFF" d="M109.285,62.854c-2.817,0-5.635-1.072-7.779-3.216l1.414-1.414c3.51,3.509,9.22,3.509,12.729,0
				l1.414,1.414C114.918,61.782,112.102,62.854,109.285,62.854z"/>
		</g>
		<g>
			<path fill="#FEFFFF" d="M81,62.854c-2.817,0-5.633-1.072-7.778-3.216l1.414-1.414c3.51,3.509,9.219,3.508,12.728,0l1.414,1.414
				C86.635,61.781,83.816,62.854,81,62.854z"/>
		</g>
	</g>
	<g>
		<g>
			<path fill="#FEFFFF" d="M32.21,72.569l-1.414-1.414c4.288-4.289,11.267-4.289,15.556,0l-1.414,1.414
				C41.429,69.061,35.719,69.062,32.21,72.569z"/>
		</g>
		<g>
			<path fill="#FEFFFF" d="M88.778,72.569l-1.414-1.414c4.288-4.289,11.267-4.289,15.556,0l-1.414,1.414
				C97.998,69.061,92.288,69.062,88.778,72.569z"/>
		</g>
		<g>
			<path fill="#FEFFFF" d="M60.494,72.569l-1.414-1.414c4.288-4.289,11.267-4.289,15.556,0l-1.414,1.414
				C69.713,69.061,64.003,69.062,60.494,72.569z"/>
		</g>
		<g>
			<path fill="#FEFFFF" d="M52.716,75.784c-2.817,0-5.633-1.072-7.778-3.216l1.414-1.414c3.51,3.509,9.22,3.508,12.728,0
				l1.414,1.414C58.35,74.712,55.532,75.784,52.716,75.784z"/>
		</g>
		<g>
			<path fill="#FEFFFF" d="M129.791,72.569c-3.51-3.509-9.22-3.509-12.729,0l-1.414-1.414c4.288-4.289,11.268-4.289,15.557,0
				L129.791,72.569z"/>
		</g>
		<g>
			<path fill="#FEFFFF" d="M109.285,75.784c-2.817,0-5.635-1.072-7.779-3.216l1.414-1.414c3.51,3.509,9.22,3.509,12.729,0
				l1.414,1.414C114.918,74.712,112.102,75.784,109.285,75.784z"/>
		</g>
		<g>
			<path fill="#FEFFFF" d="M81,75.784c-2.817,0-5.633-1.072-7.778-3.216l1.414-1.414c3.51,3.509,9.219,3.508,12.728,0l1.414,1.414
				C86.635,74.712,83.816,75.784,81,75.784z"/>
		</g>
	</g>
	<g>
		<g>
			<path fill="#FEFFFF" d="M32.21,85.5l-1.414-1.414c4.288-4.289,11.267-4.29,15.556,0L44.938,85.5
				C41.429,81.992,35.719,81.992,32.21,85.5z"/>
		</g>
		<g>
			<path fill="#FEFFFF" d="M88.778,85.5l-1.414-1.414c4.288-4.289,11.267-4.29,15.556,0l-1.414,1.414
				C97.998,81.992,92.288,81.992,88.778,85.5z"/>
		</g>
		<g>
			<path fill="#FEFFFF" d="M60.494,85.5l-1.414-1.414c4.288-4.289,11.267-4.29,15.556,0L73.222,85.5
				C69.713,81.992,64.003,81.992,60.494,85.5z"/>
		</g>
		<g>
			<path fill="#FEFFFF" d="M52.716,88.715c-2.817,0-5.633-1.072-7.778-3.217l1.414-1.414c3.51,3.51,9.22,3.51,12.728,0l1.414,1.414
				C58.35,87.643,55.532,88.715,52.716,88.715z"/>
		</g>
		<g>
			<path fill="#FEFFFF" d="M129.791,85.5c-3.51-3.509-9.22-3.509-12.729,0l-1.414-1.414c4.288-4.29,11.268-4.29,15.557,0
				L129.791,85.5z"/>
		</g>
		<g>
			<path fill="#FEFFFF" d="M109.285,88.715c-2.817,0-5.635-1.072-7.779-3.217l1.414-1.414c3.51,3.51,9.22,3.51,12.729,0l1.414,1.414
				C114.918,87.643,112.102,88.715,109.285,88.715z"/>
		</g>
		<g>
			<path fill="#FEFFFF" d="M81,88.715c-2.817,0-5.633-1.072-7.778-3.217l1.414-1.414c3.51,3.51,9.219,3.51,12.728,0l1.414,1.414
				C86.635,87.643,83.816,88.715,81,88.715z"/>
		</g>
	</g>
	<g>
		<path fill="#46B898" d="M35.733,151l11.316-34.309l22.634-5.718c0,0,2.642,5.718,11.317,5.718s11.317-5.718,11.317-5.718
			l22.634,5.718L126.268,151H35.733z"/>
	</g>
	<g>
		<g>
			<path fill="#204056" d="M44.593,146.968l-0.117-1.996c0.639-0.038,1.28-0.112,1.905-0.222l0.347,1.969
				C46.027,146.842,45.309,146.926,44.593,146.968z M40.309,146.726c-0.704-0.122-1.408-0.288-2.094-0.491l0.57-1.918
				c0.611,0.182,1.239,0.33,1.866,0.438L40.309,146.726z M50.841,145.486l-0.794-1.836c0.585-0.253,1.161-0.543,1.711-0.862
				l1.003,1.73C52.144,144.877,51.498,145.202,50.841,145.486z M34.27,144.535c-0.621-0.357-1.226-0.755-1.798-1.181l1.193-1.604
				c0.511,0.379,1.05,0.734,1.604,1.053L34.27,144.535z M56.202,141.951l-1.374-1.453c0.465-0.439,0.908-0.908,1.316-1.396
				l1.532,1.287C57.218,140.934,56.722,141.46,56.202,141.951z M29.346,140.414c-0.461-0.548-0.894-1.127-1.288-1.723l1.669-1.103
				c0.351,0.531,0.737,1.048,1.148,1.536L29.346,140.414z M60.037,136.803l-1.787-0.898c0.287-0.57,0.542-1.162,0.761-1.762
				l1.879,0.684C60.645,135.498,60.358,136.164,60.037,136.803z M26.123,134.859c-0.246-0.673-0.455-1.366-0.62-2.061l1.945-0.463
				c0.147,0.619,0.333,1.236,0.552,1.836L26.123,134.859z M61.877,130.646l-1.986-0.23c0.073-0.63,0.11-1.274,0.11-1.915
				l1.416-0.049L62,128.479C62,129.217,61.959,129.939,61.877,130.646z M25,128.535V128.5c0-0.705,0.04-1.416,0.119-2.109
				l1.987,0.227C27.036,127.236,27,127.869,27,128.5L25,128.535z M59.545,124.632c-0.149-0.62-0.336-1.237-0.556-1.834l1.877-0.691
				c0.247,0.67,0.457,1.362,0.624,2.059L59.545,124.632z M27.979,122.889l-1.881-0.68c0.242-0.671,0.528-1.336,0.849-1.979
				l1.789,0.895C28.45,121.697,28.195,122.291,27.979,122.889z M57.256,119.384c-0.353-0.53-0.74-1.046-1.152-1.533l1.526-1.292
				c0.462,0.546,0.896,1.124,1.292,1.719L57.256,119.384z M30.835,117.924l-1.534-1.283c0.458-0.547,0.953-1.074,1.472-1.566
				l1.376,1.451C31.686,116.965,31.244,117.436,30.835,117.924z M53.31,115.23c-0.513-0.379-1.054-0.732-1.606-1.051l0.996-1.734
				c0.619,0.356,1.225,0.752,1.799,1.178L53.31,115.23z M35.214,114.229l-1.006-1.729c0.619-0.36,1.264-0.688,1.918-0.971
				l0.797,1.834C36.341,113.616,35.766,113.907,35.214,114.229z M48.184,112.674c-0.609-0.18-1.237-0.326-1.866-0.435l0.338-1.971
				c0.707,0.121,1.412,0.285,2.096,0.487L48.184,112.674z M40.587,112.256l-0.351-1.969c0.703-0.125,1.421-0.21,2.135-0.252
				l0.119,1.996C41.854,112.068,41.213,112.145,40.587,112.256z"/>
		</g>
		<g>
			<polygon fill="#E4E5E6" points="38.125,122.125 38.125,134.875 50.875,128.5 			"/>
		</g>
	</g>
	<g>
		<circle fill="#E4E5E6" cx="138.125" cy="113.875" r="2.875"/>
	</g>
	<g>
		<circle fill="#E4E5E6" cx="41" cy="21" r="2.875"/>
	</g>
	<g>
		<circle fill="#C4C4C4" cx="126" cy="16" r="5"/>
	</g>
	<g>
		<circle fill="#C4C4C4" cx="131" cy="131" r="5"/>
	</g>
</g>
</svg>
