<?xml version="1.0" encoding="utf-8"?>
<!-- Generator: Adobe Illustrator 16.0.0, SVG Export Plug-In . SVG Version: 6.00 Build 0)  -->
<!DOCTYPE svg PUBLIC "-//W3C//DTD SVG 1.1//EN" "http://www.w3.org/Graphics/SVG/1.1/DTD/svg11.dtd">
<svg version="1.1" id="图层_1" xmlns="http://www.w3.org/2000/svg" xmlns:xlink="http://www.w3.org/1999/xlink" x="0px" y="0px"
	 width="140px" height="29.79px" viewBox="0 0 140 29.79" enable-background="new 0 0 140 29.79" xml:space="preserve">
<path id="header-beamery-logo" fill="#36AB9D" d="M14.925,0.003L14.925,0.003c-8.25,0-15,6.794-15,15.098
	c0,7.021,4.827,12.962,11.305,14.63c1.147,0.295,2.257-0.609,2.257-1.801v-5.686c0-1.351-1.619-2.023-2.565-1.068L10.9,21.197
	c-0.506,0.513-1.322,0.644-1.906,0.224c-0.742-0.529-0.805-1.586-0.188-2.205l0.086-0.086c0.946-0.951,0.276-2.582-1.062-2.582
	H4.348c-0.717,0-1.385-0.486-1.504-1.197c-0.151-0.903,0.545-1.694,1.417-1.694h3.568c1.338,0,2.009-1.628,1.062-2.581l-2.462-2.48
	c-0.507-0.51-0.636-1.331-0.221-1.918c0.529-0.746,1.576-0.81,2.192-0.19l2.523,2.54c0.946,0.953,2.564,0.278,2.564-1.069V7.857
	c0-0.877,0.785-1.578,1.683-1.426c0.707,0.119,1.191,0.792,1.191,1.514v0.013c0,1.347,1.617,2.022,2.564,1.069l2.461-2.478
	c0.508-0.51,1.323-0.641,1.906-0.222c0.742,0.532,0.805,1.586,0.188,2.206l-2.523,2.54c-0.946,0.953-0.276,2.581,1.062,2.581H21.61
	c0.709,0,1.373,0.476,1.5,1.178c0.165,0.913-0.535,1.713-1.414,1.713h0.323c-1.339,0-2.009,1.629-1.062,2.582l2.755,2.771
	c0.506,0.513,0.637,1.332,0.221,1.92c-0.528,0.746-1.576,0.81-2.191,0.188l-2.816-2.836c-0.947-0.95-2.564-0.276-2.564,1.069v5.688
	c0,1.19,1.11,2.096,2.257,1.801c6.479-1.668,11.306-7.606,11.306-14.628C29.925,6.798,23.175,0.003,14.925,0.003L14.925,0.003
	L14.925,0.003z M16.35,2.688c0,0.792-0.638,1.435-1.425,1.435c-0.787,0-1.425-0.644-1.425-1.435c0-0.792,0.638-1.435,1.425-1.435
	C15.712,1.253,16.35,1.896,16.35,2.688L16.35,2.688L16.35,2.688z M28.116,14.801c0,0.792-0.638,1.433-1.425,1.433
	s-1.426-0.642-1.426-1.433c0-0.792,0.639-1.435,1.426-1.435S28.116,14.009,28.116,14.801L28.116,14.801L28.116,14.801z
	 M7.967,22.917c0,0.793-0.638,1.438-1.425,1.438s-1.425-0.645-1.425-1.438c0-0.791,0.639-1.435,1.426-1.435
	C7.329,21.482,7.967,22.125,7.967,22.917L7.967,22.917L7.967,22.917z"/>
<text transform="matrix(1.4221 0 0 1 42.25 21.3101)" fill="#2F4050" font-family="'Chalkboard'" font-size="18">fuvism</text>
</svg>
