<svg width="82px" height="82px" viewBox="0 0 82 82" version="1.1" xmlns="http://www.w3.org/2000/svg" xmlns:xlink="http://www.w3.org/1999/xlink"><g stroke="none" stroke-width="1" fill="none" fill-rule="evenodd"><g transform="translate(-989.000000, -319.000000)" fill="#31B3A4"><g><g transform="translate(680.000000, 10.000000)"><path d="M349.844618,309.505454 L349.844618,309.505454 C327.71597,309.505454 309.610799,327.930569 309.610799,350.451662 C309.610799,369.494764 322.557226,385.607038 339.934148,390.129883 C343.01014,390.930258 345.988905,388.478686 345.988905,385.247112 L345.988905,369.825586 C345.988905,366.171025 341.647057,364.34132 339.109626,366.926773 L339.047668,366.988863 C337.689351,368.373269 335.500793,368.728344 333.934678,367.593267 C331.94534,366.152592 331.776622,363.291616 333.429479,361.610343 L333.659202,361.376537 C336.196633,358.793024 334.398889,354.375925 330.809119,354.375925 L321.472479,354.375925 C319.549865,354.375925 317.756887,353.051668 317.438517,351.122037 C317.033405,348.672405 318.901686,346.52837 321.237991,346.52837 L330.810073,346.52837 C334.399842,346.52934 336.197586,342.112241 333.659202,339.528728 L327.056352,332.80849 C325.697082,331.425054 325.349163,329.198557 326.464412,327.605568 C327.880875,325.581832 330.690922,325.410115 332.342826,327.091388 L339.111533,333.980433 C341.649917,336.563946 345.989858,334.73424 345.989858,331.08065 L345.989858,330.807067 C345.989858,328.429226 348.095488,326.52773 350.503283,326.940044 C352.399207,327.264075 353.699378,329.088929 353.699378,331.045725 L353.699378,331.08065 C353.699378,334.73424 358.039319,336.563946 360.578657,333.980433 L367.181506,327.261164 C368.540776,325.877728 370.728381,325.523623 372.293543,326.6587 C374.282882,328.100345 374.450646,330.960351 372.798742,332.641624 L366.030035,339.529698 C363.491651,342.113211 365.289395,346.530311 368.879164,346.530311 L367.781072,346.530311 C369.683669,346.530311 371.463302,347.821582 371.804549,349.725989 C372.248742,352.199875 370.369023,354.376895 368.014607,354.376895 L368.879164,354.376895 C365.289395,354.376895 363.491651,358.793994 366.030035,361.377507 L373.418325,368.89715 C374.777595,370.280586 375.125515,372.507084 374.010265,374.100072 C372.593803,376.123808 369.783755,376.295525 368.131851,374.614253 L360.577704,366.925803 C358.039319,364.34229 353.699378,366.171995 353.699378,369.825586 L353.699378,385.247112 C353.699378,388.478686 356.678143,390.930258 359.754135,390.129883 C377.131057,385.608978 390.078437,369.497674 390.078437,350.454573 C390.078437,327.933479 371.973266,309.506424 349.844618,309.505454 L349.844618,309.505454 L349.844618,309.505454 Z M353.666969,316.785876 C353.666969,318.934762 351.955967,320.676183 349.844618,320.676183 C347.73327,320.676183 346.022267,318.934762 346.022267,316.785876 C346.022267,314.636991 347.73327,312.895569 349.844618,312.895569 C351.955967,312.895569 353.666969,314.637961 353.666969,316.785876 L353.666969,316.785876 L353.666969,316.785876 Z M385.224719,349.639082 C385.224719,351.787968 383.513716,353.529389 381.402368,353.529389 C379.291019,353.529389 377.580017,351.786998 377.580017,349.639082 C377.580017,347.490197 379.291019,345.748775 381.402368,345.748775 C383.513716,345.748775 385.224719,347.490197 385.224719,349.639082 L385.224719,349.639082 L385.224719,349.639082 Z M331.181823,371.650847 C331.181823,373.798762 329.469867,375.541154 327.358518,375.541154 C325.248123,375.540183 323.536167,373.798762 323.536167,371.649877 C323.536167,369.501961 325.248123,367.759569 327.359472,367.759569 C329.469867,367.76054 331.181823,369.501961 331.181823,371.650847 L331.181823,371.650847 L331.181823,371.650847 Z" id="large-fuvism-logo"></path></g></g></g></g></svg>
