<?xml version="1.0" encoding="utf-8"?>
<!-- Generator: Adobe Illustrator 16.0.0, SVG Export Plug-In . SVG Version: 6.00 Build 0)  -->
<!DOCTYPE svg PUBLIC "-//W3C//DTD SVG 1.1//EN" "http://www.w3.org/Graphics/SVG/1.1/DTD/svg11.dtd">
<svg version="1.1" id="图层_1" xmlns="http://www.w3.org/2000/svg" xmlns:xlink="http://www.w3.org/1999/xlink" x="0px" y="0px"
	 width="162px" height="162px" viewBox="0 0 162 162" enable-background="new 0 0 162 162" xml:space="preserve">
<g>
	<g>
		<polygon fill="#204056" points="2,11 0,11 0,0 11,0 11,2 2,2 		"/>
	</g>
	<g>
		<polygon fill="#204056" points="11,162 0,162 0,151 2,151 2,160 11,160 		"/>
	</g>
	<g>
		<polygon fill="#204056" points="162,162 151,162 151,160 160,160 160,151 162,151 		"/>
	</g>
	<g>
		<polygon fill="#204056" points="162,11 160,11 160,2 151,2 151,0 162,0 		"/>
	</g>
</g>
<g>
	<g>
		<circle fill="#E4E5E6" cx="117.334" cy="24.667" r="13.666"/>
	</g>
	<g>
		<path fill="#2FB18A" d="M61,37c-6.065,0-11-4.935-11-11s4.935-11,11-11s11,4.935,11,11S67.066,37,61,37z M61,17
			c-4.962,0-9,4.038-9,9s4.038,9,9,9s9-4.038,9-9S65.963,17,61,17z"/>
	</g>
	<g>
		<rect x="21" y="146" fill="#C4C4C4" width="120" height="5"/>
	</g>
	<g>
		<rect x="21" y="101" fill="#E4E5E6" width="120" height="5"/>
	</g>
	<g>
		<g>
			<path fill="#204056" d="M142,152H20v-52h122V152z M22,150h118v-48H22V150z"/>
		</g>
		<g>
			<g>
				<path fill="#204056" d="M34.5,114.5h-7v-7h7V114.5z M29.5,112.5h3v-3h-3V112.5z"/>
			</g>
			<g>
				<path fill="#204056" d="M44.5,114.5h-7v-7h7V114.5z M39.5,112.5h3v-3h-3V112.5z"/>
			</g>
			<g>
				<path fill="#204056" d="M54.5,114.5h-7v-7h7V114.5z M49.5,112.5h3v-3h-3V112.5z"/>
			</g>
			<g>
				<path fill="#204056" d="M64.5,114.5h-7v-7h7V114.5z M59.5,112.5h3v-3h-3V112.5z"/>
			</g>
			<g>
				<path fill="#204056" d="M74.5,114.5h-7v-7h7V114.5z M69.5,112.5h3v-3h-3V112.5z"/>
			</g>
			<g>
				<path fill="#204056" d="M84.5,114.5h-7v-7h7V114.5z M79.5,112.5h3v-3h-3V112.5z"/>
			</g>
			<g>
				<path fill="#204056" d="M94.5,114.5h-7v-7h7V114.5z M89.5,112.5h3v-3h-3V112.5z"/>
			</g>
			<g>
				<path fill="#204056" d="M104.5,114.5h-7v-7h7V114.5z M99.5,112.5h3v-3h-3V112.5z"/>
			</g>
			<g>
				<path fill="#204056" d="M114.5,114.5h-7v-7h7V114.5z M109.5,112.5h3v-3h-3V112.5z"/>
			</g>
			<g>
				<path fill="#204056" d="M124.5,114.5h-7v-7h7V114.5z M119.5,112.5h3v-3h-3V112.5z"/>
			</g>
			<g>
				<path fill="#204056" d="M39.5,124.5h-12v-7h12V124.5z M29.5,122.5h8v-3h-8V122.5z"/>
			</g>
			<g>
				<path fill="#204056" d="M49.5,124.5h-7v-7h7V124.5z M44.5,122.5h3v-3h-3V122.5z"/>
			</g>
			<g>
				<path fill="#204056" d="M59.5,124.5h-7v-7h7V124.5z M54.5,122.5h3v-3h-3V122.5z"/>
			</g>
			<g>
				<path fill="#204056" d="M69.5,124.5h-7v-7h7V124.5z M64.5,122.5h3v-3h-3V122.5z"/>
			</g>
			<g>
				<path fill="#204056" d="M79.5,124.5h-7v-7h7V124.5z M74.5,122.5h3v-3h-3V122.5z"/>
			</g>
			<g>
				<path fill="#204056" d="M89.5,124.5h-7v-7h7V124.5z M84.5,122.5h3v-3h-3V122.5z"/>
			</g>
			<g>
				<path fill="#204056" d="M99.5,124.5h-7v-7h7V124.5z M94.5,122.5h3v-3h-3V122.5z"/>
			</g>
			<g>
				<path fill="#204056" d="M109.5,124.5h-7v-7h7V124.5z M104.5,122.5h3v-3h-3V122.5z"/>
			</g>
			<g>
				<path fill="#204056" d="M119.5,124.5h-7v-7h7V124.5z M114.5,122.5h3v-3h-3V122.5z"/>
			</g>
			<g>
				<path fill="#204056" d="M39.5,144.5h-12v-7h12V144.5z M29.5,142.5h8v-3h-8V142.5z"/>
			</g>
			<g>
				<path fill="#204056" d="M49.5,144.5h-7v-7h7V144.5z M44.5,142.5h3v-3h-3V142.5z"/>
			</g>
			<g>
				<path fill="#204056" d="M99.5,144.5h-47v-7h47V144.5z M54.5,142.5h43v-3h-43V142.5z"/>
			</g>
			<g>
				<path fill="#204056" d="M109.5,144.5h-7v-7h7V144.5z M104.5,142.5h3v-3h-3V142.5z"/>
			</g>
			<g>
				<path fill="#204056" d="M119.5,144.5h-7v-7h7V144.5z M114.5,142.5h3v-3h-3V142.5z"/>
			</g>
			<g>
				<path fill="#204056" d="M129.5,144.5h-7v-7h7V144.5z M124.5,142.5h3v-3h-3V142.5z"/>
			</g>
			<g>
				<path fill="#204056" d="M134.5,114.5h-7v-7h7V114.5z M129.5,112.5h3v-3h-3V112.5z"/>
			</g>
			<g>
				<path fill="#204056" d="M34.5,134.5h-7v-7h7V134.5z M29.5,132.5h3v-3h-3V132.5z"/>
			</g>
			<g>
				<path fill="#204056" d="M44.5,134.5h-7v-7h7V134.5z M39.5,132.5h3v-3h-3V132.5z"/>
			</g>
			<g>
				<path fill="#204056" d="M54.5,134.5h-7v-7h7V134.5z M49.5,132.5h3v-3h-3V132.5z"/>
			</g>
			<g>
				<path fill="#204056" d="M64.5,134.5h-7v-7h7V134.5z M59.5,132.5h3v-3h-3V132.5z"/>
			</g>
			<g>
				<path fill="#204056" d="M74.5,134.5h-7v-7h7V134.5z M69.5,132.5h3v-3h-3V132.5z"/>
			</g>
			<g>
				<path fill="#204056" d="M84.5,134.5h-7v-7h7V134.5z M79.5,132.5h3v-3h-3V132.5z"/>
			</g>
			<g>
				<path fill="#204056" d="M94.5,134.5h-7v-7h7V134.5z M89.5,132.5h3v-3h-3V132.5z"/>
			</g>
			<g>
				<path fill="#204056" d="M104.5,134.5h-7v-7h7V134.5z M99.5,132.5h3v-3h-3V132.5z"/>
			</g>
			<g>
				<path fill="#204056" d="M114.5,134.5h-7v-7h7V134.5z M109.5,132.5h3v-3h-3V132.5z"/>
			</g>
			<g>
				<path fill="#204056" d="M124.5,134.5h-7v-7h7V134.5z M119.5,132.5h3v-3h-3V132.5z"/>
			</g>
			<g>
				<path fill="#204056" d="M134.5,134.5h-7v-10h-5v-7h12V134.5z M129.5,132.5h3v-13h-8v3h5V132.5z"/>
			</g>
		</g>
	</g>
	<g>
		<g>
			<rect x="91" y="20" fill="#204056" width="10" height="2"/>
		</g>
		<g>
			<rect x="96" y="25" fill="#204056" width="10" height="2"/>
		</g>
		<g>
			<rect x="111" y="25" fill="#204056" width="5" height="2"/>
		</g>
		<g>
			<rect x="121" y="25" fill="#204056" width="5" height="2"/>
		</g>
		<g>
			<rect x="96" y="30" fill="#204056" width="5" height="2"/>
		</g>
		<g>
			<rect x="106" y="30" fill="#204056" width="5" height="2"/>
		</g>
		<g>
			<rect x="116" y="30" fill="#204056" width="15" height="2"/>
		</g>
		<g>
			<rect x="101" y="35" fill="#204056" width="10" height="2"/>
		</g>
		<g>
			<rect x="116" y="35" fill="#204056" width="5" height="2"/>
		</g>
		<g>
			<rect x="126" y="35" fill="#204056" width="10" height="2"/>
		</g>
		<g>
			<rect x="96" y="40" fill="#204056" width="5" height="2"/>
		</g>
		<g>
			<rect x="106" y="40" fill="#204056" width="10" height="2"/>
		</g>
		<g>
			<rect x="121" y="40" fill="#204056" width="5" height="2"/>
		</g>
	</g>
	<g>
		<g>
			<rect x="21" y="76" fill="#46B898" width="5" height="15"/>
		</g>
		<g>
			<rect x="31" y="76" fill="#46B898" width="50" height="15"/>
		</g>
		<g>
			<rect x="26" y="78.5" fill="#2FB18A" width="5" height="10"/>
		</g>
		<g>
			<rect x="81" y="82.5" fill="#C4C4C4" width="50" height="2"/>
		</g>
		<g>
			<polygon fill="#C4C4C4" points="131,82.167 134.334,80.167 141,82.167 141,84.834 134.334,86.834 131,84.834 			"/>
		</g>
		<g>
			<rect x="75" y="76" fill="#204056" width="2" height="15"/>
		</g>
		<g>
			<rect x="70" y="76" fill="#204056" width="2" height="15"/>
		</g>
		<g>
			<rect x="65" y="76" fill="#204056" width="2" height="15"/>
		</g>
	</g>
	<g>
		<polygon fill="#E4E5E6" points="36,71 21,71 21,36 31,26 36,26 		"/>
	</g>
	<g>
		<g>
			<rect x="126" y="46" fill="#46B898" width="5" height="15"/>
		</g>
		<g>
			<rect x="71" y="46" fill="#46B898" width="50" height="15"/>
		</g>
		<g>
			<rect x="121" y="48.5" fill="#2FB18A" width="5" height="10"/>
		</g>
		<g>
			<rect x="75" y="46" fill="#204056" width="2" height="15"/>
		</g>
		<g>
			<rect x="80" y="46" fill="#204056" width="2" height="15"/>
		</g>
		<g>
			<rect x="85" y="46" fill="#204056" width="2" height="15"/>
		</g>
		<g>
			<rect x="36" y="51" fill="#C4C4C4" width="35" height="5"/>
		</g>
	</g>
	<g>
		<rect x="60" y="11" fill="#2FB18A" width="2" height="5"/>
	</g>
	<g>
		<rect x="60" y="36" fill="#2FB18A" width="2" height="5"/>
	</g>
	<g>
		<rect x="46" y="25" fill="#2FB18A" width="5" height="2"/>
	</g>
	<g>
		<rect x="71" y="25" fill="#2FB18A" width="5" height="2"/>
	</g>
	<g>
		
			<rect x="68.839" y="14.661" transform="matrix(0.7071 0.7071 -0.7071 0.7071 32.5902 -44.3575)" fill="#2FB18A" width="2" height="4.999"/>
	</g>
	<g>
		
			<rect x="51.162" y="32.339" transform="matrix(0.7071 0.7071 -0.7071 0.7071 39.9127 -26.6799)" fill="#2FB18A" width="2" height="5"/>
	</g>
	<g>
		
			<rect x="49.662" y="16.161" transform="matrix(0.7072 0.7071 -0.7071 0.7072 27.4092 -31.8559)" fill="#2FB18A" width="5" height="2"/>
	</g>
	<g>
		
			<rect x="67.34" y="33.839" transform="matrix(0.7071 0.7071 -0.7071 0.7071 45.0903 -39.1798)" fill="#2FB18A" width="4.999" height="2"/>
	</g>
	<g>
		<g>
			<rect x="96" y="70" fill="#204056" width="10" height="2"/>
		</g>
		<g>
			<rect x="111" y="70" fill="#204056" width="5" height="2"/>
		</g>
		<g>
			<rect x="96" y="90" fill="#204056" width="10" height="2"/>
		</g>
		<g>
			<rect x="111" y="90" fill="#204056" width="5" height="2"/>
		</g>
		<g>
			<rect x="121" y="70" fill="#204056" width="10" height="2"/>
		</g>
		<g>
			<rect x="91" y="75" fill="#204056" width="5" height="2"/>
		</g>
		<g>
			<rect x="101" y="75" fill="#204056" width="10" height="2"/>
		</g>
		<g>
			<rect x="116" y="75" fill="#204056" width="5" height="2"/>
		</g>
	</g>
	<g>
		<circle fill="#2FB18A" cx="48.5" cy="68.5" r="2.5"/>
	</g>
	<g>
		<circle fill="#C4C4C4" cx="86" cy="36" r="2.5"/>
	</g>
	<g>
		<circle fill="#46B898" cx="36.033" cy="16.033" r="5.032"/>
	</g>
</g>
</svg>
