<?xml version="1.0" encoding="utf-8"?>
<!-- Generator: Adobe Illustrator 15.0.0, SVG Export Plug-In . SVG Version: 6.00 Build 0)  -->
<!DOCTYPE svg PUBLIC "-//W3C//DTD SVG 1.1//EN" "http://www.w3.org/Graphics/SVG/1.1/DTD/svg11.dtd">
<svg version="1.1" id="图层_1" xmlns="http://www.w3.org/2000/svg" xmlns:xlink="http://www.w3.org/1999/xlink" x="0px" y="0px"
	 width="100px" height="100px" viewBox="0 0 100 100" enable-background="new 0 0 100 100" xml:space="preserve">
<circle fill="#ECEDED" cx="50" cy="50" r="50"/>
<g>
	<g>
		<path fill="#FFFFFF" d="M34.24,59.142c-0.932-0.189-1.854-0.403-2.754-0.676l-0.446-0.119h-0.364c-0.482,0-1.468,0-6.619,2.721
			l1.76-4.952l-1.547-1.054c-4.808-3.274-7.456-7.65-7.456-12.324c0-9.399,10.676-17.047,23.799-17.047
			c7.134,0,13.529,2.272,17.895,5.845c1.087-0.097,2.187-0.159,3.309-0.159c1.143,0,2.266,0.065,3.375,0.168
			C60.185,25.146,51.057,20.84,40.613,20.84c-15.797,0-28.65,9.824-28.65,21.897c0,5.696,2.913,11.154,8.053,15.215l-4.877,13.721
			l5.692-3.271c3.72-2.139,8.28-4.566,9.811-5.129c2.129,0.603,4.339,0.988,6.59,1.19C35.943,62.813,34.93,61.03,34.24,59.142z"/>
	</g>
	<path fill="#FFFFFF" d="M88.037,53.272c0-10.748-11.73-19.471-26.221-19.471c-14.48,0-26.227,8.723-26.227,19.471
		c0,10.751,11.746,19.472,26.227,19.472c3.482,0,6.801-0.506,9.842-1.426c1.011-0.31,11.146,5.518,11.146,5.518l-3.278-9.231
		C84.746,64.046,88.037,58.954,88.037,53.272z M51.707,56.029l-2.364-1.24l-2.365,1.24l0.453-2.635l-1.916-1.863l2.646-0.383
		l1.181-2.394l1.18,2.394l2.646,0.383l-1.914,1.863L51.707,56.029z M65.384,57.105l-3.676-1.934l-3.674,1.934l0.701-4.095
		l-2.972-2.899l4.108-0.593l1.836-3.726l1.841,3.726l4.104,0.593l-2.969,2.899L65.384,57.105z M76.44,56.029l-2.363-1.24
		l-2.363,1.24l0.451-2.635l-1.914-1.863l2.646-0.383l1.181-2.394l1.181,2.394l2.644,0.383l-1.913,1.863L76.44,56.029z"/>
</g>
</svg>
