<?xml version="1.0" encoding="utf-8"?>
<!-- Generator: Adobe Illustrator 16.0.0, SVG Export Plug-In . SVG Version: 6.00 Build 0)  -->
<!DOCTYPE svg PUBLIC "-//W3C//DTD SVG 1.1//EN" "http://www.w3.org/Graphics/SVG/1.1/DTD/svg11.dtd">
<svg version="1.1" id="图层_1" xmlns="http://www.w3.org/2000/svg" xmlns:xlink="http://www.w3.org/1999/xlink" x="0px" y="0px"
	 width="162px" height="162px" viewBox="0 0 162 162" enable-background="new 0 0 162 162" xml:space="preserve">
<g>
	<g>
		<polygon fill="#204056" points="2,11 0,11 0,0 11,0 11,2 2,2 		"/>
	</g>
	<g>
		<polygon fill="#204056" points="11,162 0,162 0,151 2,151 2,160 11,160 		"/>
	</g>
	<g>
		<polygon fill="#204056" points="162,162 151,162 151,160 160,160 160,151 162,151 		"/>
	</g>
	<g>
		<polygon fill="#204056" points="162,11 160,11 160,2 151,2 151,0 162,0 		"/>
	</g>
</g>
<g>
	<circle fill="#E4E5E6" cx="36" cy="126" r="10"/>
</g>
<g>
	<circle fill="#E4E5E6" cx="131" cy="58" r="10"/>
</g>
<g>
	<circle fill="#E4E5E6" cx="126" cy="21" r="3.75"/>
</g>
<g>
	<g>
		<rect x="34.5" y="145.648" fill="#E4E5E6" width="2" height="5.352"/>
	</g>
	<g>
		<rect x="39.5" y="142.676" fill="#E4E5E6" width="2" height="8.324"/>
	</g>
	<g>
		<rect x="44.5" y="139.703" fill="#E4E5E6" width="2" height="11.297"/>
	</g>
	<g>
		<rect x="49.5" y="142.676" fill="#E4E5E6" width="2" height="8.324"/>
	</g>
	<g>
		<rect x="54.5" y="145.648" fill="#E4E5E6" width="2" height="5.352"/>
	</g>
	<g>
		<rect x="59.5" y="136.729" fill="#E4E5E6" width="2" height="14.271"/>
	</g>
	<g>
		<rect x="64.5" y="130.784" fill="#E4E5E6" width="2" height="20.216"/>
	</g>
	<g>
		<rect x="69.5" y="115.919" fill="#E4E5E6" width="2" height="35.081"/>
	</g>
	<g>
		<rect x="74.5" y="112.946" fill="#E4E5E6" width="2" height="38.054"/>
	</g>
	<g>
		<rect x="79.5" y="107" fill="#E4E5E6" width="2" height="44"/>
	</g>
	<g>
		<rect x="84.5" y="109.973" fill="#E4E5E6" width="2" height="41.027"/>
	</g>
	<g>
		<rect x="89.5" y="127.811" fill="#E4E5E6" width="2" height="23.189"/>
	</g>
	<g>
		<rect x="94.5" y="133.757" fill="#E4E5E6" width="2" height="17.243"/>
	</g>
	<g>
		<rect x="99.5" y="121.865" fill="#E4E5E6" width="2" height="29.135"/>
	</g>
	<g>
		<rect x="104.5" y="115.919" fill="#E4E5E6" width="2" height="35.081"/>
	</g>
</g>
<g>
	<path fill="#204056" d="M127,122H20V30h107V122z M22,120h103V32H22V120z"/>
</g>
<g>
	<path fill="#46B898" d="M127,32H20V20h107V32z M22,30h103v-8H22V30z"/>
</g>
<g>
	<rect x="28" y="25" fill="#204056" width="3" height="2"/>
</g>
<g>
	<rect x="28" y="39.5" fill="#204056" width="13" height="2"/>
</g>
<g>
	<rect x="28" y="80" fill="#204056" width="55" height="2"/>
</g>
<g>
	<rect x="28" y="85" fill="#204056" width="55" height="2"/>
</g>
<g>
	<rect x="28" y="90" fill="#204056" width="55" height="2"/>
</g>
<g>
	<rect x="38" y="25" fill="#204056" width="3" height="2"/>
</g>
<g>
	<rect x="48" y="25" fill="#204056" width="3" height="2"/>
</g>
<g>
	<rect x="61" y="25" fill="#204056" width="55" height="2"/>
</g>
<g>
	<rect x="101" y="40" fill="#C4C4C4" width="15" height="2"/>
</g>
<g>
	<rect x="81" y="40" fill="#C4C4C4" width="15" height="2"/>
</g>
<g>
	<rect x="66" y="40" fill="#C4C4C4" width="10" height="2"/>
</g>
<g>
	<rect x="28" y="51" fill="#E4E5E6" width="90" height="25"/>
</g>
<g>
	<rect x="28" y="101" fill="#C4C4C4" width="25" height="10"/>
</g>
<g>
	<rect x="58" y="101" fill="#C4C4C4" width="25" height="10"/>
</g>
<g>
	<g>
		<rect x="117.5" y="131" fill="#C4C4C4" width="2" height="5"/>
	</g>
	<g>
		<polygon fill="#2FB18A" points="141,91 96,91 101,81 136,81 		"/>
	</g>
	<g>
		<polygon fill="#46B898" points="96,91 101,81 121,131 111,131 		"/>
	</g>
	<g>
		<polygon fill="#46B898" points="141,91 136,81 118.5,124.75 116,131 126,131 		"/>
	</g>
	<g>
		<path fill="#C4C4C4" d="M118.5,152c-4.687,0-8.5-3.813-8.5-8.5s3.813-8.5,8.5-8.5c4.688,0,8.5,3.813,8.5,8.5
			S123.188,152,118.5,152z M118.5,137c-3.584,0-6.5,2.916-6.5,6.5s2.916,6.5,6.5,6.5s6.5-2.916,6.5-6.5S122.084,137,118.5,137z"/>
	</g>
	<g>
		<path fill="#C4C4C4" d="M118.5,147c-1.93,0-3.5-1.57-3.5-3.5s1.57-3.5,3.5-3.5s3.5,1.57,3.5,3.5S120.43,147,118.5,147z M118.5,142
			c-0.826,0-1.5,0.673-1.5,1.5s0.674,1.5,1.5,1.5c0.828,0,1.5-0.673,1.5-1.5S119.328,142,118.5,142z"/>
	</g>
</g>
<g>
	<rect x="125" y="36" fill="#204056" width="2" height="60"/>
</g>
<g>
	<g>
		<polygon fill="#46B898" points="32.101,56.031 33.593,60.626 38.425,60.626 34.517,63.467 36.009,68.062 32.101,65.222 
			28.191,68.062 29.685,63.467 25.776,60.626 30.607,60.626 		"/>
	</g>
	<g>
		<polygon fill="#46B898" points="50.259,56.031 51.751,60.626 56.583,60.626 52.675,63.467 54.168,68.062 50.259,65.222 
			46.35,68.062 47.843,63.467 43.934,60.626 48.766,60.626 		"/>
	</g>
	<g>
		<polygon fill="#46B898" points="68.417,56.031 69.91,60.626 74.742,60.626 70.833,63.467 72.326,68.062 68.417,65.222 
			64.508,68.062 66.001,63.467 62.093,60.626 66.924,60.626 		"/>
	</g>
	<g>
		<polygon fill="#2FB18A" points="104.734,56.031 106.227,60.626 111.059,60.626 107.15,63.467 108.643,68.062 104.734,65.222 
			100.825,68.062 102.318,63.467 98.409,60.626 103.24,60.626 		"/>
	</g>
	<g>
		<polygon fill="#46B898" points="86.576,56.031 88.068,60.626 92.9,60.626 88.991,63.467 90.484,68.062 86.576,65.222 
			82.666,68.062 84.16,63.467 80.251,60.626 85.082,60.626 		"/>
	</g>
</g>
</svg>
