<?xml version="1.0" encoding="utf-8"?>
<!-- Generator: Adobe Illustrator 15.0.0, SVG Export Plug-In . SVG Version: 6.00 Build 0)  -->
<!DOCTYPE svg PUBLIC "-//W3C//DTD SVG 1.1//EN" "http://www.w3.org/Graphics/SVG/1.1/DTD/svg11.dtd">
<svg version="1.1" id="图层_1" xmlns="http://www.w3.org/2000/svg" xmlns:xlink="http://www.w3.org/1999/xlink" x="0px" y="0px"
	 width="100px" height="100px" viewBox="0 0 100 100" enable-background="new 0 0 100 100" xml:space="preserve">
<g>
	<g>
		<polygon fill="#DDDDDD" points="34.298,66.201 53.906,55.686 44.813,46.594 		"/>
		<path fill="#DDDDDD" d="M50.5,0c-27.571,0-50,22.429-50,50c0,27.572,22.429,50,50,50s50-22.428,50-50
			C100.5,22.429,78.071,0,50.5,0z M72.069,30.613l-14.065,26.23c-0.018,0.029-0.047,0.045-0.065,0.072
			c-0.065,0.107-0.155,0.188-0.245,0.275c-0.088,0.09-0.17,0.18-0.275,0.246c-0.027,0.018-0.044,0.049-0.072,0.064L31.113,71.57
			c-0.24,0.129-0.503,0.191-0.763,0.191c-0.417,0-0.831-0.164-1.14-0.473c-0.503-0.504-0.618-1.275-0.281-1.904l14.068-26.231
			c0.016-0.029,0.047-0.045,0.064-0.073c0.066-0.107,0.155-0.187,0.245-0.276c0.089-0.089,0.169-0.179,0.276-0.245
			c0.027-0.018,0.043-0.048,0.072-0.064l26.231-14.066c0.629-0.337,1.397-0.224,1.903,0.281
			C72.292,29.213,72.406,29.988,72.069,30.613z"/>
		<polygon fill="#DDDDDD" points="56.188,53.404 66.703,33.797 47.095,44.313 		"/>
	</g>
</g>
</svg>
