<?xml version="1.0" encoding="utf-8"?>
<!-- Generator: Adobe Illustrator 15.0.0, SVG Export Plug-In . SVG Version: 6.00 Build 0)  -->
<!DOCTYPE svg PUBLIC "-//W3C//DTD SVG 1.1//EN" "http://www.w3.org/Graphics/SVG/1.1/DTD/svg11.dtd">
<svg version="1.1" id="图层_1" xmlns="http://www.w3.org/2000/svg" xmlns:xlink="http://www.w3.org/1999/xlink" x="0px" y="0px"
	 width="100px" height="100px" viewBox="0 0 100 100" enable-background="new 0 0 100 100" xml:space="preserve">
<g transform="translate(0 -1028.4)">
	<path fill="#DDDDDD" d="M9.09,1038.4c-5.021,0-9.091,3.6-9.091,8v28v8v28c0,4.398,4.07,8,9.091,8H50h40.909
		c5.025,0,9.092-3.602,9.092-8v-28v-8v-28c0-4.4-4.066-8-9.092-8H50H9.09z"/>
	<path fill="#0C1A25" d="M11.341,1040.6c-4.745,0-8.591,3.402-8.591,7.56v26.459v7.56v26.461c0,4.156,3.846,7.559,8.591,7.559H50
		h38.659c4.748,0,8.591-3.402,8.591-7.559v-26.461v-7.56v-26.459c0-4.158-3.843-7.56-8.591-7.56H50H11.341z"/>
	<path fill="#DDDDDD" d="M14.121,1054.27v3.645l11.045,5.67l-11.045,5.67v3.645l18.409-9.315L14.121,1054.27z M32.061,1069.3v3.6
		h20.455v-3.6H32.061z"/>
</g>
</svg>
