<?xml version="1.0" encoding="utf-8"?>
<!-- Generator: Adobe Illustrator 15.0.0, SVG Export Plug-In . SVG Version: 6.00 Build 0)  -->
<!DOCTYPE svg PUBLIC "-//W3C//DTD SVG 1.1//EN" "http://www.w3.org/Graphics/SVG/1.1/DTD/svg11.dtd">
<svg version="1.1" id="图层_1" xmlns="http://www.w3.org/2000/svg" xmlns:xlink="http://www.w3.org/1999/xlink" x="0px" y="0px"
	 width="400px" height="100px" viewBox="0 0 400 100" enable-background="new 0 0 400 100" xml:space="preserve">
<g>
	<g>
		<path fill="#1ABC9C" d="M229.33,56.742c0.008-0.09,0-0.17-0.009-0.251c0.004-0.026,0.009-0.054,0.009-0.081v-1.327
			c0-0.237-0.07-0.46-0.185-0.655c-0.134-0.316-0.388-0.588-0.789-0.733c-1.362-0.498-2.519-1.347-2.899-2.8
			c-0.388-1.481,0.961-2.623,2.11-3.275c0.593-0.071,1.126-0.491,1.099-1.268c-0.108-3.228-0.297-8.44-0.501-11.663
			c0.51-0.808,0.169-2.121-1.044-2.042c-0.327-0.091-0.681-0.075-0.978,0.054c-18.339,1.101-39.479-1.008-57.829-1.05
			c-0.444-0.002-0.77,0.178-0.984,0.443c-0.205,0.211-0.341,0.502-0.342,0.883c-0.008,3.136-0.116,8.257-0.332,11.385
			c-0.018,0.265,0.036,0.483,0.13,0.666c0.083,0.263,0.249,0.509,0.527,0.701c3.021,2.102,3.443,5.776,0,7.657
			c-0.026,0.014-0.045,0.031-0.069,0.047c-0.474,0.152-0.844,0.553-0.809,1.209c0.207,3.795,0.235,8.258,0.443,12.049
			c0.012,0.241,0.082,0.447,0.183,0.621c0.106,0.554,0.522,1.039,1.253,1.039c19.016-0.014,40.678-0.588,59.689-0.664
			c0.143,0,0.27-0.025,0.391-0.061c0.65-0.014,1.245-0.431,1.158-1.267C229.238,63.377,229.133,59.736,229.33,56.742z
			 M169.485,65.691c-0.152-3.215-0.207-7.096-0.364-10.308c4.5-2.833,4.031-8.23,0.212-11.417c0.168-2.551,0.253-7.095,0.283-9.651
			c17.724,0.134,38.224,2.067,55.936,1.069c0.169,2.701,0.32,7.391,0.423,10.094c-1.937,1.175-3.364,3.048-3.181,5.433
			c0.181,2.336,1.898,3.964,3.883,4.926v0.574c0,0.068,0.012,0.137,0.023,0.203c-0.01,0.045-0.02,0.082-0.023,0.127
			c-0.167,2.556-0.105,5.758,0.106,8.299C208.568,65.132,187.703,65.658,169.485,65.691z"/>
		<path fill="#1ABC9C" d="M222.036,56.632c0.029-0.444-0.131-0.771-0.38-0.981c-0.078-0.099-0.166-0.191-0.276-0.273
			c-3.103-2.303-2.731-5.952,0.048-8.308c0.039-0.034,0.066-0.069,0.1-0.104c0.021-0.02,0.041-0.042,0.062-0.064
			c0.018-0.02,0.036-0.039,0.054-0.059c0.199-0.228,0.322-0.514,0.283-0.822c-0.214-1.653-0.33-5.302-0.443-6.962
			c-0.006-0.108-0.023-0.208-0.05-0.302c0.007-0.667-0.417-1.309-1.275-1.248c-14.132,1.001-31.055-0.883-45.21-0.883
			c-0.965,0-1.385,0.844-1.262,1.58c-0.038,0.125-0.065,0.258-0.065,0.409c0,1.366-0.005,4.719-0.11,6.08
			c-0.005,0.064,0,0.12,0.003,0.178c-0.035,0.258,0.01,0.537,0.177,0.824c1.669,2.866,1.193,5.939-0.897,8.451
			c-0.014,0.016-0.021,0.035-0.035,0.052c-0.275,0.212-0.464,0.542-0.464,0.997c0,2.027-0.006,4.717-0.11,6.743
			c-0.008,0.16,0.014,0.299,0.049,0.431c0.026,0.641,0.448,1.25,1.278,1.227c14.882-0.409,32.43,0.186,47.309-0.443
			c0.35-0.014,0.623-0.14,0.83-0.326c0.479-0.265,0.818-0.782,0.672-1.463C222.025,60.018,221.945,58.006,222.036,56.632z
			 M174.868,60.916c0.055-1.527,0.075-3.717,0.076-5.248c2.547-3.271,3.215-7.246,1.219-10.974v-0.001
			c0.088-1.137,0.105-4.266,0.109-5.406c13.308,0.106,29.363,1.734,42.647,0.946c0.081,1.095,0.171,4.178,0.299,5.27
			c-3.638,3.383-3.456,8.403,0.146,11.606c-0.032,0.929,0.018,2.516,0.14,3.434C205.516,61.068,188.861,60.585,174.868,60.916z"/>
		<path fill="#1ABC9C" d="M197.828,44.583V56.52c0,1.71,2.653,1.71,2.653,0V44.583C200.481,42.872,197.828,42.872,197.828,44.583z"
			/>
	</g>
</g>
<g id="_x0A_calendar">
	<g>
		<path fill-rule="evenodd" clip-rule="evenodd" fill="#1ABC9C" d="M351.62,43.494c0.912-0.06,1.826-0.123,2.739-0.156
			c0.474-0.015,0.706,0.239,0.741,0.754c0.027,0.399,0.029,0.801,0.032,1.205c0.036,3.556,0.069,7.113,0.106,10.67
			c0.004,0.457,0.011,0.918,0.043,1.375c0.02,0.252,0.201,0.434,0.445,0.432c0.859-0.004,1.718-0.033,2.576-0.09
			c0.108-0.006,0.273-0.227,0.289-0.359c0.047-0.455,0.043-0.914,0.047-1.375c0.027-2.982,0.039-5.965,0.084-8.947
			c0.048-3.21,0.131-6.42,0.195-9.63c0.018-0.918,0.006-1.836,0.025-2.753c0.015-0.537-0.015-1.133-0.463-1.415
			c-0.812-0.505-1.227-1.578-2.338-1.634c-0.287-0.014-0.572-0.03-0.858-0.035c-0.403-0.006-0.806,0.005-1.206-0.002
			c-0.861-0.017-0.928-0.058-1.121-0.954c-0.119-0.56-0.116-1.15-0.283-1.691c-0.111-0.358-0.363-0.761-0.672-0.947
			c-0.477-0.292-1.084-0.389-1.64-0.238c-0.226,0.06-0.446,0.37-0.538,0.614c-0.115,0.312-0.117,0.672-0.13,1.015
			c-0.02,0.573,0.001,1.147-0.017,1.719c-0.008,0.244-0.162,0.435-0.416,0.461c-0.398,0.042-0.8,0.069-1.201,0.069
			c-1.138-0.001-1.529,0.165-1.582-1.359c-0.019-0.504-0.214-1.006-0.359-1.501c-0.081-0.271-0.187-0.55-0.348-0.782
			c-0.48-0.692-1.215-0.851-1.982-0.763c-0.65,0.075-0.691,0.692-0.809,1.182c-0.091,0.387-0.127,0.789-0.17,1.188
			c-0.039,0.398-0.041,0.801-0.076,1.201c-0.021,0.252-0.164,0.427-0.423,0.461c-0.454,0.059-0.909,0.097-1.364,0.159
			c-0.85,0.117-0.967,0.049-1.188-0.764c-0.076-0.276-0.087-0.573-0.186-0.838c-0.332-0.911-0.588-1.896-1.756-2.124
			c-0.051-0.008-0.102-0.058-0.135-0.103c-0.354-0.487-0.807-0.635-1.344-0.344c-0.481,0.261-0.486,0.749-0.479,1.209
			c0.017,0.974,0.061,1.95,0.084,2.924c0.01,0.436-0.186,0.672-0.572,0.682c-0.745,0.019-1.492,0.022-2.237,0.013
			c-0.474-0.006-0.622-0.126-0.72-0.562c-0.113-0.501-0.174-1.019-0.308-1.514c-0.151-0.548-0.341-1.088-0.558-1.611
			c-0.168-0.403-0.524-0.563-0.959-0.619c-0.861-0.111-1.533,0.378-2.258,0.68c-0.166,0.07-0.313,0.358-0.336,0.562
			c-0.048,0.451-0.013,0.911-0.013,1.371c-0.001,0.514,0.015,1.03-0.021,1.542c-0.01,0.126-0.186,0.314-0.312,0.343
			c-0.275,0.063-0.57,0.055-0.855,0.053c-0.566-0.008-1.135-0.03-1.701-0.044c-0.441-0.491-0.18-1.094-0.257-1.643
			c-0.017-0.111-0.001-0.23-0.024-0.342c-0.174-0.812-0.527-1.511-1.271-1.956c-0.42-0.251-0.884-0.194-1.271,0.12
			c-0.668,0.546-0.974,1.194-0.882,2.1c0.209,2.082,0.242,1.963-1.996,2.101c-0.58,0.037-0.745-0.1-0.752-0.648
			c-0.011-0.692-0.043-1.375-0.322-2.024c-0.279-0.647-1.027-1.132-1.623-1.048c-0.717,0.098-1.236,0.595-1.363,1.346
			c-0.057,0.336-0.045,0.687-0.058,1.028c-0.015,0.402-0.003,0.803-0.032,1.202c-0.02,0.256-0.193,0.445-0.449,0.415
			c-1.258-0.146-2.502,0.087-3.75,0.138c-1.4,0.056-2.106,0.929-1.896,2.298c0.398,2.632,0.272,5.27,0.123,7.9
			c-0.086,1.544-0.129,3.088-0.154,4.636c-0.041,2.524,0.092,5.039,0.271,7.553c0.136,1.887,0.235,3.777,0.422,5.658
			c0.297,2.965,0.585,5.93,0.642,8.91c0.021,1.109,0.283,2.139,0.666,3.166c0.342,0.918,1.04,1.547,1.821,1.979
			c1.417,0.785,3.011,1.178,4.623,1.092c1.267-0.064,2.514,0.027,3.771,0.049c1.949,0.031,3.901,0.01,5.852,0.01v0.088
			c1.895,0,3.788,0.004,5.68-0.002c0.459-0.002,0.932,0.021,1.373-0.076c1.186-0.26,2.389-0.256,3.59-0.334
			c1.029-0.066,2.055-0.178,3.079-0.281c0.247-0.025,0.423-0.182,0.429-0.447c0.009-0.744,0.014-1.49-0.002-2.232
			c-0.005-0.256-0.186-0.414-0.438-0.436c-0.282-0.023-0.571-0.018-0.858-0.01c-1.831,0.053-3.657,0.15-5.488,0.305
			c-3.316,0.273-6.652,0.24-9.975,0.014c-1.316-0.088-2.616-0.238-3.935-0.055c-0.394,0.057-0.806,0.043-1.202,0.006
			c-1.387-0.125-2.245-1.045-3.006-2.082c-0.098-0.129-0.129-0.318-0.145-0.486c-0.23-2.162-0.502-4.322-0.666-6.492
			c-0.201-2.629-0.244-5.27-0.479-7.895c-0.12-1.373-0.246-2.738-0.256-4.113c-0.016-1.606-0.018-3.214-0.013-4.819
			c0.007-1.552-0.187-1.622,1.572-1.628c0.228,0,0.456-0.046,0.683-0.079c2.838-0.43,5.691-0.624,8.563-0.624
			c2.979,0,5.954,0.077,8.94-0.148c2.968-0.225,5.953-0.243,8.927-0.465c2.284-0.17,4.565-0.412,6.862-0.358
			C350.818,43.622,351.22,43.522,351.62,43.494z M344.095,40.533c-2.291,0.059-4.574,0.214-6.839,0.604
			c-0.448,0.077-0.915,0.052-1.374,0.057c-2.982,0.029-5.965,0.048-8.949,0.077c-1.66,0.017-3.314-0.015-4.975,0.227
			c-1.066,0.156-2.174,0.029-3.264,0.029v0.078c-1.033,0-2.065,0.008-3.098-0.003c-0.467-0.004-0.66-0.172-0.663-0.59
			c-0.015-1.72-0.016-3.441-0.021-5.16c0-0.057-0.002-0.128,0.03-0.166c0.067-0.083,0.147-0.191,0.237-0.207
			c0.084-0.016,0.25,0.057,0.272,0.125c0.124,0.377,0.218,0.763,0.314,1.147c0.056,0.223,0.085,0.453,0.148,0.672
			c0.206,0.69,0.733,1.109,1.36,1.097c0.618-0.013,1.207-0.442,1.402-1.083c0.133-0.436,0.203-0.893,0.295-1.341
			c0.051-0.256,0.206-0.415,0.461-0.414c0.572,0.004,1.146,0.02,1.719,0.057c0.439,0.028,0.58,0.179,0.648,0.63
			c0.043,0.281,0.029,0.578,0.115,0.846c0.23,0.713,0.972,0.994,1.658,0.66c0.694-0.337,1.314-0.715,1.318-1.628
			c0.002-0.326,0.275-0.478,0.592-0.49c0.574-0.024,1.147-0.042,1.721-0.05c0.719-0.01,1.068-0.034,1.102,0.892
			c0.013,0.333,0.113,0.679,0.24,0.99c0.426,1.044,1.48,1.379,2.379,0.751c0.822-0.574,1.422-1.292,1.588-2.347
			c0.117-0.766,0.269-0.84,0.996-0.939c0.734-0.1,1.472-0.216,2.211-0.297c0.238-0.026,0.443,0.1,0.506,0.362
			c0.104,0.446,0.188,0.897,0.307,1.337c0.074,0.274,0.171,0.548,0.305,0.797c0.293,0.542,0.76,0.856,1.379,0.884
			c0.65,0.03,1.111-0.335,1.37-0.872c0.22-0.452,0.325-0.97,0.433-1.468c0.07-0.334,0.049-0.687,0.083-1.028
			c0.026-0.257,0.192-0.418,0.437-0.451c0.341-0.046,0.686-0.042,1.029-0.075c1.258-0.118,1.301-0.095,1.472,1.154
			c0.055,0.396,0.038,0.804,0.093,1.199c0.091,0.68,0.615,1.12,1.299,1.129c1.172,0.014,2.252-0.853,2.461-1.995
			c0.053-0.281,0.033-0.574,0.062-0.859c0.037-0.356,0.238-0.581,0.525-0.537c0.734,0.116,1.466,0.252,2.189,0.417
			c0.122,0.028,0.258,0.235,0.286,0.379c0.065,0.334,0.048,0.687,0.107,1.025c0.147,0.835,0.794,1.429,1.636,1.527
			c0.703,0.083,1.521-0.539,1.767-1.363c0.096-0.327,0.128-0.673,0.252-0.986c0.047-0.116,0.271-0.219,0.415-0.22
			c0.146-0.003,0.332,0.095,0.43,0.208c0.104,0.12,0.162,0.309,0.17,0.471c0.042,1.147,0.07,2.294,0.093,3.439
			c0.008,0.407-0.2,0.614-0.625,0.64c-0.343,0.021-0.687,0.033-1.03,0.023c-2.473-0.054-4.919,0.17-7.357,0.552
			C345.249,40.533,344.668,40.519,344.095,40.533z M368.962,72.213c-0.078-3-0.975-5.727-2.717-8.176
			c-1.326-1.865-3.155-2.994-5.344-3.482c-4.109-0.918-7.949-0.092-11.541,2.029c-0.391,0.232-0.745,0.531-1.092,0.83
			c-2.074,1.771-3.299,4.084-4.02,6.658c-0.387,1.373-0.523,2.812-0.322,4.254c0.078,0.564,0.158,1.131,0.249,1.695
			c0.378,2.365,1.284,4.506,2.78,6.377c1.248,1.564,2.848,2.654,4.771,3.205c2.187,0.627,4.416,0.605,6.632,0.199
			c1.876-0.348,3.586-1.158,5.224-2.119c2.373-1.393,3.961-3.406,4.791-6.039c0.457-1.441,0.602-2.906,0.588-4.217
			C368.962,72.9,368.971,72.555,368.962,72.213z M365.192,72.477c-0.031,1.531-0.054,2.547-0.291,3.568
			c-0.398,1.719-1.334,3.031-2.746,4.006c-2.545,1.754-5.357,2.527-8.455,2.172c-1.817-0.211-3.211-1.127-4.339-2.51
			c-0.141-0.174-0.256-0.391-0.319-0.602c-0.316-1.037-0.614-2.084-0.914-3.125c-0.062-0.217-0.133-0.443-0.152-0.67
			c-0.168-2.113-0.236-4.223,0.322-6.309c0.217-0.799,0.576-1.475,1.211-2.021c2.248-1.928,4.793-3.088,7.796-3.1
			c0.517-0.004,1.034-0.008,1.546,0.02c2.163,0.117,3.824,1.078,4.902,2.979C364.821,68.775,365.353,70.797,365.192,72.477z
			 M339.505,52.256c0.002-0.012,0.005-0.025,0.005-0.037c0.46,0.02,0.915,0.068,1.372,0.059c0.629-0.02,1.105-0.379,1.162-0.826
			c0.053-0.422-0.32-0.966-0.821-1.196c-0.053-0.025-0.104-0.049-0.159-0.065c-1.45-0.456-2.932-0.472-4.416-0.269
			c-0.422,0.056-0.705,0.367-0.783,0.81c-0.1,0.549,0.203,1.076,0.751,1.165C337.572,52.047,338.542,52.139,339.505,52.256z
			 M322.179,50.904c-0.222-0.048-0.452-0.059-0.681-0.064c-0.455-0.01-0.912-0.002-1.368-0.002c-0.514,0-1.027-0.012-1.54,0.006
			c-0.224,0.006-0.459,0.041-0.669,0.119c-0.336,0.123-0.572,0.368-0.645,0.735c-0.08,0.424,0.003,0.82,0.365,1.066
			c0.273,0.191,0.605,0.402,0.923,0.42c1.192,0.061,2.389,0.088,3.583,0.047c0.561-0.023,1.015-0.695,0.976-1.229
			C323.091,51.528,322.655,51.008,322.179,50.904z M336.806,59.07c0.545,0.162,1.104,0.27,1.607,0.389
			c0.861-0.164,1.656-0.275,2.43-0.475c0.547-0.141,0.908-0.703,0.861-1.152c-0.059-0.527-0.606-1-1.207-1.039
			c-0.057-0.002-0.115-0.004-0.172,0c-1.025,0.105-2.051,0.205-3.072,0.32c-0.164,0.02-0.322,0.111-0.477,0.188
			c-0.332,0.164-0.53,0.422-0.545,0.807C336.218,58.549,336.424,58.959,336.806,59.07z M327.608,52.854
			c1.012-0.094,2.025-0.186,3.033-0.316c0.272-0.033,0.541-0.166,0.783-0.301c0.43-0.233,0.502-1.009,0.112-1.323
			c-0.211-0.171-0.481-0.321-0.745-0.366c-0.445-0.075-0.904-0.06-1.182-0.074c-0.627,0.039-1.084,0.041-1.531,0.104
			c-0.391,0.054-0.78,0.147-1.152,0.274c-0.492,0.168-0.711,0.539-0.682,1.047c0.027,0.449,0.375,0.83,0.857,0.918
			C327.269,52.848,327.441,52.869,327.608,52.854z M341.216,63.609c-0.057-0.006-0.113-0.014-0.171-0.014
			c-1.146-0.033-2.257,0.205-3.373,0.402c-0.055,0.01-0.105,0.041-0.158,0.062c-0.432,0.176-0.673,0.625-0.597,1.109
			c0.062,0.391,0.386,0.723,0.797,0.775c0.335,0.037,0.679,0.037,1.369,0.076c0.557-0.094,1.455-0.215,2.338-0.41
			c0.541-0.117,1-0.73,0.925-1.086C342.26,64.111,341.732,63.682,341.216,63.609z M317.279,66.059c0.07,0.32,0.36,0.623,0.71,0.639
			c0.621,0.029,1.244,0.008,1.867,0.008c0.002,0.016,0.002,0.031,0.002,0.049c0.791-0.047,1.587-0.062,2.373-0.152
			c0.453-0.051,0.849-0.555,0.854-0.939c0.008-0.385-0.382-0.844-0.824-0.973c-0.11-0.031-0.223-0.068-0.333-0.068
			c-1.021,0.002-2.044-0.037-3.056,0.041c-0.426,0.035-0.855,0.281-1.238,0.508C317.331,65.348,317.198,65.684,317.279,66.059z
			 M317.751,59.695c1.262,0.52,2.543,0.607,3.829,0.08c0.155-0.064,0.305-0.162,0.431-0.275c0.315-0.275,0.514-0.615,0.401-1.057
			c-0.099-0.377-0.457-0.688-0.871-0.713c-0.397-0.025-0.797-0.006-1.489-0.006c-0.562,0.086-1.407,0.195-2.245,0.354
			c-0.352,0.068-0.537,0.406-0.538,0.783C317.267,59.232,317.409,59.555,317.751,59.695z M347.338,58.404
			c0.771,0.191,1.56,0.316,2.341,0.465c0.005-0.043,0.012-0.09,0.018-0.135c0.457,0,0.92,0.039,1.371-0.014
			c0.488-0.053,0.936-0.607,0.959-1.08c0.021-0.459-0.397-1-0.889-1.145c-0.053-0.016-0.107-0.037-0.164-0.043
			c-1.093-0.104-2.177-0.078-3.215,0.322c-0.254,0.096-0.488,0.297-0.683,0.496C346.743,57.613,346.89,58.297,347.338,58.404z
			 M349.817,51.889c0.521-0.026,0.986-0.27,1.367-0.634c0.266-0.255,0.339-0.587,0.232-0.94c-0.09-0.301-0.322-0.493-0.619-0.506
			c-0.623-0.028-1.248-0.009-1.873-0.009c0-0.01,0-0.021-0.002-0.029c-0.68,0.049-1.365,0.058-2.035,0.167
			c-0.332,0.053-0.587,0.333-0.662,0.707c-0.078,0.397,0.082,0.862,0.409,1.049c0.192,0.109,0.416,0.227,0.628,0.23
			C348.113,51.938,348.968,51.937,349.817,51.889z M327.638,59.412c0.662,0.164,1.34,0.258,1.615,0.305
			c1.104,0.059,1.789-0.025,2.369-0.426c0.205-0.143,0.365-0.447,0.405-0.699c0.05-0.305-0.214-0.525-0.49-0.623
			c-0.316-0.113-0.655-0.219-0.987-0.225c-0.967-0.014-1.939,0.018-2.91,0.043c-0.165,0.002-0.358,0.021-0.488,0.107
			c-0.18,0.117-0.398,0.289-0.438,0.475c-0.039,0.182,0.075,0.457,0.213,0.6C327.118,59.166,327.378,59.35,327.638,59.412z
			 M331.194,66.312c0.428-0.115,0.84-0.314,1.227-0.533c0.301-0.168,0.332-0.65,0.104-0.895c-0.155-0.162-0.313-0.379-0.51-0.436
			c-1.276-0.375-2.576-0.355-3.853-0.016c-0.57,0.154-0.694,1.014-0.229,1.41c0.246,0.213,0.569,0.395,0.882,0.447
			c0.441,0.076,0.906,0.021,1.359,0.021v0.016C330.516,66.328,330.874,66.395,331.194,66.312z M361.233,73.156
			c-0.373-0.121-0.78-0.166-1.174-0.189c-0.741-0.035-1.487-0.02-2.229-0.037c-0.891-0.021-0.893-0.146-0.746-0.871
			c0.217-1.059,0.345-2.137,0.469-3.213c0.07-0.621,0.072-1.254,0.078-1.881c0.006-0.484-0.145-0.963-0.609-1.146
			c-0.619-0.242-1.21-0.697-1.943-0.48c-0.152,0.045-0.338,0.152-0.412,0.285c-0.197,0.34-0.422,0.693-0.484,1.068
			c-0.092,0.559-0.055,1.139-0.07,1.711c-0.025,1.084-0.035,2.17-0.09,3.254c-0.043,0.854-0.178,1.705-0.217,2.557
			c-0.059,1.236,0.512,1.926,1.75,2.096c1.241,0.166,2.492,0.277,3.738,0.414c0.002-0.029,0.004-0.055,0.009-0.084
			c0.515,0,1.032,0.041,1.542-0.008c0.924-0.092,1.533-0.682,1.625-1.488C362.579,74.146,362.175,73.463,361.233,73.156z"/>
	</g>
</g>
<g>
	<g>
		<path fill="#1ABC9C" d="M59.363,63.063c-1.537,0.452-2.533,1.692-3.221,3.076c-0.718,1.438-1.238,3.091-0.912,4.708
			c0.185,0.916,0.584,1.953,1.096,2.736c2.212,3.395,6.488,3.836,9.877,2.096c3.496-1.795,5.26-5.989,2.553-9.219
			C66.717,64.027,62.558,62.129,59.363,63.063z M64.518,72.797c-1.912,1.143-4.298,0.652-5.512-1.209
			c-0.775-1.188-0.647-2.984,0.095-4.137c0.853-1.324,2.422-1.211,3.763-0.859c1.002,0.264,1.955,0.746,2.751,1.41
			C67.706,69.743,66.515,71.602,64.518,72.797z"/>
		<path fill="#1ABC9C" d="M53.674,38.409c0.821,1.222,2.446,0.814,2.989-0.142c2.237-1.833,6.875-4.183,8.382-0.394
			c1.657,4.168-3.722,6.17-6.866,6.598c-0.939,0.128-1.285,0.828-1.198,1.544c-0.022,0.125-0.034,0.257-0.03,0.4
			c0.162,4.006,0.167,8.016,0.169,12.026c0,0.173,0.028,0.331,0.069,0.476c-0.088,0.894,0.441,1.862,1.6,1.86
			c2.513,0,5.018-0.027,7.517-0.332c0.27-0.035,0.502-0.122,0.707-0.239c0.76-0.082,1.464-0.613,1.464-1.598v-7.387
			c6.778-4.071,13.482-12.553,9.808-20.748c-4.892-10.91-20.987-6.73-28.855-2.368c-0.461,0.256-0.706,0.623-0.789,1.014
			c-0.481,0.604-0.648,1.511-0.05,2.277C50.371,33.673,52.065,36.011,53.674,38.409z M75.193,31.7
			c3.519,6.774-3.955,14.23-9.23,17.117c-0.674,0.368-0.887,0.973-0.804,1.55c-0.009,0.074-0.023,0.145-0.023,0.226v6.626
			c-1.556,0.141-3.115,0.197-4.678,0.213c-0.002-3.32-0.02-6.637-0.132-9.955c2.791-0.581,5.362-1.841,7.084-4.219
			c1.428-1.97,1.583-4.685,0.608-6.868c-0.982-2.196-3.123-3.619-5.492-3.847c-2.638-0.253-5.074,0.914-7.141,2.474
			c-1.072-1.535-2.188-3.037-3.324-4.525C58.582,27.176,71.008,23.641,75.193,31.7z"/>
	</g>
</g>
</svg>
