<?xml version="1.0" encoding="utf-8"?>
<!-- Generator: Adobe Illustrator 16.0.0, SVG Export Plug-In . SVG Version: 6.00 Build 0)  -->
<!DOCTYPE svg PUBLIC "-//W3C//DTD SVG 1.1//EN" "http://www.w3.org/Graphics/SVG/1.1/DTD/svg11.dtd">
<svg version="1.1" id="图层_1" xmlns="http://www.w3.org/2000/svg" xmlns:xlink="http://www.w3.org/1999/xlink" x="0px" y="0px"
	 width="150px" height="38px" viewBox="0 0 150 38" enable-background="new 0 0 150 38" xml:space="preserve">
<g>
	<path fill="#46A838" d="M28.331,23.123c-0.166,0.082-0.352,0.13-0.55,0.13c-0.458,0-0.856-0.25-1.065-0.617l-0.081-0.175
		L23.3,15.216c-0.037-0.079-0.059-0.167-0.059-0.254c0-0.334,0.273-0.605,0.611-0.605c0.138,0,0.263,0.044,0.365,0.121l3.938,2.773
		c0.288,0.187,0.63,0.295,1,0.295c0.221,0,0.432-0.041,0.626-0.111l18.517-8.155c-3.318-3.871-8.785-6.4-14.971-6.4
		C23.206,2.881,15,9.647,15,17.994c0,4.553,2.47,8.652,6.332,11.424c0.311,0.219,0.515,0.578,0.515,0.983
		c0,0.133-0.03,0.256-0.065,0.385c-0.31,1.14-0.803,2.962-0.827,3.049c-0.038,0.144-0.099,0.291-0.099,0.442
		c0,0.332,0.274,0.604,0.611,0.604c0.133,0,0.241-0.049,0.353-0.113l4.012-2.291c0.302-0.173,0.621-0.278,0.973-0.278
		c0.187,0,0.368,0.027,0.539,0.08c1.873,0.532,3.891,0.829,5.983,0.829c10.121,0,18.327-6.767,18.327-15.114
		c0-2.529-0.757-4.91-2.087-7.004L28.465,23.045L28.331,23.123z"/>
	<rect x="85.986" y="15.86" fill="#070102" width="10.277" height="0.859"/>
	<rect x="85.986" y="18.725" fill="#070102" width="10.277" height="0.931"/>
	<path fill="#070102" d="M86.249,27.652h9.753v-5.479h-9.753V27.652z M95.062,26.794h-7.87v-3.761h7.87V26.794z"/>
	<path fill="#070102" d="M83.744,10.563c-0.919,3.197-2.221,6.014-3.908,8.447c0.001,0.001,0.002,0.003,0.003,0.004l0.513,0.88
		c0.599-0.877,1.201-1.863,1.802-2.96v10.78h0.938V15.001c0.598-1.27,1.103-2.585,1.524-3.94L83.744,10.563z"/>
	<path fill="#070102" d="M91.2,12.924l0.738-0.421c-0.146-0.333-0.763-1.582-0.956-2.011l-0.868,0.496
		c0.309,0.574,0.6,1.147,0.867,1.721c0.047,0.097,0.072,0.168,0.072,0.215h-6.078v0.93h12.375v-0.93H91.2z"/>
	<polygon fill="#070102" points="67.991,10.812 68.86,10.812 68.86,15.396 70.669,15.396 70.669,12.174 71.538,12.174 
		71.538,16.255 65.241,16.255 65.241,12.174 66.109,12.174 66.109,15.396 67.991,15.396 	"/>
	<rect x="65.531" y="18.117" fill="#070102" width="5.573" height="0.859"/>
	<path fill="#070102" d="M71.896,23.104l-1.444,1.223V20.84h-4.704v1.36c0.136,1.925-0.344,3.283-1.44,4.076l0.502,0.862
		c1.348-1.099,1.975-2.625,1.878-4.581v-0.858h2.895v2.076c-0.036,0.705-0.071,0.939-0.325,1.286l0.543,0.933
		c0.482-0.384,1.325-1.098,2.529-2.146L71.896,23.104z"/>
	<path fill="#070102" d="M63.919,10.635c-0.898,1.815-1.981,3.312-3.248,4.487l0.528,0.908c1.442-1.43,2.62-3.073,3.534-4.929
		L63.919,10.635z"/>
	<path fill="#070102" d="M63.794,15.324c-0.862,2.136-1.99,3.988-3.377,5.558l0.503,0.863c0.571-0.661,1.119-1.345,1.644-2.053
		v8.021h0.869V18.26c0.426-0.748,0.827-1.567,1.208-2.454L63.794,15.324z"/>
	<path fill="#070102" d="M78.335,14.822v-0.859h-4.123c0.35-1.046,0.771-2.294,0.911-3.365l-0.911-0.001
		c-0.606,2.811-1.504,5.174-2.693,7.094l0.549,0.943c0.096-0.19,0.23-0.455,0.406-0.803c0.192-0.335,0.337-0.597,0.435-0.789
		c0.289,2.531,0.796,4.535,1.52,6.016c-0.691,1.183-1.736,2.388-3.126,3.612l0.522,0.897c1.494-1.384,2.506-2.577,3.039-3.579
		c0.626,1.12,1.69,2.447,2.872,3.634l0.528-0.908c-1.235-1.169-2.306-2.461-2.895-3.586c1.061-1.908,1.711-4.678,1.955-8.306H78.335
		z M74.936,22.055c-0.628-1.575-1.086-3.7-1.375-6.373c0.096-0.288,0.218-0.573,0.362-0.859h2.533
		C76.26,17.877,75.756,20.289,74.936,22.055"/>
	<path fill="#070001" d="M127.854,23.248c-0.632-1.234-1.934-3.376-2.988-4.941l0.785-0.386c1.071,1.564,2.394,3.65,3.026,4.809
		L127.854,23.248z"/>
	<path fill="#070001" d="M116.15,27.551l0.246-0.81c-2.948-0.438-5.503-1.271-7.641-2.508c2.3-1.504,4.159-3.494,5.309-6.138
		l-0.613-0.406l-0.193,0.039h-4.96v-3.399h7.528v-0.928h-7.528v-3.186h-0.921v3.186h-7.51v0.928h7.51v3.399h-5.109v0.907
		c1.093,2.279,2.773,4.151,4.785,5.562c-2.26,1.26-4.921,2.079-7.662,2.583l0.266,0.865c0.006,0.014,0.017,0.033,0.02,0.045
		c2.932-0.579,5.787-1.505,8.22-2.913c2.278,1.408,5.038,2.354,8.219,2.837C116.125,27.595,116.139,27.572,116.15,27.551
		 M103.354,18.635h9.351c-1.075,2.145-2.742,3.785-4.791,5.079C105.941,22.381,104.389,20.701,103.354,18.635"/>
	<path fill="#070001" d="M122.892,10.351c-1.134,3.037-2.956,5.957-4.92,7.928l0.393,0.981c0.007,0.016,0.021,0.037,0.025,0.05
		c0.824-0.81,1.592-1.776,2.319-2.838v11.2h0.919V15.043c0.824-1.391,1.554-2.877,2.146-4.423L122.892,10.351z"/>
	<path fill="#070001" d="M132.415,14.58v-4.133h-0.922v4.133h-8.026v0.927h8.026v10.737c0,0.441-0.153,0.559-0.593,0.598
		c-0.35,0.016-0.727,0.097-1.724,0.104l0.004,0.811c1.358,0.008,1.816-0.015,2.333-0.163c0.612-0.154,0.901-0.462,0.901-1.369
		V15.507H135V14.58H132.415L132.415,14.58z"/>
</g>
</svg>
