<?xml version="1.0" encoding="utf-8"?>
<!-- Generator: Adobe Illustrator 15.0.0, SVG Export Plug-In . SVG Version: 6.00 Build 0)  -->
<!DOCTYPE svg PUBLIC "-//W3C//DTD SVG 1.1//EN" "http://www.w3.org/Graphics/SVG/1.1/DTD/svg11.dtd">
<svg version="1.1" id="图层_1" xmlns="http://www.w3.org/2000/svg" xmlns:xlink="http://www.w3.org/1999/xlink" x="0px" y="0px"
	 width="100px" height="100px" viewBox="0 0 100 100" enable-background="new 0 0 100 100" xml:space="preserve">
<circle fill="#ECEDED" cx="50" cy="49.999" r="50"/>
<g>
	<g>
		<path fill="#1ABC9C" d="M50.744,58.724c-3.473,0-6.298-2.826-6.298-6.3c0-3.475,2.826-6.3,6.298-6.3
			c3.476,0,6.301,2.825,6.301,6.3C57.045,55.897,54.22,58.724,50.744,58.724L50.744,58.724z M50.744,49.032
			c-1.868,0-3.391,1.522-3.391,3.392s1.522,3.392,3.391,3.392c1.871,0,3.394-1.521,3.394-3.392S52.615,49.032,50.744,49.032
			L50.744,49.032z"/>
	</g>
	<path fill="#1ABC9C" d="M66.669,59.547c-5.108,0.872-10.737,1.357-16.652,1.357s-11.54-0.485-16.651-1.357
		c-0.034,0.448-0.068,0.898-0.068,1.357c0,9.234,7.485,16.72,16.719,16.72c9.235,0,16.719-7.485,16.719-16.72
		C66.736,60.445,66.705,59.995,66.669,59.547z M48.322,67.324c-1.139,0-2.059-0.921-2.059-2.059c0-1.137,0.92-2.06,2.059-2.06
		c1.136,0,2.059,0.923,2.059,2.06C50.381,66.403,49.458,67.324,48.322,67.324z M56.44,70.961c-1.74,0-3.152-1.41-3.152-3.149
		s1.412-3.15,3.152-3.15c1.737,0,3.149,1.411,3.149,3.15S58.178,70.961,56.44,70.961z"/>
	<circle fill="#1ABC9C" cx="50.744" cy="38.854" r="3.149"/>
	<g>
		<path fill="#1F4055" d="M50.017,84.894c-13.227,0-23.989-10.763-23.989-23.989c0-9.402,5.373-17.768,13.812-21.709V19.098
			l3.118,1.479c3.896,1.852,10.223,1.852,14.121,0l3.115-1.479v20.098c8.439,3.941,13.812,12.307,13.812,21.709
			C74.006,74.131,63.244,84.894,50.017,84.894L50.017,84.894z M44.202,25.647v16.465l-1.38,0.545
			C35.271,45.64,30.39,52.802,30.39,60.904c0,10.823,8.806,19.627,19.627,19.627c10.822,0,19.627-8.804,19.627-19.627
			c0-8.103-4.879-15.265-12.432-18.246l-1.38-0.545V25.647C52.215,26.604,47.819,26.604,44.202,25.647L44.202,25.647z"/>
	</g>
	<g>
		<path fill="#1F4055" d="M57.017,19.559c-0.136,0-0.275-0.024-0.411-0.077c-3.655-1.408-9.519-1.408-13.176,0
			c-0.59,0.229-1.255-0.066-1.482-0.659c-0.227-0.59,0.065-1.255,0.659-1.482c4.168-1.607,10.654-1.607,14.826,0
			c0.591,0.228,0.886,0.892,0.655,1.482C57.914,19.28,57.479,19.559,57.017,19.559L57.017,19.559z"/>
	</g>
</g>
</svg>
